<?xml version="1.0" encoding="UTF-8" standalone="no"?>
<!-- Created with Inkscape (http://www.inkscape.org/) -->

<svg
   xmlns:dc="http://purl.org/dc/elements/1.1/"
   xmlns:cc="http://creativecommons.org/ns#"
   xmlns:rdf="http://www.w3.org/1999/02/22-rdf-syntax-ns#"
   xmlns:svg="http://www.w3.org/2000/svg"
   xmlns="http://www.w3.org/2000/svg"
   xmlns:xlink="http://www.w3.org/1999/xlink"
   xmlns:sodipodi="http://sodipodi.sourceforge.net/DTD/sodipodi-0.dtd"
   xmlns:inkscape="http://www.inkscape.org/namespaces/inkscape"
   width="1024"
   height="1024"
   id="svg2"
   version="1.1"
   inkscape:version="0.48.4 r9939"
   sodipodi:docname="icon_trumpet.svg"
   inkscape:export-filename="/home/ben/Dropbox/Red Jackets/RedJacketsFakebook/images/icon_256_2.png"
   inkscape:export-xdpi="90"
   inkscape:export-ydpi="90">
  <defs
     id="defs4">
    <linearGradient
       id="linearGradient4052">
      <stop
         id="stop4054"
         offset="0"
         style="stop-color:#ff4d1f;stop-opacity:1;" />
      <stop
         id="stop4056"
         offset="1"
         style="stop-color:#831500;stop-opacity:1;" />
    </linearGradient>
    <linearGradient
       id="linearGradient3817">
      <stop
         style="stop-color:#a57400;stop-opacity:0;"
         offset="0"
         id="stop3819" />
      <stop
         style="stop-color:#000000;stop-opacity:0.30000001;"
         offset="1"
         id="stop3821" />
    </linearGradient>
    <linearGradient
       id="linearGradient3789">
      <stop
         style="stop-color:#fff71f;stop-opacity:1;"
         offset="0"
         id="stop3791" />
      <stop
         style="stop-color:#ff8d00;stop-opacity:1;"
         offset="1"
         id="stop3793" />
    </linearGradient>
    <radialGradient
       inkscape:collect="always"
       xlink:href="#linearGradient3789"
       id="radialGradient3811"
       cx="157.37109"
       cy="306.10629"
       fx="157.37109"
       fy="306.10629"
       r="54.949219"
       gradientTransform="matrix(1,0,0,1.0147153,0,-4.504443)"
       gradientUnits="userSpaceOnUse" />
    <radialGradient
       inkscape:collect="always"
       xlink:href="#linearGradient3789"
       id="radialGradient3813"
       cx="167.07422"
       cy="295.73517"
       fx="167.07422"
       fy="295.73517"
       r="65.144531"
       gradientTransform="matrix(1,0,0,0.84457636,0,45.964238)"
       gradientUnits="userSpaceOnUse"
       spreadMethod="reflect" />
    <radialGradient
       inkscape:collect="always"
       xlink:href="#linearGradient3789"
       id="radialGradient3829"
       gradientUnits="userSpaceOnUse"
       gradientTransform="matrix(1,0,0,1.0147153,0,-4.504443)"
       cx="157.37109"
       cy="306.10629"
       fx="157.37109"
       fy="306.10629"
       r="54.949219" />
    <radialGradient
       inkscape:collect="always"
       xlink:href="#linearGradient3789"
       id="radialGradient3835"
       gradientUnits="userSpaceOnUse"
       gradientTransform="matrix(1,0,0,0.84457636,0,45.964238)"
       spreadMethod="reflect"
       cx="167.07422"
       cy="295.73517"
       fx="167.07422"
       fy="295.73517"
       r="65.144531" />
    <radialGradient
       inkscape:collect="always"
       xlink:href="#linearGradient3789-3"
       id="radialGradient3813-4"
       cx="167.07422"
       cy="295.73517"
       fx="167.07422"
       fy="295.73517"
       r="65.144531"
       gradientTransform="matrix(1,0,0,0.84457636,0,45.964238)"
       gradientUnits="userSpaceOnUse"
       spreadMethod="reflect" />
    <linearGradient
       id="linearGradient3789-3">
      <stop
         style="stop-color:#fff71f;stop-opacity:1;"
         offset="0"
         id="stop3791-2" />
      <stop
         style="stop-color:#ff8d00;stop-opacity:1;"
         offset="1"
         id="stop3793-0" />
    </linearGradient>
    <linearGradient
       id="linearGradient3876">
      <stop
         style="stop-color:#fff71f;stop-opacity:1;"
         offset="0"
         id="stop3878" />
      <stop
         style="stop-color:#ff8d00;stop-opacity:1;"
         offset="1"
         id="stop3880" />
    </linearGradient>
    <linearGradient
       id="linearGradient3883">
      <stop
         style="stop-color:#fff71f;stop-opacity:1;"
         offset="0"
         id="stop3885" />
      <stop
         style="stop-color:#ff8d00;stop-opacity:1;"
         offset="1"
         id="stop3887" />
    </linearGradient>
    <radialGradient
       inkscape:collect="always"
       xlink:href="#linearGradient3789-3"
       id="radialGradient3835-8"
       gradientUnits="userSpaceOnUse"
       gradientTransform="matrix(1,0,0,0.84457636,0,45.964238)"
       spreadMethod="reflect"
       cx="167.07422"
       cy="295.73517"
       fx="167.07422"
       fy="295.73517"
       r="65.144531" />
    <linearGradient
       id="linearGradient3890">
      <stop
         style="stop-color:#fff71f;stop-opacity:1;"
         offset="0"
         id="stop3892" />
      <stop
         style="stop-color:#ff8d00;stop-opacity:1;"
         offset="1"
         id="stop3894" />
    </linearGradient>
    <radialGradient
       r="65.144531"
       fy="295.73517"
       fx="167.07422"
       cy="295.73517"
       cx="167.07422"
       spreadMethod="reflect"
       gradientTransform="matrix(1,0,0,0.84457636,0,45.964238)"
       gradientUnits="userSpaceOnUse"
       id="radialGradient3900"
       xlink:href="#linearGradient3789-3"
       inkscape:collect="always" />
    <radialGradient
       inkscape:collect="always"
       xlink:href="#linearGradient4052"
       id="radialGradient4050"
       cx="-1510"
       cy="339.71429"
       fx="-1510"
       fy="339.71429"
       r="404.28571"
       gradientUnits="userSpaceOnUse" />
    <radialGradient
       inkscape:collect="always"
       xlink:href="#linearGradient4052"
       id="radialGradient4070"
       gradientUnits="userSpaceOnUse"
       cx="-1510"
       cy="339.71429"
       fx="-1510"
       fy="339.71429"
       r="404.28571" />
    <radialGradient
       inkscape:collect="always"
       xlink:href="#linearGradient3789-3"
       id="radialGradient4072"
       gradientUnits="userSpaceOnUse"
       gradientTransform="matrix(1,0,0,0.84457636,0,45.964238)"
       spreadMethod="reflect"
       cx="167.07422"
       cy="295.73517"
       fx="167.07422"
       fy="295.73517"
       r="65.144531" />
    <radialGradient
       inkscape:collect="always"
       xlink:href="#linearGradient3789-3"
       id="radialGradient4074"
       gradientUnits="userSpaceOnUse"
       gradientTransform="matrix(1,0,0,0.84457636,0,45.964238)"
       spreadMethod="reflect"
       cx="167.07422"
       cy="295.73517"
       fx="167.07422"
       fy="295.73517"
       r="65.144531" />
  </defs>
  <sodipodi:namedview
     id="base"
     pagecolor="#000000"
     bordercolor="#666666"
     borderopacity="1.0"
     inkscape:pageopacity="0"
     inkscape:pageshadow="2"
     inkscape:zoom="0.7"
     inkscape:cx="283.61719"
     inkscape:cy="522.95472"
     inkscape:document-units="px"
     inkscape:current-layer="g4058"
     showgrid="false"
     inkscape:window-width="1920"
     inkscape:window-height="1022"
     inkscape:window-x="0"
     inkscape:window-y="0"
     inkscape:window-maximized="1"
     showguides="true"
     inkscape:guide-bbox="true" />
  <metadata
     id="metadata7">
    <rdf:RDF>
      <cc:Work
         rdf:about="">
        <dc:format>image/svg+xml</dc:format>
        <dc:type
           rdf:resource="http://purl.org/dc/dcmitype/StillImage" />
        <dc:title></dc:title>
      </cc:Work>
    </rdf:RDF>
  </metadata>
  <g
     inkscape:label="Layer 1"
     inkscape:groupmode="layer"
     id="layer1"
     transform="translate(0,-28.3622)">
    <g
       id="g4058"
       transform="matrix(1.097066,0,0,1.097066,-48.090434,-36.549637)">
      <path
         inkscape:connector-curvature="0"
         id="path3997"
         d="M 759.24132,814.22978 C 721.67135,795.14726 704.98356,745.96624 716.60938,688.58989 l 5.51491,-27.21627 -8.85949,-10.59705 C 695.93491,630.04791 643.26211,587.86246 602.40644,561.99063 l -41.47236,-26.26236 -2.60379,12.41215 c -1.43197,6.82664 -7.04664,26.2905 -12.47726,43.25295 -7.55793,23.60657 -9.06344,32.35488 -6.41958,37.29517 4.74386,8.86394 -3.31608,23.78794 -17.62111,32.62916 -6.09504,3.76686 -13.82749,9.88301 -17.18376,13.59139 -6.9774,7.70999 -21.66251,9.12999 -21.66251,2.09491 0,-2.55633 -19.78229,-16.94982 -43.96078,-31.98556 -24.17838,-15.03559 -60.59039,-39.07171 -80.91584,-53.41345 -20.32545,-14.3416 -38.24152,-26.06852 -39.81345,-26.05964 -1.57206,0.0135 -8.08388,12.69209 -14.47053,28.18508 -9.13497,22.15981 -13.02807,28.15698 -18.24788,28.11233 -9.20959,-0.0793 -33.55749,-11.53036 -36.98407,-17.39456 -1.55606,-2.66307 -7.68162,-7.32224 -13.61224,-10.35343 -5.93048,-3.03132 -10.78286,-6.92779 -10.78286,-8.65876 0,-1.73111 -4.85223,-5.61521 -10.78271,-8.63135 -5.93062,-3.01598 -11.26954,-5.90493 -11.86446,-6.41985 -0.59451,-0.51479 3.65192,-11.72047 9.43706,-24.90152 10.62824,-24.21537 10.17665,-29.51368 -2.52849,-29.67012 -2.2697,-0.0267 -8.71577,-6.39608 -14.32519,-14.1514 -5.60944,-7.75534 -14.2034,-16.19471 -19.09812,-18.75413 -4.89472,-2.55948 -13.37843,-8.05027 -18.85275,-12.20182 -9.87804,-7.49103 -9.94943,-7.77971 -9.40721,-38.10544 0.30196,-16.80649 1.48103,-35.54147 2.62369,-41.63335 2.29026,-12.20767 21.8971,-48.8011 31.89789,-59.53288 6.35492,-6.81945 6.32131,-6.84745 -32.66397,-27.21176 -28.1684,-14.7139 -40.39277,-19.52088 -43.93915,-17.27828 -21.389177,13.52486 -56.795533,-11.86934 -51.318264,-36.80663 6.889741,-31.36937 58.866924,-29.18852 66.251694,2.77975 1.81217,7.84526 8.43115,11.98152 50.29528,31.42931 26.51474,12.31731 52.76678,22.39509 58.33736,22.39509 5.57097,0 22.78094,6.06714 38.24421,13.48251 26.09003,12.51132 37.32018,14.55511 37.32018,6.79197 0,-1.73706 4.10567,-4.10566 9.12381,-5.26357 7.16576,-1.65338 11.03762,-6.32796 18.04083,-21.7802 7.57985,-16.72422 8.18176,-20.08657 4.01263,-22.41957 -5.10149,-2.85499 -3.15325,-13.94242 2.45013,-13.94242 1.68149,0 11.93047,4.47902 22.77503,9.95338 10.84443,5.47434 22.6223,9.95336 26.17271,9.95336 10.12583,0 36.87087,12.56852 36.8144,17.30048 -0.0901,7.52313 -5.76431,13.58444 -10.87992,11.62135 -6.71954,-2.57859 -23.63897,34.45815 -20.40115,44.659 1.93963,6.11086 2.68177,6.37719 5.2053,1.86781 3.76498,-6.72807 23.5981,-19.0462 30.6653,-19.0462 8.13752,0 18.68577,12.17393 18.68577,21.56563 0,11.75439 -5.92779,10.29358 -9.18161,-2.26267 -3.90374,-15.06499 -9.08846,-15.08469 -24.08157,-0.0915 -19.45614,19.45593 -17.924,24.12596 12.527,38.18913 14.14209,6.53121 78.69104,37.4314 143.44206,68.66713 88.81391,42.84355 128.1927,60.00488 160.33112,69.8726 23.43086,7.19424 47.11326,13.08043 52.62777,13.08043 6.98695,0 14.63643,-4.0581 25.2355,-13.38791 31.62847,-27.84046 77.84659,-41.83742 109.69703,-33.2214 19.02188,5.14559 40.96808,25.77183 50.55579,47.51491 14.99811,34.01261 8.56823,98.33073 -14.33345,143.37811 -17.92242,35.25351 -51.34654,75.06212 -82.14253,97.83312 -36.95987,27.3288 -84.38759,37.14984 -111.9061,23.17273 z M 482.96607,622.12752 c 0,-3.91462 -6.47108,-8.10216 -8.84751,-5.72558 -2.37658,2.37671 1.8111,8.84752 5.72545,8.84752 1.71726,0 3.12206,-1.40495 3.12206,-3.12194 z m -33.03691,-23.2394 c -20.82948,-14.36311 -118.09174,-72.4501 -119.29609,-71.24584 -1.81286,1.81267 -7.21551,-2.01216 62.64145,44.34565 39.96511,26.52119 61.76596,39.16274 62.70102,36.35795 0.78865,-2.36501 -1.93237,-6.62098 -6.04638,-9.45776 z m 62.75668,-32.88714 c 9.18727,-30.85018 9.12892,-55.38138 -0.14265,-60.34406 -3.80584,-2.03683 -7.22316,-3.20909 -7.59409,-2.60506 -0.37066,0.60402 -6.03737,17.27785 -12.59274,37.05292 l -11.91878,35.95466 10.38866,6.33476 c 5.71389,3.48413 11.44499,6.3404 12.73661,6.34712 1.29134,0 5.39713,-10.22639 9.12393,-22.74034 z m -29.91053,-36.45004 c 5.57917,-15.1318 10.1441,-29.59443 10.1441,-32.13912 0,-2.54469 -8.5898,-10.45988 -19.08829,-17.5893 -19.05174,-12.93785 -92.762,-53.64046 -97.13979,-53.64046 -1.27077,0 -9.10512,15.63315 -17.40949,34.74033 l -15.09892,34.74038 18.06665,9.78522 18.06639,9.78526 -2.05338,-10.94466 c -3.57623,-19.06305 14.06707,-44.6887 30.88271,-44.85485 18.72516,-0.18512 26.69785,24.945 14.34241,45.20794 l -6.36877,10.44492 16.29292,10.12835 c 9.99259,6.21167 15.63442,11.84469 14.59006,14.56673 -1.0242,2.66899 3.26565,7.27814 10.7612,11.56179 6.85559,3.91789 12.78016,6.80756 13.16629,6.42161 0.38585,-0.38595 5.26672,-13.08234 10.84591,-28.21414 z m -71.05944,-25.2418 c 9.05551,-15.45247 10.3123,-34.90975 2.42202,-37.49982 -5.72062,-1.8778 -23.25944,16.36742 -25.91862,26.9623 -1.20367,4.79578 -1.25181,12.45211 -0.10621,17.01408 3.34135,13.31239 13.66629,10.47919 23.60308,-6.47656 z M 192.65953,449.40659 c -5.47445,-3.62553 -11.44647,-6.55204 -13.27129,-6.50333 -5.61924,0.14995 11.99514,13.14033 17.78607,13.11703 3.53979,-0.0135 1.96342,-2.32322 -4.51478,-6.6137 z m 64.16431,-11.76837 c 5.36917,-11.78429 4.91798,-12.24059 -3.82871,-3.8726 -4.22358,4.04058 -7.12126,8.46625 -6.43989,9.83482 2.38195,4.7827 6.4489,2.42143 10.2686,-5.96222 z m -26.00977,-11.40855 c 0,-10.78408 7.77385,-36.5433 11.02835,-36.5433 1.65918,0 2.01815,3.35927 0.79793,7.46503 -11.38477,38.30387 1.58617,48.24722 18.68349,14.32256 3.7401,-7.42123 9.60296,-16.16404 13.02861,-19.42851 12.31793,-11.73846 8.13644,-17.43289 -25.99659,-35.40228 l -32.22541,-16.96484 -8.41758,6.21743 c -8.72168,6.44191 -28.05453,41.97784 -31.44656,57.80283 -1.50726,7.03153 -0.86206,8.62309 2.90898,7.17602 2.66522,-1.02271 14.25461,3.47305 25.75404,9.99058 24.36377,13.80881 25.88474,14.124 25.88474,5.36448 z M 380.91383,324.16002 c 5.76699,-13.28978 7.15312,-19.79581 4.56923,-21.44569 -2.26902,-1.44863 -6.44312,3.06105 -10.74789,11.61225 -10.671,21.19634 -12.50643,28.91075 -6.87819,28.91075 2.64534,0 8.47363,-8.51542 13.05685,-19.07731 z m -24.19571,-11.11901 c 6.82145,-15.85675 6.75812,-22.88832 -0.2057,-22.88832 -4.20152,0 -20.25931,35.9466 -17.82049,39.8927 3.70893,6.00166 11.14909,-1.01631 18.02687,-17.00438 z"
         style="fill:#ffbd00;fill-opacity:1" />
    </g>
  </g>
</svg>
