<?xml version="1.0" encoding="UTF-8" standalone="no"?>
<!-- Created with Inkscape (http://www.inkscape.org/) -->
<svg id="svg2" xmlns:rdf="http://www.w3.org/1999/02/22-rdf-syntax-ns#" xmlns="http://www.w3.org/2000/svg" height="40" width="40" version="1.1" xmlns:cc="http://creativecommons.org/ns#" xmlns:xlink="http://www.w3.org/1999/xlink" xmlns:dc="http://purl.org/dc/elements/1.1/">
 <defs id="defs4"></defs>
 <metadata id="metadata7">
  <rdf:RDF>
   <cc:Work rdf:about="">
    <dc:format>image/svg+xml</dc:format>
    <dc:type rdf:resource="http://purl.org/dc/dcmitype/StillImage"/>
    <dc:title/>
   </cc:Work>
  </rdf:RDF>
 </metadata>
 <g id="layer1" transform="translate(0,-1012.3622)">
  <g id="g9040" transform="translate(-10.379864,0)">
   <g id="g3055" transform="translate(0.40024835,3.0322193e-5)">
    <path id="path3962" d="m23.512,1051c-1.5556-0.2813-2.6285-1.3391-2.8828-2.8423-0.14878-0.8795,0.20347-1.8772,0.83476-2.3642,1.2065-0.9308,2.7775-0.3617,3.157,1.1436,0.09269,0.3677,0.06207,1.003-0.06427,1.3329-0.24914,0.6505-0.79536,1.0073-1.6944,1.1067-0.2157,0.024-0.40977,0.061-0.43127,0.082-0.06167,0.06,0.0996,0.247,0.37337,0.4325,0.82032,0.5556,2.2867,0.622,3.2296,0.1459,0.70323-0.355,1.1882-0.9387,1.4432-1.7371,0.16015-0.5015,0.191-0.7447,0.18848-1.4861-0.0023-0.6481-0.02855-0.9131-0.25624-2.5774-0.16294-1.1909-0.27221-1.8665-0.3052-1.8869-0.02827-0.018-0.08868-0.023-0.13427-0.013-0.24364,0.055-0.84208,0.1019-1.2851,0.1019-2.5509,0-5.2623-1.7936-6.4292-4.2531-0.28217-0.5946-0.48879-1.2107-0.63286-1.887-0.10353-0.486-0.11233-0.6014-0.11382-1.4966-0.0017-0.8562,0.0097-1.0258,0.09448-1.4448,0.2624-1.2963,0.91696-2.6642,1.8568-3.8803,0.85826-1.1106,1.8935-2.1272,3.7541-3.6864,0.53043-0.4445,0.62951-0.5454,0.62951-0.6407,0-0.062-0.05455-0.5212-0.1213-1.0199-0.19325-1.4449-0.22575-1.8734-0.22682-2.9915-0.0017-1.313,0.10558-2.1458,0.40979-3.1946,0.25882-0.8923,0.8262-2.1519,1.2635-2.8051,0.40412-0.6036,1.0566-1.1819,1.5067-1.3352,0.41226-0.1404,0.62519-0.018,1.0357,0.5971,0.54328,0.8136,0.94021,2.0753,1.1327,3.6006,0.11388,0.9024,0.04255,2.7022-0.15297,3.8597-0.24637,1.4585-0.77263,2.6322-1.7121,3.8185-0.26934,0.3401-1.2786,1.3547-1.885,1.8952-0.16343,0.1456-0.3065,0.2891-0.31795,0.3189-0.03549,0.092,0.49843,3.9021,0.55145,3.9349,0.02673,0.017,0.186,0.021,0.35398,0.01,0.38675-0.025,1.0138,0.053,1.4555,0.1813,1.2814,0.3713,2.3291,1.302,2.8686,2.5482,0.55314,1.2777,0.63323,3.0043,0.19894,4.289-0.4904,1.4508-1.6001,2.5938-3.0583,3.1502-0.21569,0.082-0.40728,0.164-0.4258,0.1816-0.01849,0.018,0.09694,0.9958,0.25654,2.1738,0.33973,2.5076,0.36018,2.7377,0.29607,3.3308-0.17154,1.587-0.99192,2.6423-2.428,3.1234-0.70569,0.2364-1.6359,0.3097-2.3329,0.1837zm3.1273-9.1784c0.41247-0.086,0.39222-0.074,0.39158-0.241-0.0017-0.2895-0.94207-7.2019-0.98645-7.2463-0.0675-0.068-0.41715,0.032-0.86777,0.2483-0.32384,0.1551-0.44573,0.243-0.72423,0.5225-0.3836,0.3848-0.59215,0.7062-0.77359,1.1921-0.10899,0.2918-0.13008,0.4125-0.14642,0.8377-0.02201,0.5715,0.03214,0.8533,0.25349,1.3195,0.24589,0.518,0.65334,0.929,1.1919,1.2022,0.34761,0.1764,0.21926,0.3067-0.19769,0.2007-0.77294-0.1964-1.4961-0.8223-1.9073-1.6505-0.67524-1.3603-0.54279-3.0091,0.3495-4.3501,0.54918-0.8254,1.3554-1.4687,2.2341-1.7828,0.14408-0.052,0.27048-0.1159,0.28091-0.143,0.01581-0.042-0.35076-2.9323-0.42514-3.3526-0.01723-0.098-0.04579-0.1341-0.1044-0.1341-0.10372,0-2.0659,1.7503-2.7827,2.4823-0.29715,0.3034-0.68592,0.7282-0.86394,0.9439-1.7288,2.0945-2.2564,4.4837-1.4382,6.5133,0.28479,0.7064,0.85065,1.526,1.3882,2.0107,0.75034,0.6766,1.8616,1.2458,2.8214,1.4453,0.32814,0.068,1.9538,0.055,2.3066-0.018zm1.4146-0.4345c1.0404-0.4986,1.6847-1.3306,1.9359-2.4999,0.11147-0.5188,0.10094-1.5505-0.02042-2.0014-0.31416-1.1672-1.1661-2.0744-2.3049-2.4542-0.4523-0.1509-0.97869-0.2115-1.015-0.1169-0.02019,0.052,0.87845,6.8662,0.93933,7.1222,0.03015,0.1268,0.11569,0.1176,0.46506-0.05zm-2.137-17.043c1.1175-0.9923,2.0849-2.1964,2.5594-3.1858,0.48238-1.0059,0.70193-1.7815,0.73215-2.5865,0.01883-0.5008,0.01103-0.5976-0.07022-0.8669-0.07703-0.2554-0.12507-0.3358-0.30574-0.5118-0.24893-0.2426-0.48317-0.3274-0.82514-0.2991-0.96776,0.08-2.0294,1.5838-2.6074,3.6928-0.19711,0.7191-0.26737,1.2525-0.26737,2.0294,0,0.5688,0.11641,1.858,0.1861,2.0612,0.03936,0.1147,0.18521,0.034,0.59822-0.3333z" fill="#fdbd00"/>
    <g id="g9031" transform="matrix(0.04625234,0,0,0.04625234,9.6521218,1008.0954)">
     <g id="g9117" font-size="358.99609375px" font-family="Sans" transform="translate(108.07792,108.18216)" font-weight="normal" font-style="normal" fill="#ffbd00">
      <text id="text9092" style="letter-spacing:0px;word-spacing:0px;" xml:space="preserve" y="476.99683" x="425.77512" line-height="125%"><tspan id="tspan9094" font-weight="bold" font-style="normal" font-stretch="condensed" font-variant="normal" y="476.99683" x="425.77512" font-family="TeX Gyre Heros Cn" fill="#ffbd00">^</tspan></text>
      <text id="text9092-5" style="letter-spacing:0px;word-spacing:0px;" xml:space="preserve" transform="scale(1,-1)" y="-355.96021" x="425.77512" line-height="125%"><tspan id="tspan9094-8" font-weight="bold" font-style="normal" font-stretch="condensed" font-variant="normal" y="-355.96021" x="425.77512" font-family="TeX Gyre Heros Cn" fill="#ffbd00">^</tspan></text>
     </g>
    </g>
   </g>
  </g>
 </g>
</svg>
