<?xml version="1.0" encoding="UTF-8" standalone="no"?>
<!-- Created with Inkscape (http://www.inkscape.org/) -->

<svg
   xmlns:dc="http://purl.org/dc/elements/1.1/"
   xmlns:cc="http://creativecommons.org/ns#"
   xmlns:rdf="http://www.w3.org/1999/02/22-rdf-syntax-ns#"
   xmlns:svg="http://www.w3.org/2000/svg"
   xmlns="http://www.w3.org/2000/svg"
   xmlns:xlink="http://www.w3.org/1999/xlink"
   xmlns:sodipodi="http://sodipodi.sourceforge.net/DTD/sodipodi-0.dtd"
   xmlns:inkscape="http://www.inkscape.org/namespaces/inkscape"
   width="1024"
   height="1024"
   id="svg2"
   version="1.1"
   inkscape:version="0.48.4 r9939"
   sodipodi:docname="icon_clarinet.svg"
   inkscape:export-filename="/home/ben/Dropbox/Red Jackets/RedJacketsFakebook/images/icon_sous_64.png"
   inkscape:export-xdpi="5.625"
   inkscape:export-ydpi="5.625">
  <defs
     id="defs4">
    <linearGradient
       id="linearGradient4052">
      <stop
         id="stop4054"
         offset="0"
         style="stop-color:#ff4d1f;stop-opacity:1;" />
      <stop
         id="stop4056"
         offset="1"
         style="stop-color:#831500;stop-opacity:1;" />
    </linearGradient>
    <linearGradient
       id="linearGradient3817">
      <stop
         style="stop-color:#a57400;stop-opacity:0;"
         offset="0"
         id="stop3819" />
      <stop
         style="stop-color:#000000;stop-opacity:0.30000001;"
         offset="1"
         id="stop3821" />
    </linearGradient>
    <linearGradient
       id="linearGradient3789">
      <stop
         style="stop-color:#fff71f;stop-opacity:1;"
         offset="0"
         id="stop3791" />
      <stop
         style="stop-color:#ff8d00;stop-opacity:1;"
         offset="1"
         id="stop3793" />
    </linearGradient>
    <radialGradient
       inkscape:collect="always"
       xlink:href="#linearGradient3789"
       id="radialGradient3811"
       cx="157.37109"
       cy="306.10629"
       fx="157.37109"
       fy="306.10629"
       r="54.949219"
       gradientTransform="matrix(1,0,0,1.0147153,0,-4.504443)"
       gradientUnits="userSpaceOnUse" />
    <radialGradient
       inkscape:collect="always"
       xlink:href="#linearGradient3789"
       id="radialGradient3813"
       cx="167.07422"
       cy="295.73517"
       fx="167.07422"
       fy="295.73517"
       r="65.144531"
       gradientTransform="matrix(1,0,0,0.84457636,0,45.964238)"
       gradientUnits="userSpaceOnUse"
       spreadMethod="reflect" />
    <radialGradient
       inkscape:collect="always"
       xlink:href="#linearGradient3789"
       id="radialGradient3829"
       gradientUnits="userSpaceOnUse"
       gradientTransform="matrix(1,0,0,1.0147153,0,-4.504443)"
       cx="157.37109"
       cy="306.10629"
       fx="157.37109"
       fy="306.10629"
       r="54.949219" />
    <radialGradient
       inkscape:collect="always"
       xlink:href="#linearGradient3789"
       id="radialGradient3835"
       gradientUnits="userSpaceOnUse"
       gradientTransform="matrix(1,0,0,0.84457636,0,45.964238)"
       spreadMethod="reflect"
       cx="167.07422"
       cy="295.73517"
       fx="167.07422"
       fy="295.73517"
       r="65.144531" />
    <radialGradient
       inkscape:collect="always"
       xlink:href="#linearGradient3789-3"
       id="radialGradient3813-4"
       cx="167.07422"
       cy="295.73517"
       fx="167.07422"
       fy="295.73517"
       r="65.144531"
       gradientTransform="matrix(1,0,0,0.84457636,0,45.964238)"
       gradientUnits="userSpaceOnUse"
       spreadMethod="reflect" />
    <linearGradient
       id="linearGradient3789-3">
      <stop
         style="stop-color:#fff71f;stop-opacity:1;"
         offset="0"
         id="stop3791-2" />
      <stop
         style="stop-color:#ff8d00;stop-opacity:1;"
         offset="1"
         id="stop3793-0" />
    </linearGradient>
    <linearGradient
       id="linearGradient3876">
      <stop
         style="stop-color:#fff71f;stop-opacity:1;"
         offset="0"
         id="stop3878" />
      <stop
         style="stop-color:#ff8d00;stop-opacity:1;"
         offset="1"
         id="stop3880" />
    </linearGradient>
    <linearGradient
       id="linearGradient3883">
      <stop
         style="stop-color:#fff71f;stop-opacity:1;"
         offset="0"
         id="stop3885" />
      <stop
         style="stop-color:#ff8d00;stop-opacity:1;"
         offset="1"
         id="stop3887" />
    </linearGradient>
    <radialGradient
       inkscape:collect="always"
       xlink:href="#linearGradient3789-3"
       id="radialGradient3835-8"
       gradientUnits="userSpaceOnUse"
       gradientTransform="matrix(1,0,0,0.84457636,0,45.964238)"
       spreadMethod="reflect"
       cx="167.07422"
       cy="295.73517"
       fx="167.07422"
       fy="295.73517"
       r="65.144531" />
    <linearGradient
       id="linearGradient3890">
      <stop
         style="stop-color:#fff71f;stop-opacity:1;"
         offset="0"
         id="stop3892" />
      <stop
         style="stop-color:#ff8d00;stop-opacity:1;"
         offset="1"
         id="stop3894" />
    </linearGradient>
    <radialGradient
       r="65.144531"
       fy="295.73517"
       fx="167.07422"
       cy="295.73517"
       cx="167.07422"
       spreadMethod="reflect"
       gradientTransform="matrix(1,0,0,0.84457636,0,45.964238)"
       gradientUnits="userSpaceOnUse"
       id="radialGradient3900"
       xlink:href="#linearGradient3789-3"
       inkscape:collect="always" />
    <radialGradient
       inkscape:collect="always"
       xlink:href="#linearGradient4052"
       id="radialGradient4070"
       gradientUnits="userSpaceOnUse"
       cx="-1510"
       cy="339.71429"
       fx="-1510"
       fy="339.71429"
       r="404.28571" />
    <radialGradient
       inkscape:collect="always"
       xlink:href="#linearGradient3789-3"
       id="radialGradient4072"
       gradientUnits="userSpaceOnUse"
       gradientTransform="matrix(1,0,0,0.84457636,0,45.964238)"
       spreadMethod="reflect"
       cx="167.07422"
       cy="295.73517"
       fx="167.07422"
       fy="295.73517"
       r="65.144531" />
    <radialGradient
       inkscape:collect="always"
       xlink:href="#linearGradient3789-3"
       id="radialGradient4074"
       gradientUnits="userSpaceOnUse"
       gradientTransform="matrix(1,0,0,0.84457636,0,45.964238)"
       spreadMethod="reflect"
       cx="167.07422"
       cy="295.73517"
       fx="167.07422"
       fy="295.73517"
       r="65.144531" />
  </defs>
  <sodipodi:namedview
     id="base"
     pagecolor="#c40000"
     bordercolor="#666666"
     borderopacity="1.0"
     inkscape:pageopacity="0"
     inkscape:pageshadow="2"
     inkscape:zoom="0.49497475"
     inkscape:cx="759.32246"
     inkscape:cy="398.94283"
     inkscape:document-units="px"
     inkscape:current-layer="layer1"
     showgrid="false"
     inkscape:window-width="1920"
     inkscape:window-height="1022"
     inkscape:window-x="0"
     inkscape:window-y="0"
     inkscape:window-maximized="1"
     showguides="true"
     inkscape:guide-bbox="true" />
  <metadata
     id="metadata7">
    <rdf:RDF>
      <cc:Work
         rdf:about="">
        <dc:format>image/svg+xml</dc:format>
        <dc:type
           rdf:resource="http://purl.org/dc/dcmitype/StillImage" />
        <dc:title></dc:title>
      </cc:Work>
    </rdf:RDF>
  </metadata>
  <g
     inkscape:label="Layer 1"
     inkscape:groupmode="layer"
     id="layer1"
     transform="translate(0,-28.3622)">
    <path
       style="fill:#ffbd00;fill-opacity:1"
       d="m 111.71816,1030.0441 c -11.45493,-2.9656 -23.741772,-8.8551 -31.146652,-14.9297 -1.90341,-1.5615 -4.672,-3.7391 -6.15243,-4.839 -11.883229,-10.65607 -22.945956,-22.07134 -33.28152,-34.17724 -1.67145,-1.9488 -9.0164,-12.5335 -9.0164,-12.9935 0,-0.1819 -0.97356,-1.8189 -2.16346,-3.6378 -3.73771,-5.7134 -8.6246,-17.3254 -10.06466,-23.9152 -2.41028,-11.0296 -0.50505,-17.586 6.08011,-20.9229 3.43449,-1.7404 4.17939,-1.8519 7.48058,-1.1202 2.01645,0.4469 5.0183,1.7018 6.67077,2.7886 5.26945,3.4656 10.7949,2.6505 22.75878,-3.3568 5.19206,-2.6071 9.77367,-5.1552 13.07391,-7.2712 1.05745,-0.6779 5.55641,-3.5407 9.99769,-6.3615 14.411672,-9.1534 28.652282,-19.9763 46.624102,-35.4342 4.42591,-3.8068 11.05985,-9.482 14.7421,-12.6115 3.68225,-3.1296 9.46359,-8.356 12.84743,-11.6143 7.4358,-7.1599 19.25686,-17.8465 23.81877,-21.5328 9.59159,-7.7507 12.5112,-10.3539 24.85762,-22.1639 23.3085,-22.2958 29.07925,-28.0189 137.13043,-135.9969 l 105.82528,-105.75364 -5.18435,-5.22567 c -6.48774,-6.53942 -9.67502,-12.416 -8.40156,-15.49041 1.49741,-3.6151 3.32955,-4.75015 6.73789,-4.17431 4.5432,0.76757 7.88954,4.91802 10.47621,12.9936 0.37532,1.17174 0.66714,1.25958 1.60331,0.48263 0.62946,-0.52241 1.14448,-1.37171 1.14448,-1.88735 0,-0.51563 2.21953,-3.06881 4.93229,-5.67373 4.30395,-4.13287 5.31055,-4.73622 7.90167,-4.73622 2.79639,0 3.57757,-0.61607 13.4082,-10.57448 27.36695,-27.72263 29.08353,-29.6036 28.31936,-31.03148 -0.40029,-0.74795 -0.7278,-1.6097 -0.7278,-1.91502 0,-0.30531 2.50821,-2.95148 5.57381,-5.88036 4.91548,-4.69628 5.86779,-5.29092 8.06291,-5.03465 2.87541,0.33568 3.30282,-0.35734 2.35575,-3.81969 -0.5113,-1.86923 -0.35473,-3.19248 0.62101,-5.2487 1.83474,-3.86643 4.4435,-5.35973 9.01321,-5.15932 4.83101,0.21188 6.61057,-1.60627 6.64796,-6.79205 0.0438,-6.07827 4.87452,-9.84261 9.11904,-7.10604 1.69678,1.09396 1.96989,0.98382 5.38338,-2.17118 5.46766,-5.05361 12.0047,-13.00212 13.16947,-16.01299 1.18592,-3.06555 9.54636,-12.09303 12.15219,-13.12177 0.9685,-0.38234 1.73037,-1.34273 1.73037,-2.18125 0,-2.14645 3.68347,-6.22662 5.644,-6.25186 2.42239,-0.0311 6.67309,-3.46494 16.85081,-13.61224 7.41788,-7.39571 9.03637,-9.41179 9.03637,-11.25616 0,-3.01502 6.54254,-9.71759 9.48557,-9.71759 2.38688,0 5.075,-3.40727 3.91993,-4.96864 -3.29891,-4.45938 -3.52897,-5.03383 -2.99307,-7.47377 0.33679,-1.5334 2.2953,-4.32407 5.04238,-7.18488 2.47044,-2.5727 5.02646,-5.95747 5.68004,-7.52171 0.80786,-1.93348 1.68014,-2.84408 2.72439,-2.84408 0.84484,0 3.24398,-1.12474 5.33145,-2.49942 3.34502,-2.20284 3.80031,-2.82455 3.83699,-5.23949 0.0297,-1.95663 0.64629,-3.31249 2.1565,-4.74213 3.26718,-3.09287 9.51157,-6.12021 11.56231,-5.60552 2.01946,0.50686 7.45029,-4.01246 21.90141,-18.2255 7.55562,-7.43114 8.3632,-8.48995 8.21205,-10.76675 -0.2906,-4.37751 1.18459,-7.3545 4.65034,-9.38453 2.00954,-1.17708 2.94275,-1.31647 4.60726,-0.68818 2.01865,0.76195 2.9229,-0.0433 27.48962,-24.4795 l 25.40231,-25.26736 3.82902,0 3.82901,0 12.80019,-13.07502 c 7.04014,-7.19125 12.8002,-13.45747 12.8002,-13.92492 0,-1.13351 9.81688,-11.26853 16.53464,-17.07051 5.96259,-5.14974 22.00619,-20.20612 40.31439,-37.83371 6.5897,-6.34468 14.9228,-14.35403 18.5182,-17.79853 3.5953,-3.44451 7.4021,-7.57488 8.4596,-9.1786 1.0574,-1.60372 4.9271,-6.04336 8.5994,-9.86588 l 6.6768,-6.95002 3.8553,1.38632 c 4.5812,1.64741 6.1745,1.0677 7.4362,-2.70583 0.4877,-1.45852 1.9952,-3.33131 3.488,-4.33308 3.6832,-2.47178 8.462,-6.953633 10.9864,-10.303813 1.5459,-2.05157 2.8173,-2.90519 4.5816,-3.07621 2.222,-0.21538 2.4318,-0.46206 2.3286,-2.73741 -0.105,-2.31158 0.7093,-3.20219 10.7667,-11.7762 5.9842,-5.10152 12.2646,-10.58503 13.9565,-12.18558 1.6919,-1.60055 5.1526,-4.59152 7.6905,-6.6466 2.5379,-2.05507 5.3007,-4.37209 6.1397,-5.14893 0.8388,-0.77683 3.0131,-2.28439 4.8317,-3.35013 l 3.3065,-1.9377 2.6267,1.62346 c 1.4448,0.8929 2.8405,2.2968 3.1018,3.11977 0.2612,0.82297 -0.2174,4.35304 -1.0635,7.84461 -3.6344,14.99705 -9.405,40.260983 -10.9703,48.028673 -0.9804,4.8651 0.2353,20.45772 1.7359,22.2659 0.5473,0.65943 1.7942,1.50276 2.7708,1.87409 2.0413,0.77609 3.5616,4.11546 2.9618,6.50544 -0.2255,0.89812 -1.7155,3.2463 -3.3112,5.21816 -2.8809,3.56001 -2.9337,3.58494 -7.5156,3.54478 -9.5665,-0.0838 -11.7748,-2.23766 -9.2019,-8.9748 1.2738,-3.33546 1.2666,-3.48572 -0.2396,-4.99198 l -1.553,-1.553 -1.2451,1.90029 c -0.8476,1.29354 -1.3613,4.29623 -1.6089,9.4042 l -0.3639,7.5039 2.2996,2.14817 c 1.2648,1.18149 2.2997,2.70147 2.2997,3.37772 0,0.67625 0.346,1.22955 0.769,1.22955 0.8836,0 1.0279,4.61238 0.1805,5.77228 -0.3108,0.42538 -1.9493,1.80968 -3.6412,3.07621 -2.7657,2.07029 -3.6301,2.29821 -8.5627,2.25743 -8.7263,-0.0721 -12.174,-3.72085 -7.5874,-8.0297 1.0574,-0.99343 1.9226,-2.40974 1.9226,-3.14738 0,-2.1467 -0.8504,-3.7741 -1.9722,-3.7741 -0.9932,0 -10.8127,9.73464 -16.4851,16.34258 -5.4577,6.3579 -24.5522,27.56744 -35.53,39.46583 -19.8683,21.53419 -88.65045,90.2371 -121.18854,121.04889 -6.01568,5.69653 -11.1339,10.97579 -11.37382,11.73172 -0.2749,0.86613 0.43658,2.43325 1.92393,4.23766 2.9298,3.55436 2.95078,4.8628 0.12944,8.07612 -2.16269,2.46317 -2.19821,2.63396 -1.16516,5.60239 1.63952,4.71111 1.40795,8.26031 -0.62165,9.52782 -2.05787,1.28517 -14.25859,1.94772 -15.58563,0.84637 -0.67486,-0.56009 -1.18175,0.10789 -1.89595,2.49852 -0.53615,1.79464 -1.62841,4.54696 -2.42724,6.11629 -0.79884,1.56932 -1.45243,3.66999 -1.45243,4.66815 0,3.01092 -4.8278,7.92164 -8.76174,8.91222 -2.3181,0.5837 -4.12736,1.7083 -5.59886,3.48015 -1.19573,1.43977 -3.66423,3.43142 -5.48557,4.42587 -1.82135,0.99446 -4.07083,2.23559 -4.99885,2.75808 -0.92802,0.52249 -2.91158,0.95508 -4.4079,0.96132 -2.23042,0.009 -3.35643,0.66951 -6.24955,3.66434 -2.88275,2.98408 -3.61443,4.32434 -3.99573,7.31925 -1.01821,7.9976 -5.23881,11.65932 -13.56646,11.77004 -5.24969,0.0698 -6.86915,0.75872 -12.52521,5.32814 -2.78836,2.25267 -3.6318,4.42851 -2.0868,5.38337 1.19742,0.74006 0.90487,6.40281 -0.48175,9.3249 -1.50907,3.18012 -7.63458,8.74785 -9.62422,8.74785 -1.07936,0 -1.42983,0.57156 -1.42983,2.33186 0,7.41201 -8.61801,16.25578 -17.03995,17.48635 -3.61565,0.5283 -3.96856,0.78781 -5.93521,4.36431 -1.15004,2.09144 -3.11303,4.40215 -4.36219,5.13491 -2.93056,1.71906 -7.88807,1.81976 -9.6816,0.19664 -1.28783,-1.16548 -1.62261,-1.04205 -5.0594,1.86532 -2.02417,1.71236 -6.23093,5.6982 -9.34835,8.85743 -5.26153,5.33211 -5.54481,5.78318 -3.94983,6.2894 1.46691,0.46558 1.65517,0.93377 1.28723,3.20113 -0.23703,1.46067 -1.48775,3.85939 -2.77938,5.33047 -1.51366,1.72397 -2.34841,3.50323 -2.34841,5.00565 0,3.14227 -1.13829,5.0598 -3.82987,6.45167 -2.9063,1.5029 -5.74523,1.47389 -8.12136,-0.083 -2.45623,-1.60939 -4.19546,-0.34061 -4.20707,3.06908 -0.006,1.72576 -0.75913,3.13486 -2.66631,4.98788 -2.28151,2.2167 -3.07034,2.53398 -5.56745,2.23936 -1.60013,-0.1888 -3.50881,-0.60697 -4.24151,-0.92929 -1.00393,-0.44163 -2.56724,0.59994 -6.34469,4.22723 -2.75688,2.64729 -5.0125,5.0198 -5.0125,5.27223 0,0.25244 1.27391,0.8577 2.83092,1.34504 2.73697,0.85665 2.96902,0.77356 6.99198,-2.50351 4.77071,-3.8862 7.93001,-4.3854 11.24607,-1.77699 2.24939,1.76938 3.13676,1.44604 6.12406,-2.23146 1.0558,-1.29975 2.08099,-1.70997 3.84398,-1.53811 3.4862,0.33983 3.43026,2.10775 -0.3041,9.6107 -3.69442,7.4227 -8.52938,12.77662 -16.1209,17.85123 -5.39586,3.6069 -21.18499,18.52067 -24.91103,23.52993 -1.2585,1.69192 -2.74498,3.53475 -3.3033,4.09519 -0.55833,0.56043 -2.04587,2.51709 -3.30567,4.34815 -4.41694,6.4198 -10.72983,11.23782 -19.23751,14.68213 -1.9034,0.77059 -4.32592,1.96969 -5.38337,2.66468 -1.05745,0.69498 -4.13251,2.44407 -6.83347,3.88684 -2.70096,1.44279 -6.61154,4.40529 -8.69017,6.58335 -3.77831,3.959 -5.10612,4.7151 -11.1597,6.3543 -3.9821,1.0783 -6.71481,4.1688 -5.5729,6.3024 1.48241,2.7699 -2.46679,6.3265 -6.50233,5.8559 -1.186,-0.1383 -1.6513,0.6597 -2.4831,4.2585 -1.3942,6.0321 -2.70406,8.3187 -6.86198,11.9786 -3.76494,3.314 -7.53917,4.9587 -13.80513,6.0157 -3.68829,0.6222 -3.85545,0.7585 -4.09484,3.3403 -0.13728,1.4804 -0.87269,3.3839 -1.63427,4.2298 -4.55543,5.0602 -4.04224,11.7803 1.30706,17.1159 2.62806,2.6213 2.23924,5.5312 -1.186,8.8758 -2.38469,2.3286 -3.48012,2.8478 -6.00855,2.8478 -2.3814,0 -3.5655,0.4941 -5.15142,2.1494 -1.89493,1.9779 -1.98427,2.3481 -1.11957,4.6389 0.83288,2.2066 0.72738,2.8897 -0.92821,6.0106 -1.29182,2.4351 -2.71048,3.8831 -4.59995,4.6952 -10.74227,4.6172 -24.06892,11.7723 -26.50294,14.2293 -0.73326,0.7403 -1.67861,1.3459 -2.10078,1.3459 -0.42217,0 -2.99281,1.9899 -5.71254,4.422 -4.72723,4.2274 -4.94498,4.5784 -4.94538,7.9714 -3e-4,2.4257 -0.505,4.1907 -1.59436,5.5756 -1.81838,2.3117 -3.10104,2.5129 -5.59651,0.8778 -1.61529,-1.0584 -1.96044,-0.993 -4.395,0.8325 -2.21309,1.6594 -3.21277,1.9169 -6.15726,1.5857 l -3.51522,-0.3955 -42.05118,42.0899 c -35.58095,35.6137 -42.05118,42.4222 -42.05118,44.2496 0,1.3999 -0.69106,2.7033 -1.96431,3.7048 -1.08037,0.8498 -2.50403,2.8941 -3.16369,4.5427 -1.61984,4.0483 -4.8847,6.3246 -8.14754,5.6804 -18.55364,-18.9645 -31.52165,13.1888 -48.41097,33.214 -2.41562,2.8752 -7.60673,8.977 -11.53579,13.5595 -3.92907,4.5825 -8.52805,10.1692 -10.21997,12.4149 -1.69191,2.2457 -5.15265,6.5722 -7.69053,9.6145 -10.6653,12.785 -19.85732,24.4774 -25.10354,31.932 -19.05222,27.0722 -23.79269,36.1669 -24.34874,46.71334 -0.26303,4.9887 -0.0464,6.4668 1.3372,9.1212 0.9081,1.7422 2.15288,5.0941 2.76617,7.4487 1.08944,4.1827 1.06934,4.359 -0.87475,7.6764 -3.80215,6.4879 -11.9345,7.9225 -25.29828,4.4627 z M 264.37521,847.39696 c -304.202792,-113.8743 -152.1014,-56.9372 0,0 z m 64.23464,-69.126 c -0.51229,-0.5123 -56.51084,56.1382 -56.48992,57.1476 0.009,0.4229 12.81109,-12.1737 28.44961,-27.9926 15.63851,-15.8189 28.25665,-28.9387 28.04031,-29.155 z m -18.88756,9.1323 c 0.43786,-0.8181 0.7961,-2.022 0.7961,-2.6752 0,-0.9877 -0.32364,-1.0402 -1.92263,-0.3116 -2.03282,0.9262 -2.20377,1.3087 -1.45582,3.2579 0.62806,1.6367 1.61688,1.5329 2.58235,-0.2711 z m 6.564,-7.7411 c 0.26142,-0.423 0.10881,-0.769 -0.33913,-0.769 -0.44795,0 -0.81445,0.346 -0.81445,0.769 0,0.423 0.15261,0.7691 0.33914,0.7691 0.18653,0 0.55303,-0.3461 0.81444,-0.7691 z m 15.0765,-4.0861 c 2.7362,-2.6416 5.6216,-5.9116 5.21629,-5.9116 -0.19538,0 -2.05958,1.7304 -4.14267,3.8453 -3.7483,3.8055 -4.62713,5.4969 -1.07362,2.0663 z m 7.9951,-8.2187 c 0.76558,-0.846 1.21893,-1.5381 1.00744,-1.5381 -0.21149,0 -1.01091,0.6921 -1.7765,1.5381 -0.76558,0.8459 -1.21893,1.5381 -1.00744,1.5381 0.21149,0 1.01091,-0.6922 1.7765,-1.5381 z m -9.9226,-1.3349 c -0.45587,-0.4558 -2.76678,0.7332 -2.76678,1.4237 0,0.3813 0.6764,0.2708 1.50313,-0.2455 0.82672,-0.5163 1.39537,-1.0465 1.26365,-1.1782 z m 13.48144,-2.3181 c 0.9566,-1.2198 0.9294,-1.247 -0.29037,-0.2904 -0.74021,0.5805 -1.34584,1.1862 -1.34584,1.3458 0,0.633 0.63154,0.2256 1.63621,-1.0554 z m 2.59358,-14.0353 c 0.76559,-0.8459 1.21893,-1.5381 1.00744,-1.5381 -0.21148,0 -1.01091,0.6922 -1.77649,1.5381 -0.76559,0.846 -1.21894,1.5382 -1.00745,1.5382 0.21149,0 1.01092,-0.6922 1.7765,-1.5382 z m 19.61086,0 c 0,-1.7536 -1.7,-2.0427 -2.97538,-0.506 -1.01601,1.2242 -0.38809,2.0442 1.56545,2.0442 0.89722,0 1.40993,-0.5594 1.40993,-1.5382 z m 8.14444,-3.2684 c -0.69948,-0.9517 -1.98714,-2.8551 -2.86145,-4.2298 -0.87431,-1.3747 -2.07458,-2.4994 -2.66728,-2.4994 -2.47579,1.4495 -1.16545,1.0783 -5.17231,3.7183 1.50859,-1.4172 2.05956,-1.5341 3.70257,-0.7855 1.06163,0.4837 1.9381,1.3195 1.9477,1.8572 0.016,0.8951 4.06939,3.4879 5.65197,3.6155 0.36883,0.03 0.0983,-0.7246 -0.6012,-1.6763 z m -24.052,-0.5028 c -360.761732,-46.2083 -180.38086,-23.1041 0,0 z m 44.2383,-18.8279 c 2.97444,-2.6163 10.23212,-7.3939 11.23215,-7.3939 0.32508,0 1.93626,-1.0654 3.58039,-2.3676 2.31896,-1.8367 2.83494,-2.6561 2.30086,-3.654 -0.37865,-0.7075 -0.71674,-3.0163 -0.75131,-5.1307 -0.0618,-3.7784 -1.09078,-7.4958 -3.04576,-11.0031 -0.58191,-1.044 -0.78544,-2.7053 -0.49398,-4.0323 0.61625,-2.8057 -1.77978,-6.3976 -3.52912,-5.2904 -14.17416,20.0685 3.30891,18.3706 -7.69663,20.7113 -0.29632,0 -0.76804,0.5975 -1.04827,1.3278 -0.56611,1.4752 2.45968,-0.904 5.46119,-4.2942 1.7509,-1.9776 3.7846,-1.8589 4.60104,0.2688 0.24957,0.6503 1.45297,2.2521 2.67424,3.5595 2.73156,2.9241 2.80574,4.3371 0.27814,5.298 -1.06828,0.4062 -2.13292,1.2352 -2.36587,1.8422 -0.23294,0.6071 -3.07918,2.8346 -6.32498,4.9502 -8.13124,4.8405 -14.67913,13.7658 -4.87209,5.2084 z m 41.65309,-33.1104 c 0,-0.1858 -1.39935,-2.0027 -3.10966,-4.0376 -1.71031,-2.0348 -3.78785,-4.509 -4.61675,-5.4982 -1.51975,-1.8135 -1.87282,-2.9024 -2.53387,-7.8147 -0.19921,-1.4804 -0.48119,-3.1981 -0.6266,-3.8171 -0.14542,-0.619 0.51428,-1.4797 1.46598,-1.9128 2.12239,-0.9656 2.28682,-1.9622 0.23524,-1.4256 -0.82232,0.215 -2.92996,1.7156 -4.68367,3.3346 -3.50959,3.24 -3.48049,2.579 -0.49001,11.1269 1.19542,3.417 5.5863,8.2664 8.41691,9.296 2.54181,0.9246 5.94243,1.3529 5.94243,0.7485 z m -27.11121,-8.5726 c -0.19501,-0.195 -0.98442,-0.1128 -1.75425,0.1826 -1.32993,0.5103 -1.32584,0.5636 0.0822,1.0685 1.34848,0.4836 2.5258,-0.3973 1.67205,-1.2511 z m 57.30981,-51.6526 c -0.28339,-0.7402 -1.87697,-3.9414 -3.54127,-7.1138 -1.66431,-3.1723 -3.41152,-6.54382 -3.88267,-7.49223 -0.86298,-1.7371 -2.35656,-2.27346 -3.07842,-1.10547 -0.38139,0.61711 1.58528,3.98006 7.43651,12.7162 2.95234,4.408 3.99768,5.4292 3.06585,2.9953 z m 77.55435,-60.77558 c 2.70233,-2.86633 6.81674,-6.87591 9.14312,-8.91019 3.49485,-3.05601 3.7664,-3.45334 1.56281,-2.28675 -2.80953,1.48738 -16.94387,14.62783 -16.94387,15.75242 0,1.52876 1.61094,0.35231 6.23794,-4.55548 z m 18.03251,-15.21081 c 1.4076,-1.12772 1.38306,-1.14373 -0.4298,-0.28035 -2.3541,1.12113 -2.79039,1.47636 -1.81328,1.47636 0.41264,0 1.42202,-0.5382 2.24308,-1.19601 z M 448.21917,538.83641 c -1.90825,-3.13002 -2.06422,-2.29769 -0.27571,1.47133 0.71647,1.50984 1.42545,2.37684 1.57551,1.92667 0.15006,-0.45018 -0.43485,-1.97927 -1.2998,-3.398 z m 126.98755,-21.66313 c -0.91969,-0.97897 -1.67216,-2.35489 -1.67216,-3.05762 0,-0.70273 -0.69085,-2.4108 -1.53523,-3.7957 -8.45232,-16.81695 -2.39598,7.95034 3.68457,8.63326 0.94317,0 0.84262,-0.37509 -0.47718,-1.77994 z M 538.5111,473.52804 c -0.5541,-0.89656 -4.19825,-0.95383 -4.19825,-0.066 0,0.35861 1.04445,0.68171 2.321,0.71801 1.27656,0.0363 2.12131,-0.25712 1.87725,-0.65201 z m 83.53299,-7.21651 c 0.39043,-0.40183 0.70987,-1.17308 0.70987,-1.71388 0,-0.76539 -0.4191,-0.79233 -1.89127,-0.12157 -1.50686,0.68658 -1.74133,1.1419 -1.15358,2.24012 0.40573,0.75811 0.78954,2.17981 0.85292,3.15932 0.0863,1.33368 0.19772,1.20152 0.4437,-0.52623 0.18066,-1.26894 0.64792,-2.63593 1.03836,-3.03776 z m 1.24282,-6.36851 c -0.19499,-0.74826 -0.36735,-0.32225 -0.38302,0.94668 -0.0157,1.26894 0.14386,1.88115 0.35452,1.36048 0.21066,-0.52067 0.22348,-1.55889 0.0285,-2.30716 z m -71.28584,-3.41482 c 0,-0.49541 0.57275,-1.53363 1.27278,-2.30715 0.86853,-0.95972 0.9673,-1.4064 0.31098,-1.4064 -1.5049,0 -5.49745,3.11236 -5.00815,3.90407 0.63569,1.02856 3.42439,0.87342 3.42439,-0.19052 z m 78.54152,-2.68588 c 0.95707,-1.1602 0.89415,-1.19353 -0.67489,-0.35747 -1.78955,0.95355 -2.2302,1.63696 -1.05548,1.63696 0.37119,0 1.14985,-0.57577 1.73037,-1.27949 z m 38.34288,-36.74337 c 0.006,-0.39808 -0.49643,-0.052 -1.11745,0.76905 -0.62101,0.82106 -1.11697,2.7041 -1.10213,4.18452 l 0.027,2.69169 1.09046,-3.46074 c 0.59975,-1.90341 1.09571,-3.78644 1.10213,-4.18452 z m 0.46419,-4.07891 c -0.84011,-0.84011 -1.4162,0.49593 -0.81303,1.88557 0.57193,1.31767 0.61339,1.31647 0.93205,-0.027 0.18342,-0.77332 0.12986,-1.60967 -0.11902,-1.85855 z m 29.52633,-16.1614 c 1.89559,-0.95579 3.70782,-2.44415 4.02717,-3.30746 0.67085,-1.81348 0.83542,-1.89335 -6.3201,3.06762 -13.04072,15.08592 -0.19467,1.5153 2.29293,0.23984 z m 6.16666,-15.49753 c 0,-0.92591 -4.69506,-4.8583 -5.19893,-4.35442 -0.21532,0.21531 0.0431,1.44079 0.57439,2.72329 0.69263,1.67216 1.48338,2.33182 2.7952,2.33182 1.00613,0 1.82934,-0.31531 1.82934,-0.70069 z m 19.0778,-11.23998 c -0.23679,-0.23679 -0.66681,0.19004 -0.95561,0.94849 -0.41735,1.09606 -0.32902,1.18439 0.43051,0.43052 0.52559,-0.52168 0.76188,-1.14223 0.5251,-1.37901 z m -7.12586,-1.1844 c 0.70779,-1.14523 -0.11284,-1.76789 -1.5853,-1.20285 -0.67952,0.26075 -1.0201,0.82262 -0.75684,1.24859 0.62338,1.00864 1.70354,0.98755 2.34214,-0.0458 z m -77.32146,-1.48694 c 0.63447,-0.41003 0.80751,-0.7455 0.38453,-0.7455 -0.42298,0 -1.28817,0.33547 -1.92264,0.7455 -0.63447,0.41003 -0.8075,0.7455 -0.38452,0.7455 0.42298,0 1.28816,-0.33547 1.92263,-0.7455 z m 98.4388,-1.36282 c 0,-0.74955 -2.94163,-4.28917 -6.53695,-7.86582 -3.59533,-3.57664 -6.53695,-6.26736 -6.53695,-5.97937 0,1.51568 2.2392,5.21521 4.97998,8.22775 6.50575,7.15079 8.09392,8.25304 8.09392,5.61744 z M 633.20676,361.1051 c 2.03434,-1.92835 2.33391,-2.89252 0.89073,-2.86684 -1.6302,0.029 -4.67698,2.7935 -4.10274,3.72264 0.75264,1.21779 1.13071,1.11706 3.21201,-0.8558 z m 9.90379,-3.52599 c 0.54585,-1.77267 0.52741,-1.77891 -1.44225,-0.48834 -1.09735,0.719 -2.00569,1.00793 -2.01856,0.64204 -0.0128,-0.36588 -0.39005,-0.0348 -0.8382,0.73589 -0.62692,1.07802 -0.49783,1.75141 0.55977,2.92005 1.36444,1.5077 1.38128,1.50587 2.28046,-0.24755 0.49823,-0.97156 1.15468,-2.5745 1.45878,-3.56209 z m 75.32762,-2.13187 c 1.31727,-0.50553 1.71016,-4.14755 0.44743,-4.14755 -0.42298,0 -0.68253,0.40429 -0.57679,0.89844 0.10575,0.49414 -0.58435,1.3037 -1.53354,1.79902 -2.47712,1.29261 -1.0866,2.50513 1.6629,1.45005 z m -75.11204,-5.63914 c 1.16194,-1.34111 1.26077,-3.12273 0.17323,-3.12273 -0.43344,0 -1.14761,0.9517 -1.58703,2.11489 -0.43942,1.1632 -1.72863,3.15312 -2.86492,4.42206 l -2.06597,2.30716 2.69169,-2.30592 c 1.48043,-1.26825 3.12428,-2.80521 3.653,-3.41546 z m 80.17379,-5.04537 c 0,-4.13937 -1.29919,-4.54069 -4.45701,-1.37679 l -2.07994,2.08395 2.49942,0.71898 c 1.37468,0.39545 2.49942,1.01501 2.49942,1.3768 0,0.36179 0.34608,0.6578 0.76906,0.6578 0.42298,0 0.76905,-1.55733 0.76905,-3.46074 z m -72.62714,-2.88395 2.25878,-2.49942 -2.49942,2.25878 c -1.37469,1.24233 -2.49943,2.36707 -2.49943,2.49942 0,0.59414 0.63457,0.0711 2.74007,-2.25878 z m 88.0082,1.73037 c 0,-0.42297 -0.60563,-0.76375 -1.34584,-0.75727 -1.15016,0.0101 -1.17811,0.12017 -0.19226,0.75727 1.45136,0.93795 1.5381,0.93795 1.5381,0 z m -78.44342,-2.6094 c 0,-0.16624 -0.53708,-0.50834 -1.19352,-0.76025 -0.6844,-0.26262 -0.99309,-0.1337 -0.72366,0.30225 0.45163,0.73076 1.91718,1.08086 1.91718,0.458 z m 1.85846,-9.42099 c 0.61362,-1.59906 0.23521,-1.97748 -1.36385,-1.36386 -1.53669,0.58968 -1.68588,2.62751 -0.19236,2.62751 0.58922,0 1.28951,-0.56864 1.55621,-1.26365 z m 37.8057,-40.07912 c -0.17089,-0.17089 -1.07925,0.1006 -2.01858,0.60331 -1.35724,0.72637 -1.48918,1.052 -0.64266,1.58607 0.70405,0.44418 1.38845,0.23963 2.01859,-0.60332 0.52434,-0.70144 0.81355,-1.41517 0.64265,-1.58606 z m 235.548,-150.26296 c 0.9123,-1.46082 0.8823,-1.59284 -0.2624,-1.15358 -0.711,0.27282 -1.4374,0.49603 -1.6143,0.49603 -0.1769,0 -0.3216,0.51911 -0.3216,1.15358 0,1.64933 0.9993,1.42383 2.1983,-0.49603 z m 10.4911,-18.34577 c 0.2614,-0.42298 0.1088,-0.76905 -0.3392,-0.76905 -0.4479,0 -0.8144,0.34607 -0.8144,0.76905 0,0.42298 0.1526,0.76905 0.3391,0.76905 0.1865,0 0.5531,-0.34607 0.8145,-0.76905 z m 9.4346,-3.84527 c 0.976,-1.56263 0.4734,-1.8981 -1.6327,-1.08993 -0.6423,0.24649 -0.9797,0.93865 -0.7496,1.53811 0.5734,1.49421 1.2487,1.36717 2.3823,-0.44818 z"
       id="path6296"
       inkscape:connector-curvature="0"
       sodipodi:nodetypes="ssccsssscsscsscsssscsssssssssssssssssssssscssssssssssssssssscccssssccsccccsscssscsccccscccssscccccsssccscsssssssssssssssssscsssssssssssssssssssscssssssssssssscsssssscssssscssscccccssssssccssssccsssssssssccccsccsccccssscsssscscscsssscssccscscsssscsccsccccccsssscscccsccccccsccscccsscsccccsccssssssssssssssssssccscsscsssssssccscsssssssssccscscccsscccsccsccsssssscssccssssssssssssssssccssscsccccsssscsssscssssccsscscssscsssssscssccscsssssssscccc" />
  </g>
</svg>
