<?xml version="1.0" encoding="UTF-8" standalone="no"?>
<!-- Created with Inkscape (http://www.inkscape.org/) -->

<svg
   xmlns:dc="http://purl.org/dc/elements/1.1/"
   xmlns:cc="http://creativecommons.org/ns#"
   xmlns:rdf="http://www.w3.org/1999/02/22-rdf-syntax-ns#"
   xmlns:svg="http://www.w3.org/2000/svg"
   xmlns="http://www.w3.org/2000/svg"
   xmlns:xlink="http://www.w3.org/1999/xlink"
   xmlns:sodipodi="http://sodipodi.sourceforge.net/DTD/sodipodi-0.dtd"
   xmlns:inkscape="http://www.inkscape.org/namespaces/inkscape"
   width="1024"
   height="1024"
   id="svg2"
   version="1.1"
   inkscape:version="0.48.4 r9939"
   sodipodi:docname="icon_transpose.svg"
   inkscape:export-filename="/home/ben/Dropbox/Red Jackets/RedJacketsFakebook/images/icon_256_2.png"
   inkscape:export-xdpi="90"
   inkscape:export-ydpi="90">
  <defs
     id="defs4">
    <linearGradient
       id="linearGradient4052">
      <stop
         id="stop4054"
         offset="0"
         style="stop-color:#ff4d1f;stop-opacity:1;" />
      <stop
         id="stop4056"
         offset="1"
         style="stop-color:#831500;stop-opacity:1;" />
    </linearGradient>
    <linearGradient
       id="linearGradient3817">
      <stop
         style="stop-color:#a57400;stop-opacity:0;"
         offset="0"
         id="stop3819" />
      <stop
         style="stop-color:#000000;stop-opacity:0.30000001;"
         offset="1"
         id="stop3821" />
    </linearGradient>
    <linearGradient
       id="linearGradient3789">
      <stop
         style="stop-color:#fff71f;stop-opacity:1;"
         offset="0"
         id="stop3791" />
      <stop
         style="stop-color:#ff8d00;stop-opacity:1;"
         offset="1"
         id="stop3793" />
    </linearGradient>
    <radialGradient
       inkscape:collect="always"
       xlink:href="#linearGradient3789"
       id="radialGradient3811"
       cx="157.37109"
       cy="306.10629"
       fx="157.37109"
       fy="306.10629"
       r="54.949219"
       gradientTransform="matrix(1,0,0,1.0147153,0,-4.504443)"
       gradientUnits="userSpaceOnUse" />
    <radialGradient
       inkscape:collect="always"
       xlink:href="#linearGradient3789"
       id="radialGradient3813"
       cx="167.07422"
       cy="295.73517"
       fx="167.07422"
       fy="295.73517"
       r="65.144531"
       gradientTransform="matrix(1,0,0,0.84457636,0,45.964238)"
       gradientUnits="userSpaceOnUse"
       spreadMethod="reflect" />
    <radialGradient
       inkscape:collect="always"
       xlink:href="#linearGradient3789"
       id="radialGradient3829"
       gradientUnits="userSpaceOnUse"
       gradientTransform="matrix(1,0,0,1.0147153,0,-4.504443)"
       cx="157.37109"
       cy="306.10629"
       fx="157.37109"
       fy="306.10629"
       r="54.949219" />
    <radialGradient
       inkscape:collect="always"
       xlink:href="#linearGradient3789"
       id="radialGradient3835"
       gradientUnits="userSpaceOnUse"
       gradientTransform="matrix(1,0,0,0.84457636,0,45.964238)"
       spreadMethod="reflect"
       cx="167.07422"
       cy="295.73517"
       fx="167.07422"
       fy="295.73517"
       r="65.144531" />
    <radialGradient
       inkscape:collect="always"
       xlink:href="#linearGradient3789-3"
       id="radialGradient3813-4"
       cx="167.07422"
       cy="295.73517"
       fx="167.07422"
       fy="295.73517"
       r="65.144531"
       gradientTransform="matrix(1,0,0,0.84457636,0,45.964238)"
       gradientUnits="userSpaceOnUse"
       spreadMethod="reflect" />
    <linearGradient
       id="linearGradient3789-3">
      <stop
         style="stop-color:#fff71f;stop-opacity:1;"
         offset="0"
         id="stop3791-2" />
      <stop
         style="stop-color:#ff8d00;stop-opacity:1;"
         offset="1"
         id="stop3793-0" />
    </linearGradient>
    <linearGradient
       id="linearGradient3876">
      <stop
         style="stop-color:#fff71f;stop-opacity:1;"
         offset="0"
         id="stop3878" />
      <stop
         style="stop-color:#ff8d00;stop-opacity:1;"
         offset="1"
         id="stop3880" />
    </linearGradient>
    <linearGradient
       id="linearGradient3883">
      <stop
         style="stop-color:#fff71f;stop-opacity:1;"
         offset="0"
         id="stop3885" />
      <stop
         style="stop-color:#ff8d00;stop-opacity:1;"
         offset="1"
         id="stop3887" />
    </linearGradient>
    <radialGradient
       inkscape:collect="always"
       xlink:href="#linearGradient3789-3"
       id="radialGradient3835-8"
       gradientUnits="userSpaceOnUse"
       gradientTransform="matrix(1,0,0,0.84457636,0,45.964238)"
       spreadMethod="reflect"
       cx="167.07422"
       cy="295.73517"
       fx="167.07422"
       fy="295.73517"
       r="65.144531" />
    <linearGradient
       id="linearGradient3890">
      <stop
         style="stop-color:#fff71f;stop-opacity:1;"
         offset="0"
         id="stop3892" />
      <stop
         style="stop-color:#ff8d00;stop-opacity:1;"
         offset="1"
         id="stop3894" />
    </linearGradient>
    <radialGradient
       r="65.144531"
       fy="295.73517"
       fx="167.07422"
       cy="295.73517"
       cx="167.07422"
       spreadMethod="reflect"
       gradientTransform="matrix(1,0,0,0.84457636,0,45.964238)"
       gradientUnits="userSpaceOnUse"
       id="radialGradient3900"
       xlink:href="#linearGradient3789-3"
       inkscape:collect="always" />
    <radialGradient
       inkscape:collect="always"
       xlink:href="#linearGradient4052"
       id="radialGradient4050"
       cx="-1510"
       cy="339.71429"
       fx="-1510"
       fy="339.71429"
       r="404.28571"
       gradientUnits="userSpaceOnUse" />
    <radialGradient
       inkscape:collect="always"
       xlink:href="#linearGradient4052"
       id="radialGradient4070"
       gradientUnits="userSpaceOnUse"
       cx="-1510"
       cy="339.71429"
       fx="-1510"
       fy="339.71429"
       r="404.28571" />
    <radialGradient
       inkscape:collect="always"
       xlink:href="#linearGradient3789-3"
       id="radialGradient4072"
       gradientUnits="userSpaceOnUse"
       gradientTransform="matrix(1,0,0,0.84457636,0,45.964238)"
       spreadMethod="reflect"
       cx="167.07422"
       cy="295.73517"
       fx="167.07422"
       fy="295.73517"
       r="65.144531" />
    <radialGradient
       inkscape:collect="always"
       xlink:href="#linearGradient3789-3"
       id="radialGradient4074"
       gradientUnits="userSpaceOnUse"
       gradientTransform="matrix(1,0,0,0.84457636,0,45.964238)"
       spreadMethod="reflect"
       cx="167.07422"
       cy="295.73517"
       fx="167.07422"
       fy="295.73517"
       r="65.144531" />
  </defs>
  <sodipodi:namedview
     id="base"
     pagecolor="#000000"
     bordercolor="#666666"
     borderopacity="1.0"
     inkscape:pageopacity="0"
     inkscape:pageshadow="2"
     inkscape:zoom="0.7"
     inkscape:cx="282.18862"
     inkscape:cy="522.95472"
     inkscape:document-units="px"
     inkscape:current-layer="layer1"
     showgrid="false"
     inkscape:window-width="1920"
     inkscape:window-height="1022"
     inkscape:window-x="0"
     inkscape:window-y="0"
     inkscape:window-maximized="1"
     showguides="true"
     inkscape:guide-bbox="true" />
  <metadata
     id="metadata7">
    <rdf:RDF>
      <cc:Work
         rdf:about="">
        <dc:format>image/svg+xml</dc:format>
        <dc:type
           rdf:resource="http://purl.org/dc/dcmitype/StillImage" />
        <dc:title></dc:title>
      </cc:Work>
    </rdf:RDF>
  </metadata>
  <g
     inkscape:label="Layer 1"
     inkscape:groupmode="layer"
     id="layer1"
     transform="translate(0,-28.3622)">
    <g
       id="g9040"
       transform="translate(-10.379864,0)">
      <path
         style="fill:#fdbd00;fill-opacity:1"
         d="m 264.45178,1014.9554 c -40.89956,-7.3947 -69.10876,-35.20739 -75.79478,-74.72908 -3.91179,-23.12378 5.34953,-49.35424 21.94729,-62.15925 31.72034,-24.47191 73.02543,-9.50897 83.00301,30.06796 2.43689,9.66794 1.63184,26.36933 -1.68986,35.04313 -6.55026,17.10395 -20.91132,26.48417 -44.54817,29.09794 -5.67098,0.6271 -10.77335,1.59218 -11.33877,2.14459 -1.6214,1.584 2.6188,6.49579 9.81658,11.37152 21.56753,14.60999 60.12129,16.35279 84.9122,3.83811 18.48925,-9.33335 31.23933,-24.68094 37.94307,-45.67322 4.21061,-13.18479 5.02175,-19.57974 4.95558,-39.07118 -0.0579,-17.04023 -0.7505,-24.00749 -6.73708,-67.76585 -4.28399,-31.31025 -7.15691,-49.07176 -8.02403,-49.60781 -0.74296,-0.45908 -2.33156,-0.61569 -3.53028,-0.3477 -6.4058,1.43142 -22.13964,2.67863 -33.78851,2.67863 -67.06728,0 -138.35442,-47.15776 -169.03533,-111.8205 -7.41856,-15.63465 -12.85105,-31.83299 -16.63894,-49.61291 -2.72207,-12.77648 -2.95329,-15.81092 -2.99246,-39.34887 -0.0378,-22.51163 0.25519,-26.96952 2.48418,-37.98586 6.89869,-34.08036 24.10829,-70.04562 48.8171,-102.01915 22.56522,-29.20071 49.78314,-55.92815 98.7006,-96.92224 13.9459,-11.6871 16.55076,-14.33848 16.55076,-16.84532 0,-1.63625 -1.43485,-13.70346 -3.18911,-26.81596 -5.08092,-37.9875 -5.93525,-49.25396 -5.96339,-78.64912 -0.0378,-34.5235 2.77571,-56.41944 10.77419,-83.99357 6.8047,-23.46 21.72217,-56.577099 33.21959,-73.749847 10.6251,-15.869721 27.78103,-31.07313 39.61324,-35.104629 10.83889,-3.693289 16.43734,-0.466064 27.22951,15.696714 14.28388,21.391591 24.71983,54.564812 29.7807,94.667772 2.99417,23.7247 1.11865,71.04532 -4.02171,101.47651 -6.47746,38.34795 -20.31373,69.2076 -45.01383,100.39587 -7.08143,8.94138 -33.6153,35.61857 -49.55944,49.82685 -4.29676,3.82898 -8.05853,7.60308 -8.35938,8.38696 -0.9327,2.4307 13.10462,102.59263 14.49857,103.45425 0.70264,0.43414 4.89029,0.55754 9.30657,0.27384 10.16844,-0.65257 26.65481,1.40052 38.2677,4.76585 33.68958,9.76291 61.23559,34.23244 75.41912,66.99634 14.54295,33.59392 16.64881,78.98708 5.23059,112.76618 -12.89342,38.14328 -42.06811,68.19386 -80.40805,82.82235 -5.67098,2.16354 -10.70835,4.31291 -11.19515,4.77623 -0.4865,0.46332 2.54887,26.18259 6.74494,57.15373 8.93205,65.92746 9.46989,71.97927 7.78439,87.57214 -4.51026,41.72344 -26.07927,69.4702 -63.83639,82.1199 -18.55366,6.2159 -43.01122,8.1414 -61.33482,4.8286 z M 346.675,773.63993 c 10.8444,-2.26035 10.31206,-1.93263 10.29524,-6.33779 -0.0378,-7.6107 -24.76856,-189.35051 -25.93536,-190.51689 -1.77459,-1.77459 -10.9677,0.85629 -22.81501,6.52931 -8.51426,4.07677 -11.71905,6.3889 -19.04131,13.73528 -10.08549,10.11921 -15.56846,18.56868 -20.33895,31.34201 -2.86565,7.67436 -3.42004,10.84551 -3.84967,22.02442 -0.57819,15.02851 0.84477,22.43477 6.66458,34.69442 6.46498,13.61892 17.17766,24.42413 31.3368,31.60817 9.13918,4.63717 5.76467,8.06294 -5.1975,5.27639 -20.32186,-5.16584 -39.33589,-21.62085 -50.14549,-43.39643 -17.75324,-35.76509 -14.27082,-79.11196 9.18907,-114.36964 14.43881,-21.70077 35.63443,-38.61468 58.73953,-46.87433 3.78819,-1.35424 7.11134,-3.04613 7.38548,-3.75971 0.4163,-1.08515 -9.22213,-77.09326 -11.17742,-88.14489 -0.45372,-2.56329 -1.20364,-3.52727 -2.745,-3.52727 -2.72697,0 -54.31599,46.02117 -73.16207,65.26543 -7.81252,7.9777 -18.03407,19.14458 -22.71463,24.81531 -45.45275,55.06768 -59.32352,117.8864 -37.81227,171.24546 7.48762,18.57331 22.36506,40.12225 36.49839,52.86629 19.72771,17.7879 48.94386,32.75444 74.18008,37.99971 8.62742,1.79328 51.3697,1.45832 60.64551,-0.47525 z m 37.19289,-11.42528 c 27.35338,-13.10881 44.29435,-34.98474 50.89858,-65.72527 2.93066,-13.64209 2.65389,-40.76712 -0.53641,-52.62046 -8.25984,-30.68902 -30.65942,-54.53987 -60.60027,-64.52649 -11.89167,-3.96648 -25.73139,-5.55968 -26.68586,-3.07218 -0.5303,1.38237 23.09611,180.52481 24.69662,187.25405 0.79256,3.33332 3.04176,3.09248 12.22734,-1.30965 z M 327.68213,314.12641 c 29.38154,-26.08898 54.8153,-57.74832 67.29039,-83.76063 12.6828,-26.44594 18.455,-46.83883 19.24961,-68.0037 0.49463,-13.16695 0.29009,-15.71385 -1.84622,-22.7915 -2.02524,-6.71601 -3.28835,-8.83074 -8.03851,-13.45841 -6.54479,-6.37605 -12.70342,-8.60806 -21.69433,-7.86246 -25.44393,2.11005 -53.35548,41.64048 -68.55233,97.09026 -5.18243,18.90718 -7.02952,32.92967 -7.02952,53.35528 0,14.95456 3.06059,48.84956 4.8929,54.19322 1.03479,3.01622 4.86939,0.87988 15.72801,-8.76206 z"
         id="path3962"
         inkscape:connector-curvature="0" />
      <g
         transform="matrix(1.2160538,0,0,1.2160538,-99.94136,-97.653413)"
         id="g9031">
        <g
           id="g9023"
           transform="translate(47.721594,0)">
          <path
             sodipodi:nodetypes="cccc"
             inkscape:connector-curvature="0"
             id="path8472"
             d="m 494.27841,439.79078 c -14.25709,8.55233 79.14396,-255.14361 144.28571,-298.57144 l 0,191.42858 c -63.50152,-25.38 -84.32089,79.47228 -144.28571,107.14286 z"
             style="fill:#ffbd00;fill-opacity:1;stroke:none" />
          <path
             sodipodi:nodetypes="cccc"
             inkscape:connector-curvature="0"
             id="path8472-4"
             d="m 782.84982,439.79078 c 14.25709,8.55233 -79.14396,-255.14361 -144.2857,-298.57144 l 0,191.42858 c 63.50151,-25.38 84.32089,79.47228 144.2857,107.14286 z"
             style="fill:#ffbd00;fill-opacity:1;stroke:none" />
        </g>
        <g
           id="g9027"
           transform="translate(50.571424,0)">
          <path
             sodipodi:nodetypes="cccc"
             inkscape:connector-curvature="0"
             id="path8472-0"
             d="m 491.42858,586.03535 c -14.25709,-8.55233 79.14396,255.14361 144.28571,298.57144 l 0,-191.42858 c -63.50152,25.38 -84.32089,-79.47228 -144.28571,-107.14286 z"
             style="fill:#ffbd00;fill-opacity:1;stroke:none" />
          <path
             sodipodi:nodetypes="cccc"
             inkscape:connector-curvature="0"
             id="path8472-4-9"
             d="m 779.99999,586.03535 c 14.25709,-8.55233 -79.14396,255.14361 -144.2857,298.57144 l 0,-191.42858 c 63.50151,25.38 84.32089,-79.47228 144.2857,-107.14286 z"
             style="fill:#ffbd00;fill-opacity:1;stroke:none" />
        </g>
        <rect
           style="fill:#ffbd00;fill-opacity:1;stroke:none"
           id="rect9021"
           width="45.714287"
           height="260"
           x="663.42859"
           y="382.36221"
           ry="14.285719" />
      </g>
    </g>
  </g>
</svg>
