<svg xmlns="http://www.w3.org/2000/svg" xmlns:xlink="http://www.w3.org/1999/xlink" width="1024" height="1024"><defs><linearGradient id="c"><stop offset="0" stop-color="#ff4d1f"/><stop offset="1" stop-color="#831500"/></linearGradient><linearGradient><stop offset="0" stop-color="#a57400" stop-opacity="0"/><stop offset="1" stop-opacity=".3"/></linearGradient><linearGradient id="a"><stop offset="0" stop-color="#fff71f"/><stop offset="1" stop-color="#ff8d00"/></linearGradient><radialGradient xlink:href="#a" cx="157.371" cy="306.106" fx="157.371" fy="306.106" r="54.949" gradientTransform="matrix(1 0 0 1.015 0 -4.504)" gradientUnits="userSpaceOnUse"/><radialGradient xlink:href="#a" cx="167.074" cy="295.735" fx="167.074" fy="295.735" r="65.145" gradientTransform="matrix(1 0 0 .845 0 45.964)" gradientUnits="userSpaceOnUse" spreadMethod="reflect"/><radialGradient xlink:href="#a" gradientUnits="userSpaceOnUse" gradientTransform="matrix(1 0 0 1.015 0 -4.504)" cx="157.371" cy="306.106" fx="157.371" fy="306.106" r="54.949"/><radialGradient xlink:href="#a" gradientUnits="userSpaceOnUse" gradientTransform="matrix(1 0 0 .845 0 45.964)" spreadMethod="reflect" cx="167.074" cy="295.735" fx="167.074" fy="295.735" r="65.145"/><radialGradient xlink:href="#b" cx="167.074" cy="295.735" fx="167.074" fy="295.735" r="65.145" gradientTransform="matrix(1 0 0 .845 0 45.964)" gradientUnits="userSpaceOnUse" spreadMethod="reflect"/><linearGradient id="b"><stop offset="0" stop-color="#fff71f"/><stop offset="1" stop-color="#ff8d00"/></linearGradient><linearGradient><stop offset="0" stop-color="#fff71f"/><stop offset="1" stop-color="#ff8d00"/></linearGradient><linearGradient><stop offset="0" stop-color="#fff71f"/><stop offset="1" stop-color="#ff8d00"/></linearGradient><radialGradient xlink:href="#b" gradientUnits="userSpaceOnUse" gradientTransform="matrix(1 0 0 .845 0 45.964)" spreadMethod="reflect" cx="167.074" cy="295.735" fx="167.074" fy="295.735" r="65.145"/><linearGradient><stop offset="0" stop-color="#fff71f"/><stop offset="1" stop-color="#ff8d00"/></linearGradient><radialGradient r="65.145" fy="295.735" fx="167.074" cy="295.735" cx="167.074" spreadMethod="reflect" gradientTransform="matrix(1 0 0 .845 0 45.964)" gradientUnits="userSpaceOnUse" xlink:href="#b"/><radialGradient xlink:href="#c" cx="-1510" cy="339.714" fx="-1510" fy="339.714" r="404.286" gradientUnits="userSpaceOnUse"/><radialGradient xlink:href="#b" id="f" gradientUnits="userSpaceOnUse" cx="-1510" cy="339.714" fx="-1510" fy="339.714" r="404.286"/><radialGradient xlink:href="#b" gradientUnits="userSpaceOnUse" gradientTransform="matrix(1 0 0 .845 0 45.964)" spreadMethod="reflect" cx="167.074" cy="295.735" fx="167.074" fy="295.735" r="65.145"/><radialGradient xlink:href="#b" gradientUnits="userSpaceOnUse" gradientTransform="matrix(1 0 0 .845 0 45.964)" spreadMethod="reflect" cx="167.074" cy="295.735" fx="167.074" fy="295.735" r="65.145"/><radialGradient xlink:href="#d" gradientUnits="userSpaceOnUse" cx="-1510" cy="339.714" fx="-1510" fy="339.714" r="404.286"/><linearGradient id="d"><stop offset="0" stop-color="#ff4d1f"/><stop offset="1" stop-color="#ff0" stop-opacity="0"/></linearGradient><radialGradient r="404.286" fy="339.714" fx="-1510" cy="339.714" cx="-1510" gradientUnits="userSpaceOnUse" id="e" xlink:href="#d"/></defs><g><path transform="matrix(1.627 0 0 1.627 2948.831 -3.035)" d="m -1105.7143,339.71429 a 404.28571,404.28571 0 1 1 -808.5714,0 404.28571,404.28571 0 1 1 808.5714,0 z" fill="url(#e)"/><path transform="matrix(.955 0 0 .955 1937.947 191.954)" d="m -1105.7143,339.71429 a 404.28571,404.28571 0 1 1 -808.5714,0 404.28571,404.28571 0 1 1 808.5714,0 z" fill="url(#f)"/><path d="m 602.15817,743.77769 c -33.7522,-2.21678 -48.7241,-5.56791 -73.1629,-16.37591 -8.6345,-3.81858 -16.3428,-6.29905 -17.1297,-5.5122 -2.3679,2.36801 -23.3187,-9.45244 -43.0719,-24.3012 -30.8778,-23.21117 -58.558,-65.09866 -70.6707,-106.94317 -8.2765,-28.59212 -1.1211,-69.2017 17.9177,-101.6889 14.6857,-25.05919 52.9254,-60.67271 83.303,-77.58185 3.3264,-1.8516 12.0774,-6.64327 19.4465,-10.64812 7.3691,-4.00485 15.0859,-10.52896 17.1483,-14.49799 5.2533,-10.10953 3.61,-36.99073 -2.2611,-36.99073 -5.7298,0 -8.8138,-4.28788 -6.8204,-9.48263 1.1934,-3.11007 2.5306,-3.26305 5.6793,-0.64979 3.4534,2.86601 4.1664,-1.08852 4.4153,-24.4878 0.1631,-15.34816 1.1905,-31.09428 2.2828,-34.99141 1.3889,-4.95539 -0.8717,-12.76354 -7.5193,-25.97174 -15.0904,-29.98309 -20.5345,-59.7602 -16.6253,-90.93455 4.0081,-31.96364 14.1522,-54.27306 32.2726,-70.975896 60.7342,-55.982877 163.4964,-18.776887 209.7246,75.932686 46.5499,95.36859 12.5166,190.56934 -70.5091,197.23384 -19.0765,1.53129 -53.8494,-6.64598 -68.1744,-16.03199 -6.6324,-4.34577 -6.7156,-4.21688 -8.785,13.61387 -2.0017,17.24609 -1.6465,18.65698 8.4674,33.63627 25.1501,37.24917 32.2801,44.35894 51.7379,51.59141 l 18.538,6.8906 2.8472,-11.00246 c 6.1126,-23.62092 5.516,-28.20577 -4.0035,-30.76457 -4.8079,-1.29235 -14.1868,-1.12624 -20.842,0.36914 -15.0748,3.38727 -18.1705,0.52346 -13.7882,-12.75533 l 3.4211,-10.36585 11.6436,5.62561 c 6.404,3.09405 14.9921,5.62558 19.0845,5.62558 11.9267,0 38.4347,6.19171 45.4305,10.61158 6.0065,3.79491 9.9606,12.61212 14.1085,31.46099 1.0089,4.58477 4.3303,8.51381 8.0105,9.47623 3.5295,0.92298 5.4124,3.05922 4.293,4.87048 -1.0967,1.77452 -3.2413,2.45558 -4.7657,1.5134 -3.6717,-2.26919 -3.5309,-0.92735 2.8705,27.3703 3.0192,13.34614 9.5507,31.43402 14.5146,40.19528 26.9375,47.54517 30.0085,100.49742 7.9358,136.83312 -17.6615,29.07383 -34.0355,42.79707 -74.2427,62.22356 -40.454,19.54569 -50.5652,21.3057 -102.7213,17.88014 z m -38.9547,-60.68947 c -4.2363,-3.79054 -20.5939,-10.52095 -20.5939,-8.47347 0,1.36352 3.6846,3.93506 8.188,5.71458 8.4588,3.34252 14.5794,4.70362 12.4059,2.75889 z m 57.7315,-16.01017 c -2.5746,-7.77853 -5.5398,-15.11256 -6.5894,-16.29785 -1.0495,-1.18528 -7.9055,1.82362 -15.2357,6.68647 -7.3302,4.86283 -15.0024,8.84725 -17.0493,8.85428 -2.047,0.006 -3.7218,1.35258 -3.7218,2.99017 0,1.63759 -0.044,3.98231 -0.099,5.2105 -0.1147,2.59629 16.974,5.66941 34.9026,6.27669 l 12.4734,0.42252 -4.6812,-14.14278 z m 24.9493,5.14717 c -2.6351,-6.98115 -2.531,-10.37985 0.4649,-15.17708 2.1233,-3.39981 3.4327,-6.38596 2.9098,-6.63589 -0.5229,-0.2498 -5.3079,-2.87652 -10.6334,-5.83686 -16.5994,-9.22725 -18.0263,-4.68462 -7.5359,23.99137 3.5952,9.82751 6.1438,12.65407 11.4096,12.65407 6.3088,0 6.5442,-0.62585 3.385,-8.99561 z m -131.5602,-3.53659 c -14.9497,-10.69251 -39.3999,-36.83007 -45.7983,-48.95883 -3.324,-6.30077 -6.1028,-10.363 -6.1751,-9.02714 -0.4681,8.6401 22.274,37.13433 42.2245,52.90433 8.1124,6.41246 15.6343,11.61653 16.7155,11.56466 1.0811,-0.0518 -2.0539,-2.96924 -6.9666,-6.48302 z m 161.7905,0.57586 c 6.3583,-5.29836 6.5535,-6.21428 2.2423,-10.52547 -5.2682,-5.26817 -13.9433,-3.72066 -19.9907,3.56603 -3.2524,3.91889 -2.9637,5.34178 1.789,8.81697 7.129,5.21285 7.5308,5.16611 15.9594,-1.85753 z m 61.7933,-12.36305 c 10.4005,-11.20454 25.0839,-34.47579 19.624,-31.10138 -1.962,1.21259 -5.7689,6.46233 -8.4599,11.6661 -2.691,5.20377 -11.0555,15.34897 -18.5878,22.5449 -7.5323,7.19591 -11.0153,11.67227 -7.7402,9.94744 3.2752,-1.72482 10.099,-7.60051 15.1639,-13.05706 z m -180.4111,8.04828 c 0,-2.39876 2.6797,-5.7955 5.9548,-7.54831 3.2752,-1.75281 5.9549,-2.47874 5.9549,-1.61314 0,0.8656 6.2334,-3.18424 13.852,-8.99966 7.6186,-5.81543 18.9969,-13.51065 25.2852,-17.10056 8.5626,-4.88829 11.439,-8.43994 11.4561,-14.14591 0.033,-10.90721 4.0324,-14.81208 36.3201,-35.46034 28.2778,-18.08391 28.7862,-18.61053 25.4767,-26.39302 -1.8572,-4.3675 -5.1115,-10.0386 -7.2318,-12.60244 -2.1203,-2.56383 -4.7322,-9.26304 -5.8043,-14.88714 -4.3011,-22.5625 -14.4563,-34.05096 -40.7331,-46.08087 -31.5932,-14.46384 -67.5972,-12.76981 -102.8346,4.83855 -77.8453,38.89977 -68.2698,130.33697 18.7474,179.01893 11.303,6.32352 13.5566,6.4854 13.5566,0.97391 z m 14.3164,1.16067 c -0.5868,-1.76041 -2.3397,-3.20074 -3.8954,-3.20074 -1.5557,0 -3.3087,1.44033 -3.8955,3.20074 -0.5868,1.7604 1.1662,3.20073 3.8955,3.20073 2.7293,0 4.4823,-1.44033 3.8954,-3.20073 z m 136.0437,-20.28998 c 8.1879,-5.72057 15.4773,-10.84636 16.1986,-11.39063 0.7213,-0.54428 -0.7869,-3.08798 -3.3516,-5.65271 -4.2326,-4.23253 -5.5311,-4.21428 -14.0629,0.1977 -5.1699,2.67347 -8.745,5.92029 -7.9447,7.2152 0.8003,1.29492 -0.2022,2.35441 -2.2275,2.35441 -2.0254,0 -7.3687,2.4152 -11.8739,5.36714 -7.7203,5.05853 -7.9061,5.68227 -3.2321,10.84703 5.4031,5.97028 4.9244,6.13178 26.4941,-8.93814 z m -53.5937,-9.261 c -1.0121,-1.63758 -3.4359,-2.95691 -5.3862,-2.93184 -2.1307,0.0268 -1.7635,1.19761 0.92,2.93184 5.72,3.69657 6.7508,3.69657 4.4662,0 z m 84.1595,-19.55425 c -1.0073,-1.0073 -4.6827,-0.92652 -8.1675,0.17953 -5.1765,1.64298 -5.673,2.80977 -2.7132,6.37617 3.1769,3.82799 4.182,3.80589 8.1674,-0.17954 2.4996,-2.49958 3.7206,-5.36884 2.7133,-6.37616 z m -281.0915,-20.66645 c -0.948,-2.47037 -2.8589,-11.51431 -4.2465,-20.09764 l -2.5228,-15.60607 1.1394,17.04366 c 1.0477,15.67161 3.0295,23.15162 6.1339,23.15162 0.6708,0 0.4439,-2.0212 -0.504,-4.49157 z m 211.8191,-5.61656 c 3.2752,-2.52429 4.615,-4.62558 2.9774,-4.66953 -1.6375,-0.0441 -6.9969,3.33389 -11.9097,7.50627 -9.1473,7.76883 -1.8009,5.43575 8.9323,-2.83674 z m 41.684,-3.23638 c 5.9549,-4.84856 5.9549,-4.84856 0,-1.92505 -3.2752,1.60793 -8.6345,5.10536 -11.9097,7.77207 -5.9549,4.84856 -5.9549,4.84856 0,1.92505 3.2752,-1.60793 8.6345,-5.10536 11.9097,-7.77207 z m 55.0368,0.69044 c -0.024,-3.68457 -1.3444,-8.70898 -2.9318,-11.16535 -2.1469,-3.32207 -2.8979,-1.60597 -2.9318,6.69921 -0.024,6.14094 1.2942,11.16535 2.9318,11.16535 1.6376,0 2.9569,-3.01464 2.9318,-6.69921 z m -4.3924,-23.81942 c -2.9007,-10.43708 -11.2595,-29.21196 -12.4677,-28.00378 -1.3157,1.31566 11.2429,34.70299 13.0534,34.70299 0.7019,0 0.4383,-3.01465 -0.5857,-6.69921 z m -307.249,-23.07507 c 1.183,-8.94654 0.8955,-11.4198 -0.8651,-7.44357 -2.5179,5.68647 -4.2206,24.66888 -1.9809,22.0826 0.5909,-0.68234 1.8717,-7.26989 2.846,-14.63903 z m 240.2288,12.27427 c 0,-1.43706 -2.0098,-4.2808 -4.4662,-6.31941 -4.8479,-4.02337 -5.4539,-3.06101 -2.6589,4.22261 1.9132,4.98562 7.1251,6.51941 7.1251,2.0968 z m 19.3282,-9.82718 c 4.6933,-2.13845 7.0726,-5.13925 6.0949,-7.68709 -0.882,-2.29861 -1.6037,-6.69564 -1.6037,-9.77115 0,-7.71648 -20.1866,-13.93945 -29.3352,-9.04325 -9.5338,5.10233 -7.7617,13.18777 4.7714,21.77039 6.1409,4.20526 11.4373,7.77936 11.7696,7.9424 0.3324,0.16317 4.0687,-1.28202 8.303,-3.2113 z m 16.4009,-34.93413 c 0,-1.49199 -4.244,-6.2838 -9.431,-10.64842 -8.4025,-7.07023 -9.7311,-7.39944 -12.1827,-3.01878 -3.1634,5.65283 -3.5006,5.18489 8.2153,11.40176 10.3863,5.51134 13.3984,6.02066 13.3984,2.26544 z m -32.3667,-14.09065 c 1.1956,-3.04001 2.2681,-6.91323 2.3831,-8.60712 0.3119,-4.58899 -17.2774,-14.07814 -22.4302,-12.10083 -2.5281,0.97013 -3.6771,0.43664 -2.6475,-1.22929 2.9291,-4.73947 -3.3972,-3.37822 -7.5489,1.6243 -2.8944,3.48755 -2.9952,6.12776 -0.426,11.16536 1.8506,3.62874 4.6824,10.23854 6.293,14.68842 2.83,7.81944 3.2513,7.95486 12.5654,4.03859 5.3004,-2.22867 10.6155,-6.53942 11.8111,-9.57943 z m 42.4426,-31.09748 c -3.9042,-16.51999 -7.1551,-31.59322 -7.2243,-33.49606 -0.1245,-3.42488 -13.9749,28.20083 -15.4727,35.33022 -0.5544,2.63901 24.8013,26.87313 29.3962,28.0959 0.2198,0.0584 -2.795,-13.4101 -6.6992,-29.93006 z m -244.9129,15.89354 c 3.7035,-4.72238 3.5982,-4.82769 -1.1242,-1.12416 -2.8657,2.24752 -5.2105,4.59224 -5.2105,5.2105 0,2.45055 2.4451,0.87331 6.3347,-4.08634 z m 167.6656,-9.38661 c 0.9135,-1.47805 -2.557,-4.15774 -7.7121,-5.95485 -12.9543,-4.51587 -14.0615,-3.99482 -5.9216,2.78645 7.7384,6.4467 11.1217,7.23295 13.6337,3.1684 z m 54.2976,-28.57777 c 7.3354,-21.74558 6.1642,-26.19722 -6.4663,-24.57866 -4.8235,0.61811 -6.5935,4.40361 -9.4053,20.1147 -2.4438,13.65454 -2.5352,20.47839 -0.3107,23.17421 5.4434,6.59661 9.0538,2.42223 16.1823,-18.71025 z m -53.436,14.57916 c -0.9894,-0.98937 -3.5574,-1.09513 -5.7067,-0.23492 -2.3752,0.95045 -1.6697,1.65598 1.7988,1.79884 3.1387,0.12922 4.8973,-0.57443 3.9079,-1.5638 z m -77.8783,-18.34435 c 1.7571,-1.20312 4.0597,-4.53221 5.1171,-7.39799 2.284,-6.19043 14.8092,-6.96736 19.5835,-1.21476 1.8239,2.19764 2.576,4.7359 1.6713,5.64059 -0.9047,0.90466 4.2723,2.12121 11.5044,2.70347 l 13.1493,1.05863 -7.477,-11.90971 c -4.1123,-6.55034 -10.8643,-16.37931 -15.0045,-21.84212 l -7.5275,-9.93243 -5.2994,10.32953 c -2.9146,5.68126 -11.5654,15.84516 -19.224,22.5865 -12.4975,11.00071 -13.195,12.25227 -6.8062,12.21136 3.9151,-0.0238 8.556,-1.02995 10.313,-2.23307 z m 19.1361,-3.6762 c 0,-1.63759 -2.0097,-2.97743 -4.4661,-2.97743 -2.4564,0 -4.4662,1.33984 -4.4662,2.97743 0,1.63758 2.0098,2.97743 4.4662,2.97743 2.4564,0 4.4661,-1.33985 4.4661,-2.97743 z m -36.1613,-81.62684 c 0.3742,-7.2303 -0.3803,-13.80035 -1.6768,-14.60012 -1.2964,-0.79977 -2.455,5.11591 -2.5746,13.146 -0.2707,18.16728 3.3226,19.39631 4.2514,1.45412 z m -0.4819,-39.64669 c -0.7549,-2.89695 -1.4222,-1.24763 -1.4829,3.66513 -0.061,4.91275 0.557,7.28296 1.3726,5.26715 0.8155,-2.0158 0.8652,-6.03533 0.1101,-8.93228 z" fill="#410000" transform="matrix(1.097 0 0 1.097 -48.09 -64.912)"/><path d="m 692.01927,751.5669 c -5.9069,-3.42336 -5.6258,-4.71836 4.2272,-19.47262 4.841,-7.24929 8.7175,-13.27515 8.6144,-13.39082 -0.176,-0.19752 -10.0117,2.58963 -20.4488,5.79464 -7.5542,2.31977 -26.1654,7.63554 -36.3391,10.37927 -11.1142,2.99747 -12.32,2.66529 -13.5841,-3.74175 -1.0029,-5.08323 -0.2235,-6.3711 4.7646,-7.87271 8.3426,-2.51146 76.0433,-21.48124 76.6639,-21.48124 1.1421,0 3.6051,-3.31251 15.9942,-21.51171 5.454,-8.01143 15.1253,-22.09392 21.4919,-31.29442 6.3667,-9.20039 12.2009,-17.70717 12.9649,-18.9039 0.764,-1.19671 2.6776,-3.99167 4.2523,-6.21102 1.5749,-2.21934 6.7096,-9.66097 11.4105,-16.53696 4.701,-6.87599 10.9135,-15.95642 13.8058,-20.17873 2.8923,-4.22233 5.8837,-8.64922 6.6477,-9.83757 3.2516,-5.05754 12.5953,-18.43959 13.6594,-19.56277 0.6366,-0.67205 1.1576,-1.47762 1.1576,-1.79017 0,-0.31254 0.4166,-1.07158 0.9259,-1.68675 0.5092,-0.61516 3.2096,-4.36182 6.0009,-8.3259 2.7911,-3.96407 7.5891,-10.42333 10.6621,-14.35392 3.073,-3.93058 8.3035,-10.68868 11.6234,-15.01801 3.3199,-4.32933 6.6333,-8.58809 7.3629,-9.46391 0.7298,-0.87583 2.1574,-3.22061 3.1726,-5.21063 1.9229,-3.76902 3.7813,-5.06828 6.0205,-4.20902 2.8297,1.08587 2.3533,6.64786 -0.7187,8.39065 -0.7458,0.4231 -6.9372,10.354 -13.7586,22.06865 -11.3111,19.42523 -23.4287,38.10884 -57.058,87.97564 -6.5263,9.67732 -18.024,26.76308 -25.5506,37.96839 -7.5265,11.20532 -14.1655,21.01739 -14.7532,21.80463 -2.3757,3.18194 -11.7182,17.32842 -11.7182,17.74367 0,0.24513 3.6463,-0.54388 8.103,-1.75322 4.4566,-1.20943 10.6034,-2.76632 13.6593,-3.45975 3.056,-0.69344 12.224,-3.2301 20.3733,-5.63702 8.1494,-2.40683 18.9843,-5.5533 24.0776,-6.99203 18.2996,-5.16945 38.1678,-10.99177 61.5829,-18.04686 12.5458,-3.78008 43.4518,-11.78429 64.3612,-16.6686 8.1493,-1.90361 15.4748,-4.02672 16.2789,-4.71804 1.8089,-1.55523 5.6623,-1.63374 7.1504,-0.14569 2.8011,2.80121 -0.2928,7.22323 -5.0537,7.22323 -1.5279,0 -14.8303,4.38415 -29.561,9.74252 -25.3393,9.21725 -46.0573,15.88905 -77.7163,25.02666 -7.64,2.20513 -18.2666,5.31984 -23.6145,6.92174 -5.348,1.6018 -10.9738,3.24723 -12.5018,3.65636 -3.8454,1.02969 -39.6564,11.5462 -50.9333,14.95743 -13.6966,4.1431 -17.0911,5.11731 -22.4496,6.44306 -6.6173,1.63709 -5.0906,-0.23003 -30.61,37.43391 -2.6894,3.96928 -4.6864,5.74527 -6.6712,5.93308 -0.2547,0.0241 -2.0405,-0.8704 -3.9686,-1.98779 z m 113.5785,-171.562 c 0.2932,-0.76399 0.1739,-1.38908 -0.2649,-1.38908 -0.4388,0 -1.0378,0.62509 -1.3309,1.38908 -0.2932,0.764 -0.174,1.38909 0.2648,1.38909 0.4389,0 1.0378,-0.62509 1.331,-1.38909 z m 14.9451,-21.76239 c 0.3147,-0.50933 0.131,-0.92606 -0.4084,-0.92606 -0.5394,0 -0.9807,0.41673 -0.9807,0.92606 0,0.50933 0.1837,0.92606 0.4084,0.92606 0.2245,0 0.6659,-0.41673 0.9807,-0.92606 z" transform="matrix(1.097 0 0 1.097 -48.09 -64.912)"/><path d="m 661.58827,987.73757 c -27.9446,-14.1936 -40.357,-50.7745 -31.7097,-93.45111 l 4.102,-20.2435 -6.5897,-7.8821 c -12.89,-15.418 -52.0681,-46.7956 -82.4566,-66.0391 l -30.8472,-19.53398 -1.9367,9.23217 c -1.0651,5.07767 -5.2413,19.55491 -9.2806,32.17161 -5.6216,17.5586 -6.7414,24.0656 -4.7749,27.7402 3.5285,6.593 -2.4665,17.6935 -13.1066,24.2696 -4.5335,2.8018 -10.2849,7.351 -12.7813,10.1093 -5.1898,5.7347 -16.1126,6.7909 -16.1126,1.5582 0,-1.9014 -14.7141,-12.6073 -32.6981,-23.7909 -17.9839,-11.1835 -45.0672,-29.0616 -60.1853,-39.729 -15.1181,-10.6673 -28.4441,-19.3898 -29.6133,-19.3832 -1.1693,0.01 -6.0128,9.4404 -10.7632,20.9641 -6.7946,16.4825 -9.6903,20.9432 -13.5728,20.91 -6.8501,-0.059 -24.9601,-8.5763 -27.5088,-12.9381 -1.1574,-1.9808 -5.7136,-5.4463 -10.1248,-7.7009 -4.4111,-2.2547 -8.0203,-5.1529 -8.0203,-6.4404 0,-1.2876 -3.6091,-4.1766 -8.0202,-6.42 -4.4112,-2.2433 -8.3823,-4.3921 -8.8248,-4.7751 -0.4422,-0.3829 2.7163,-8.7177 7.0193,-18.52178 7.9053,-18.01143 7.5694,-21.95232 -1.8807,-22.06868 -1.6882,-0.0198 -6.4828,-4.75741 -10.6551,-10.52583 -4.1723,-5.76843 -10.5645,-12.04564 -14.2052,-13.94935 -3.6407,-1.90374 -9.9509,-5.98779 -14.0227,-9.07572 -7.3473,-5.57184 -7.4004,-5.78656 -6.9971,-28.34288 0.2246,-12.50069 1.1016,-26.4358 1.9515,-30.96694 1.7035,-9.08008 16.2871,-36.29832 23.7257,-44.28064 4.7268,-5.07232 4.7018,-5.09314 -24.2955,-20.24014 -20.9517,-10.94422 -30.0442,-14.51966 -32.682,-12.85161 -15.9093,10.05981 -42.2446,-8.82843 -38.1706,-27.37682 5.1246,-23.33258 43.7853,-21.71046 49.2781,2.06758 1.3479,5.83532 6.2711,8.91187 37.4097,23.37716 19.7217,9.16163 39.248,16.6575 43.3914,16.6575 4.1437,0 16.9445,4.51275 28.4461,10.02831 19.4058,9.30594 27.7588,10.82611 27.7588,5.05188 0,-1.29203 3.0538,-3.0538 6.7863,-3.91505 5.3299,-1.22979 8.2098,-4.70675 13.4188,-16.20015 5.6379,-12.43949 6.0856,-14.94041 2.9846,-16.6757 -3.7945,-2.12354 -2.3454,-10.37039 1.8224,-10.37039 1.2507,0 8.8739,3.3315 16.9401,7.40334 8.0661,4.07182 16.8265,7.40332 19.4673,7.40332 7.5316,0 27.4246,9.34848 27.3826,12.86812 -0.067,5.59571 -4.2875,10.10412 -8.0925,8.64398 -4.998,-1.91796 -17.5827,25.63001 -15.1744,33.21742 1.4427,4.54526 1.9947,4.74336 3.8717,1.38928 2.8004,-5.00435 17.5523,-14.16659 22.8089,-14.16659 6.0527,0 13.8985,9.05498 13.8985,16.04054 0,8.74294 -4.4091,7.65638 -6.8293,-1.68297 -2.9036,-11.20536 -6.76,-11.22002 -17.9119,-0.0681 -14.4715,14.47134 -13.3319,17.94491 9.3176,28.40512 10.5189,4.85792 58.5305,27.84152 106.6924,51.0747 66.0599,31.86709 95.3499,44.63171 119.2545,51.97134 17.4279,5.35108 35.0429,9.72924 39.1446,9.72924 5.1969,0 10.8866,-3.01842 18.7702,-9.95795 23.5253,-20.70777 57.9024,-31.11873 81.5928,-24.71012 14.1485,3.8273 30.4721,19.16912 37.6035,35.34165 11.1556,25.29863 6.373,73.13853 -10.6613,106.64483 -13.3307,26.22161 -38.1916,55.83131 -61.0977,72.76841 -27.4908,20.3272 -62.7676,27.6321 -83.2359,17.2359 z M 456.09437,844.85166 c 0,-2.9117 -4.8132,-6.0264 -6.5808,-4.2587 -1.7677,1.7678 1.3471,6.5808 4.2586,6.5808 1.2773,0 2.3222,-1.045 2.3222,-2.3221 z m -24.5729,-17.2855 c -15.493,-10.6833 -87.8368,-53.88848 -88.7326,-52.99275 -1.3484,1.34827 -5.3669,-1.49665 46.5928,32.98435 29.7261,19.7265 45.9416,29.1293 46.6371,27.0431 0.5866,-1.7591 -1.4373,-4.9247 -4.4973,-7.0347 z m 46.6785,-24.4615 c 6.8335,-22.9464 6.7901,-41.19274 -0.1061,-44.88399 -2.8308,-1.515 -5.3726,-2.38693 -5.6485,-1.93765 -0.2757,0.44928 -4.4906,12.85129 -9.3665,27.56002 l -8.8652,26.74312 7.7271,4.7118 c 4.25,2.5915 8.5128,4.716 9.4735,4.721 0.9605,0 4.0144,-7.6064 6.7864,-16.9143 z m -22.2475,-27.11159 c 4.1498,-11.25505 7.5452,-22.01237 7.5452,-23.90512 0,-1.89274 -6.3891,-7.78007 -14.1979,-13.08294 -14.1707,-9.62319 -68.9965,-39.89785 -72.2527,-39.89785 -0.9452,0 -6.7724,11.62796 -12.9492,25.83991 l -11.2306,25.83994 13.438,7.27826 13.4378,7.27829 -1.5273,-8.14065 c -2.66,-14.17913 10.4631,-33.23952 22.9706,-33.3631 13.9278,-0.1377 19.8579,18.55412 10.6679,33.62572 l -4.7371,7.76895 12.1187,7.53348 c 7.4325,4.62025 11.6289,8.81009 10.8521,10.83475 -0.7618,1.9852 2.429,5.41349 8.0042,8.59968 5.0992,2.91413 9.5059,5.06347 9.7931,4.7764 0.287,-0.28707 3.9174,-9.73066 8.0672,-20.98572 z m -52.8541,-18.77488 c 6.7355,-11.49357 7.6703,-25.96592 1.8015,-27.89242 -4.255,-1.39671 -17.3004,12.17411 -19.2783,20.0546 -0.8953,3.56711 -0.9311,9.26189 -0.079,12.65509 2.4853,9.90178 10.165,7.79444 17.556,-4.81727 z M 240.16397,716.3816 c -4.0719,-2.69667 -8.5139,-4.87342 -9.8712,-4.83719 -4.1796,0.11154 8.922,9.7738 13.2293,9.75647 2.6329,-0.01 1.4604,-1.72801 -3.3581,-4.91928 z m 47.7255,-8.75333 c 3.9936,-8.76517 3.658,-9.10457 -2.8478,-2.88044 -3.1415,3.00538 -5.2968,6.2972 -4.79,7.31515 1.7717,3.55738 4.7967,1.80106 7.6378,-4.43471 z m -19.3461,-8.4857 c 0,-8.02121 5.7822,-27.18095 8.2029,-27.18095 1.2341,0 1.5011,2.49863 0.5935,5.5525 -8.468,28.49047 1.1798,35.88635 13.8968,10.65314 2.7819,-5.51992 7.1427,-12.02283 9.6907,-14.45095 9.1621,-8.73109 6.0519,-12.96661 -19.3363,-26.33226 l -23.9693,-12.61848 -6.261,4.62454 c -6.4872,4.7915 -20.867,31.22317 -23.39,42.99382 -1.1211,5.23006 -0.6412,6.41387 2.1637,5.33753 1.9824,-0.76069 10.6026,2.58326 19.1559,7.43101 18.1218,10.27101 19.2531,10.50545 19.2531,3.9901 z m 111.6444,-75.91953 c 4.2895,-9.88496 5.3205,-14.72415 3.3986,-15.95134 -1.6877,-1.07749 -4.7924,2.27681 -7.9943,8.63721 -7.9371,15.76587 -9.3023,21.50385 -5.116,21.50385 1.9676,0 6.3027,-6.33378 9.7117,-14.18972 z m -17.9968,-8.27034 c 5.0738,-11.79427 5.0267,-17.02437 -0.153,-17.02437 -3.1251,0 -15.0689,26.73713 -13.2549,29.67225 2.7587,4.46404 8.2927,-0.75593 13.4084,-12.64788 z" fill="#2c0000" transform="matrix(1.097 0 0 1.097 -48.09 -64.912)"/><path d="m 67.285902,838.22195 c -1.5307,-1.53075 -1.6134,-5.47277 -0.1711,-8.16761 0.7973,-1.48983 0.7384,-2.00853 -0.2282,-2.00853 -2.0634,0 -6.8801,-6.18063 -10.2308,-13.12824 -5.5152,-11.43485 -3.9671,-26.27056 3.8043,-36.45947 3.50791,-7.62436 10.173706,-13.9289 14.406,-20.01489 5.2423,-7.56989 16.720499,-23.05996 30.207098,-40.76488 5.7629,-7.56537 11.7324,-15.61611 13.2656,-17.89073 3.1062,-4.60791 3.0404,-4.51971 33.0285,-44.23698 39.7186,-52.60463 42.6757,-56.46559 43.8343,-57.23087 0.6353,-0.41957 0.7172,-0.77006 0.1821,-0.77877 -0.5352,-0.0105 0.1786,-1.30087 1.5862,-2.87143 3.91414,-4.04483 6.36758,-8.78274 10.511,-12.54708 0.4494,-0.19046 0.8194,-0.89138 0.822,-1.55759 6.76632,-6.9 13.96303,-21.10193 20.8129,-27.6902 0.313,-0.28554 1.6722,-2.1546 3.0202,-4.15351 1.3481,-1.9989 3.8705,-5.15299 5.6052,-7.00909 1.7348,-1.8561 2.7993,-3.37474 2.3658,-3.37474 -0.4335,0 0.8726,-1.75226 2.9024,-3.89389 2.03,-2.14171 3.6949,-4.13308 3.6998,-4.42543 0,-0.29228 3.5443,-5.19863 7.8651,-10.90299 20.1439,-26.59399 22.5623,-29.99895 21.5469,-30.33746 -1.3795,-0.4599 -9.2513,-5.66739 -13.2573,-8.77028 -1.6854,-1.30545 -2.6756,-1.74448 -2.2004,-0.97567 0.4751,0.76883 -4.3895,-3.91324 -10.8103,-10.40468 -13.2857,-13.43177 -20.8504,-23.01354 -26.7392,-33.86899 -2.2463,-4.14106 -4.4712,-7.17833 -4.9438,-6.74948 -0.4728,0.42875 -0.532,0.20924 -0.1316,-0.48783 0.4005,-0.69717 0.064,-2.56626 -0.7468,-4.15353 -2.4688,-4.83024 -5.8786,-20.06153 -5.8786,-26.2589 0,-10.09276 4.951,-22.53922 10.6608,-26.80011 1.009,-0.75293 1.5209,-1.87656 1.1375,-2.4968 -0.3833,-0.62032 -0.2356,-0.84264 0.3284,-0.49405 0.5639,0.34848 2.6221,-0.42802 4.5735,-1.72559 7.0581,-4.69317 24.5922,-6.10412 39.0018,-3.1384 7.4832,1.54013 22.8843,7.18352 27.5415,10.09203 1.5562,0.97193 2.6939,0.7901 5.8133,-0.92925 2.1331,-1.17576 3.7672,-2.67747 3.6312,-3.33725 -0.1359,-0.65979 0.3828,-0.95791 1.1527,-0.66249 0.7698,0.29542 2.8175,-0.65595 4.5505,-2.11415 1.7329,-1.4582 3.4743,-2.6513 3.8696,-2.6513 1.7272,0 9.756,-6.6365 9.1719,-7.58153 -0.3557,-0.57547 -0.1836,-0.7602 0.3823,-0.41037 2.2405,1.38468 37.65,-32.19163 62.114,-58.89817 5.7111,-6.23462 13.6923,-14.87892 17.736,-19.20956 8.6091,-9.22002 14.4014,-15.6282 19.2617,-21.30982 26.4327,-30.73967 58.83276,-70.16084 85.3048,-92.99818 0.4775,0 0.644,-0.36284 0.3699,-0.80629 -0.274,-0.44345 2.4742,-0.93976 6.1071,-1.10292 4.9159,-0.22077 7.3515,0.17325 9.5229,1.54055 4.0752,2.5662 8.0675,6.00247 8.3325,7.17178 0.1227,0.54161 1.4019,3.84491 2.8427,7.34067 4.9995,12.13007 6.1626,18.60817 6.2229,34.66015 0.059,15.68747 -1.0299,21.56162 -5.6927,30.70754 -1.88325,6.59002 -4.21396,8.1733 -8.8326,14.58797 -1.6888,2.35368 -6.4455,8.66185 -10.5705,14.01815 -13.5256,22.61913 -18.65792,22.85829 -29.9006,39.43639 -3.8724,5.74299 -7.555,11.00923 -8.1837,11.70274 -0.6285,0.6935 -1.6101,1.99905 -2.1812,2.90122 -0.5712,0.90217 -3.1411,4.55908 -5.7111,8.12644 -2.57,3.56747 -5.1411,7.24863 -5.7136,8.18048 -0.5723,0.93194 -3.1424,4.67469 -5.7111,8.31722 -2.5686,3.64265 -5.1375,7.36763 -5.7086,8.27798 -0.5711,0.91025 -3.7252,5.66032 -7.0091,10.55578 -3.2839,4.89545 -5.9707,10.05329 -5.9707,11.46196 0,2.39669 -4.3083,8.25099 -6.072,8.25099 -1.1708,0 -10.8882,13.50653 -10.8882,15.13378 0,0.76394 -0.3324,1.18355 -0.7386,0.93247 -5.48053,8.96743 -14.02388,17.56272 -19.1637,23.97924 -1.9989,2.43937 -3.6344,4.69338 -3.6344,5.00884 0,0.31557 -3.7638,5.84412 -8.364,12.28582 -4.6002,6.44171 -12.4271,17.46931 -17.3929,24.50591 -4.9659,7.03648 -10.7811,15.08311 -12.9228,17.88145 -2.1417,2.79844 -3.8939,5.37352 -3.8939,5.72252 0,0.349 -1.6755,2.67913 -3.723,5.1781 -2.2905,2.79511 -3.4251,5.06003 -2.9487,5.88586 0.4259,0.73829 0.4101,1.01408 -0.035,0.61295 -1.0564,-0.95199 -2.4769,0.54484 -7.097,7.47884 -5.0719,7.61218 -10.7925,15.83532 -11.9646,17.19872 -5.28037,8.11224 -11.07725,16.30487 -17.2678,23.95992 -1.459,1.79161 -2.6528,3.70513 -2.6528,4.25218 0,0.54692 -0.9346,1.84019 -2.0768,2.87392 -1.1422,1.03372 -2.0767,2.32372 -2.0767,2.86658 0,0.54292 -1.0514,2.28091 -2.3364,3.86214 -1.285,1.58117 -3.1267,3.98497 -4.0927,5.34176 -0.9659,1.35685 -2.9343,4.1023 -4.3741,6.10121 -3.7739,5.23883 -10.0251,14.10297 -15.0123,21.28682 -2.3788,3.42666 -7.353,10.43575 -11.054,15.57571 -3.7008,5.14003 -7.6258,10.9809 -8.722,12.97981 -1.0963,1.99883 -2.8656,4.56888 -3.9317,5.71111 -1.0661,1.14222 -3.5599,4.41312 -5.5419,7.26864 -1.9819,2.85558 -3.8708,5.42557 -4.1976,5.7111 -0.3267,0.28554 -2.8967,3.98563 -5.7111,8.22242 -2.8144,4.23679 -6.3398,9.54437 -7.8344,11.79477 -1.4946,2.25026 -3.177,4.39111 -3.7385,4.75732 -0.5616,0.36627 -1.607,1.77766 -2.3232,3.13634 -1.2727,2.41468 -11.3803,17.00767 -13.5815,19.60849 -0.6103,0.72128 -3.6846,5.16039 -6.8314,9.86461 -3.1469,4.70428 -6.861,9.83423 -8.2537,11.39988 -1.3925,1.56558 -2.532,3.08835 -2.532,3.38391 0,0.29549 -3.154,4.91289 -7.009,10.26067 -3.855,5.34784 -7.71,10.76195 -8.5667,12.03139 -0.8566,1.26944 -5.4802,7.75394 -10.2747,14.40986 -4.7945,6.65598 -9.8907,13.9605 -11.3249,16.2323 -1.4343,2.27161 -3.2399,4.7625 -4.0126,5.53517 -0.7726,0.77268 -1.1321,1.84596 -0.7989,2.38515 0.3333,0.53925 0.1468,0.85203 -0.4142,0.69508 -1.1795,-0.32986 -4.3994,3.9764 -10.6566,14.252 -2.4344,3.99781 -5.3258,8.28547 -6.4253,9.5282 -1.1493,1.2989 -1.664,2.80176 -1.2107,3.53515 0.4335,0.70164 0.3648,1.01389 -0.153,0.69385 -0.5178,-0.31992 -3.0431,1.90049 -5.612,4.93443 -2.5687,3.03381 -5.7313,6.1111 -7.0278,6.83833 -1.6027,0.89892 -2.0182,1.66131 -1.298,2.38154 1.6231,1.62308 1.2588,5.53721 -0.5809,6.24316 -1.2238,0.46959 -1.4665,1.42076 -0.9559,3.74547 0.4604,2.09606 0.2812,3.11598 -0.5475,3.11598 -0.6777,0 -0.9734,-0.67381 -0.6575,-1.49749 0.4476,-1.16619 -0.2746,-1.43346 -3.2636,-1.2079 -2.111,0.15917 -4.3055,0.42114 -4.8766,0.58201 -2.1988,0.61947 -3.5458,-0.0144 -3.0082,-1.41512 0.4602,-1.19944 -0.2444,-1.1582 -3.9266,0.22956 -3.1729,1.19591 -7.985699,1.70014 -16.428799,1.72135 -11.111999,0.0282 -12.072899,0.1923 -13.833999,2.36635 -2.0842,2.57299 -4.8026,3.01371 -6.7259,1.0903 z M 114.8438,824.47274 c 0,-0.25182 -0.4673,-0.74668 -1.0384,-1.09966 -0.5711,-0.35291 -1.0383,-0.14693 -1.0383,0.45794 0,0.60486 0.4672,1.09966 1.0383,1.09966 0.5711,0 1.0384,-0.20605 1.0384,-0.45794 z m -13.1312,-8.41609 c 12.04708,-6.13661 19.47506,-18.31084 27.1291,-26.34448 2.3289,-2.42521 5.0339,-6.17245 19.1778,-26.5652 11.11651,-15.55541 19.70168,-28.73453 29.9059,-42.15282 2.9984,-3.93888 5.29694,-7.4207 5.4516,-7.61985 6.57231,-8.46253 13.24021,-17.18304 16.8396,-23.26012 0.24761,-0.41806 0.8129,-0.77052 0.8129,-1.28908 15.33026,-22.31856 29.04307,-42.23696 43.7529,-61.83964 5.6336,-7.49799 10.2428,-13.92232 10.2428,-14.27641 0,-0.35423 3.6214,-5.57309 8.0475,-11.59769 4.4261,-6.0246 8.5148,-11.75895 9.0858,-12.74304 1.5812,-2.72457 5.9969,-8.84483 7.4942,-10.38704 0.7326,-0.75467 1.3321,-1.77269 1.3321,-2.26218 0,-0.4895 0.5841,-1.50758 1.298,-2.26225 14.72692,-22.21377 34.86366,-44.84398 48.0369,-67.56893 l 1.5991,-2.85555 -8.0741,-0.0104 c -7.9356,-0.0104 -21.9759,-2.7135 -29.5921,-5.70404 l -3.8655,-1.51781 -5.48,7.02549 c -3.0139,3.86403 -5.9472,7.77613 -6.5182,8.69354 -0.5712,0.91751 -5.2137,7.20938 -10.3166,13.98205 -5.103,6.77259 -11.3135,15.11745 -13.801,18.54411 -7.8527,10.81715 -21.5541,28.66179 -28.6277,37.28433 -1.83,2.23088 -5.3257,6.90361 -7.7681,10.38383 -4.6245,6.58966 -10.756,15.05931 -15.584,21.52712 -3.8834,5.20229 -18.3314,24.40589 -24.6256,32.7311 -9.1069,12.04567 -10.8037,14.3161 -12.6817,16.96832 -1.0108,1.42776 -5.557,7.50231 -10.1025,13.49896 -9.6347,12.71044 -17.745,23.53263 -19.844,26.4787 -6.4544,9.05972 -22.5198,30.74018 -24.728,33.37079 -1.504,1.79167 -2.7346,3.53869 -2.7346,3.88231 0,0.34361 -2.2195,3.48329 -4.9323,6.97713 -2.712699,3.49384 -6.801399,9.02332 -9.085799,12.28754 -6.888,9.84254 -11.218199,15.69756 -15.328999,20.72739 -2.1488,2.62898 -3.6841,5.36009 -3.4121,6.069 0.2721,0.70903 -0.012,1.17784 -0.6329,1.04191 -1.7928,-0.39292 -6.068,8.53755 -6.0494,12.63639 0.011,2.0518 1.0743,5.59966 2.3665,7.8841 2.6293,4.6485 11.6836,11.21871 14.490199,10.51485 0.9995,-0.25064 1.8172,-0.0924 1.8172,0.35265 0,1.6712 9.0523,0.0872 14.905099,-2.60822 z M 232.87,556.89579 c -166.532179,354.61819 -83.26609,177.30909 0,0 z M 369.4077,450.8537 c 6.7135,-9.01876 18.7731,-26.69025 18.3278,-26.8567 -0.1741,-0.0654 -1.5987,-0.2705 -3.1659,-0.45648 -1.567,-0.18597 -7.9008,-1.08158 -14.075,-1.99036 -6.1742,-0.90869 -12.602,-1.62383 -14.2841,-1.58925 -1.682,0.0342 -4.599,-0.24091 -6.4822,-0.61234 l -3.424,-0.67525 3.219,4.7696 c 4.7271,7.00429 10.3469,19.71554 12.3012,27.82364 0.9414,3.90546 1.7719,7.10408 1.8454,7.10813 0.074,0 2.6557,-3.38045 5.7378,-7.52099 z m -9.7871,-33.59892 c -0.3451,-0.34505 -1.2407,-0.38192 -1.9903,-0.082 -0.8283,0.33146 -0.5823,0.57755 0.6274,0.62739 1.0945,0.0447 1.7079,-0.2003 1.3629,-0.54536 z m 36.5515,-3.3896 c 6.07412,-5.60671 10.05444,-13.42886 11.5988,-17.98435 0.7135,-1.33172 0.5021,-1.76244 -0.8802,-1.79287 -1.0006,-0.0218 -4.8565,-0.50829 -8.5687,-1.08044 -3.7122,-0.57225 -11.8116,-1.6774 -17.9987,-2.45587 l -11.2491,-1.41553 -6.3391,8.17789 c -6.2803,8.10218 -7.6913,11.47172 -5.5165,13.17373 0.6191,0.48462 3.9293,1.193 7.356,1.57429 11.6985,1.30192 16.6135,1.92849 21.2868,2.71381 7.6095,1.27867 9.2149,1.13693 10.3107,-0.91076 z m -27.9632,-21.88139 c 0,-0.53737 0.4619,-1.26257 1.0264,-1.61147 0.5887,-0.36375 0.7627,0.053 0.4082,0.97712 -0.6903,1.79889 -1.4346,2.12805 -1.4346,0.63435 z m 38.1605,-4.93055 c -0.9995,-0.26116 -2.6349,-0.26116 -3.6343,0 -0.9994,0.26115 -0.1817,0.47485 1.8171,0.47485 1.9989,0 2.8166,-0.2137 1.8172,-0.47485 z m -7.2565,-1.0361 c -0.9928,-0.25991 -2.8619,-0.26925 -4.1536,-0.0208 -1.2917,0.24838 -0.4794,0.46105 1.8051,0.47257 2.2844,0.0114 3.3412,-0.19168 2.3485,-0.45159 z m -11.6939,-1.41106 c -2.8556,-0.44474 -6.5938,-0.78325 -8.3071,-0.75231 -2.5993,0.0467 -2.4274,0.17954 1.0384,0.80008 2.2844,0.40901 6.0226,0.74753 8.3071,0.7523 3.943,0.0104 3.8903,-0.0322 -1.0384,-0.80007 z m 29.7181,-1.7694 c 1.3993,-1.57055 2.6948,-3.32282 2.8789,-3.89393 1.1685,-3.62593 4.6341,-9.02353 6.1295,-9.54657 2.8266,-0.98854 5.3565,-4.74011 5.3815,-7.98007 0.025,-3.25294 -4.2923,-17.35758 -7.3492,-24.00863 -1.05,-2.28444 -3.5926,-8.82624 -5.6504,-14.53733 -2.0576,-5.7111 -4.1748,-10.82773 -4.7047,-11.37028 -0.5299,-0.54256 -0.9634,-1.82756 -0.9634,-2.85555 0,-1.02799 -0.4949,-1.86908 -1.0997,-1.86908 -0.6048,0 -0.8108,-0.46728 -0.4579,-1.03839 0.353,-0.5711 0.1841,-1.03837 -0.3752,-1.03837 -0.5592,0 -5.1029,5.49043 -10.0968,12.20097 -4.994,6.71054 -10.4675,14.00382 -12.1635,16.20727 -2.4754,3.21638 -2.7998,4.18561 -1.646,4.91632 0.7904,0.5006 1.9398,0.91741 2.5541,0.92613 4.72738,1.34645 12.45919,8.89765 13.0593,12.73606 0.087,0.71389 0.2337,1.99888 0.3261,2.85555 0.092,0.85667 -0.6784,3.28845 -1.7126,5.40384 -1.51,3.08877 -2.638,3.98843 -5.7276,4.56805 -2.1159,0.39697 -4.7755,1.58654 -5.9101,2.64361 -1.1345,1.05698 -3.4261,1.92184 -5.0923,1.92184 -2.0504,0 -3.7491,0.90682 -5.2558,2.80571 -2.0122,2.53614 -5.0311,8.39905 -4.5124,8.76384 0.3919,0.27558 34.4631,4.77967 37.16,4.91247 1.7319,0.0852 3.5864,-0.88085 5.2282,-2.72346 z m -45.2939,-0.25959 c -1.7133,-0.43592 -4.2833,-0.81514 -5.7111,-0.84255 -2.3556,-0.0457 -2.4036,0.0332 -0.5192,0.84255 1.1423,0.49084 3.7122,0.86995 5.7111,0.84253 l 3.6344,-0.0498 -3.1152,-0.7927 z m -12.8473,-4.93232 c 1.2915,-1.64687 1.2549,-1.68363 -0.3921,-0.39199 -1.7297,1.35644 -2.2797,2.20916 -1.4251,2.20916 0.2156,0 1.0334,-0.81773 1.8172,-1.81717 z m 6.6947,-7.33097 c 0.4242,-0.96518 0.6855,-2.14 0.5807,-2.61081 -0.1049,-0.4708 0.2203,-0.60205 0.7226,-0.29157 1.7167,1.06102 5.1077,-3.97482 5.1705,-7.67873 l 0.062,-3.63434 -2.4724,4.08271 c -1.3599,2.24539 -2.1915,4.5371 -1.8481,5.09274 0.3434,0.55554 0.1262,0.70216 -0.4828,0.32595 -0.6251,-0.38649 -2.5062,1.58997 -4.3224,4.54178 -3.0756,4.99846 -3.106,5.15422 -0.6984,3.5766 1.3846,-0.90723 2.8645,-2.43916 3.2887,-3.40433 z m 77.7803,-22.30226 c 1.7021,-2.40562 4.7587,-6.71013 6.7925,-9.56567 4.7745,-12.49404 15.29625,-21.69847 20.6665,-29.30796 12.4105,-17.77186 14.8046,-20.88161 19.9032,-25.85248 3.22993,-17.33969 -10.11545,-43.25101 -16.1778,-60.42199 -17.46718,22.85938 -34.8141,44.31191 -53.0674,66.71908 -2.7302,3.34007 -3.0951,6.14692 -1.3823,10.63524 0.6135,1.60773 1.3157,4.47512 1.5607,6.37199 0.2448,1.89686 1.0053,4.46685 1.6901,5.71109 0.6846,1.24423 1.3417,2.72953 1.46,3.30064 0.4932,2.38098 7.7926,22.98872 8.7302,24.64743 0.5605,0.99176 1.0192,2.74859 1.0192,3.90411 0,1.15561 0.9345,2.90124 2.0767,3.87919 1.1423,0.97804 2.0768,2.37529 2.0768,3.10507 0,2.34903 1.484,1.35197 4.6522,-3.12574 z m 13.7332,-12.16163 c -316.08825,501.98211 -158.04412,250.99105 0,0 z m 0.3446,-2.67934 c -371.140149,541.9055 -192.59751,280.81252 0,0 z m 58.3786,-85.32065 c -1.872,-0.62399 -7.51957,-20.96503 -9.95997,-28.63447 -4.4428,-13.96204 -7.04863,-11.78288 -7.64643,-18.09558 -0.338,-3.56944 -0.8975,-6.48954 -1.2433,-6.48912 -0.3457,4.2e-4 -3.8173,3.95349 -7.7145,8.78461 l -7.086,8.78385 c 3.20785,10.23949 4.28028,25.02192 7.8726,32.89235 0.8187,1.65829 2.4142,6.51962 3.5455,10.80294 1.1313,4.28333 2.843,9.63319 3.8037,11.8886 l 1.7467,4.10072 3.4803,-4.02722 c 0.0264,-2.30395 15.46162,-18.82898 13.2014,-20.00668 z m 12.3711,-20.44069 c 3.0261,-11.4768 2.2583,-24.6703 -2.2931,-39.40605 -2.6069,-8.43988 -6.3045,-13.10244 -10.391,-13.10244 -2.3136,0 -3.7837,1.05885 -6.611,4.76158 l -3.6357,4.76159 4.141,7.63421 c 2.2775,4.19882 3.07359,12.87555 4.23819,16.19507 2.8207,8.03947 9.24821,24.8864 8.52331,26.05929 -0.317,0.51283 -0.2584,2.19086 0.13,3.72896 l 0.7063,2.79653 1.647,-3.11515 c 0.9059,-1.71332 2.5012,-6.35444 3.545,-10.31359 z" transform="matrix(1.097 0 0 1.097 -48.09 -64.912)"/></g></svg>