<svg xmlns="http://www.w3.org/2000/svg" xmlns:xlink="http://www.w3.org/1999/xlink" width="1024" height="1024"><defs><linearGradient id="c"><stop offset="0" stop-color="#ff4d1f"/><stop offset="1" stop-color="#831500"/></linearGradient><linearGradient><stop offset="0" stop-color="#a57400" stop-opacity="0"/><stop offset="1" stop-opacity=".3"/></linearGradient><linearGradient id="a"><stop offset="0" stop-color="#fff71f"/><stop offset="1" stop-color="#ff8d00"/></linearGradient><radialGradient xlink:href="#a" cx="157.371" cy="306.106" fx="157.371" fy="306.106" r="54.949" gradientTransform="matrix(1 0 0 1.015 0 -4.504)" gradientUnits="userSpaceOnUse"/><radialGradient xlink:href="#a" cx="167.074" cy="295.735" fx="167.074" fy="295.735" r="65.145" gradientTransform="matrix(1 0 0 .845 0 45.964)" gradientUnits="userSpaceOnUse" spreadMethod="reflect"/><radialGradient xlink:href="#a" gradientUnits="userSpaceOnUse" gradientTransform="matrix(1 0 0 1.015 0 -4.504)" cx="157.371" cy="306.106" fx="157.371" fy="306.106" r="54.949"/><radialGradient xlink:href="#a" gradientUnits="userSpaceOnUse" gradientTransform="matrix(1 0 0 .845 0 45.964)" spreadMethod="reflect" cx="167.074" cy="295.735" fx="167.074" fy="295.735" r="65.145"/><radialGradient xlink:href="#b" cx="167.074" cy="295.735" fx="167.074" fy="295.735" r="65.145" gradientTransform="matrix(1 0 0 .845 0 45.964)" gradientUnits="userSpaceOnUse" spreadMethod="reflect"/><linearGradient id="b"><stop offset="0" stop-color="#fff71f"/><stop offset="1" stop-color="#ff8d00"/></linearGradient><linearGradient><stop offset="0" stop-color="#fff71f"/><stop offset="1" stop-color="#ff8d00"/></linearGradient><linearGradient><stop offset="0" stop-color="#fff71f"/><stop offset="1" stop-color="#ff8d00"/></linearGradient><radialGradient xlink:href="#b" gradientUnits="userSpaceOnUse" gradientTransform="matrix(1 0 0 .845 0 45.964)" spreadMethod="reflect" cx="167.074" cy="295.735" fx="167.074" fy="295.735" r="65.145"/><linearGradient><stop offset="0" stop-color="#fff71f"/><stop offset="1" stop-color="#ff8d00"/></linearGradient><radialGradient r="65.145" fy="295.735" fx="167.074" cy="295.735" cx="167.074" spreadMethod="reflect" gradientTransform="matrix(1 0 0 .845 0 45.964)" gradientUnits="userSpaceOnUse" xlink:href="#b"/><radialGradient xlink:href="#c" cx="-1510" cy="339.714" fx="-1510" fy="339.714" r="404.286" gradientUnits="userSpaceOnUse"/><radialGradient xlink:href="#c" gradientUnits="userSpaceOnUse" cx="-1510" cy="339.714" fx="-1510" fy="339.714" r="404.286"/><radialGradient xlink:href="#b" gradientUnits="userSpaceOnUse" gradientTransform="matrix(1 0 0 .845 0 45.964)" spreadMethod="reflect" cx="167.074" cy="295.735" fx="167.074" fy="295.735" r="65.145"/><radialGradient xlink:href="#b" gradientUnits="userSpaceOnUse" gradientTransform="matrix(1 0 0 .845 0 45.964)" spreadMethod="reflect" cx="167.074" cy="295.735" fx="167.074" fy="295.735" r="65.145"/></defs><path d="m 165.12428,1029.1679 c -2.21748,-2.2175 -2.3373,-7.9282 -0.24787,-11.8322 1.15502,-2.1583 1.0697,-2.9098 -0.33059,-2.9098 -2.98919,0 -9.96702,-8.9536 -14.82108,-19.01837 -7.98972,-16.5654 -5.74703,-38.05745 5.51119,-52.81784 5.08181,-11.04521 14.73836,-20.17842 20.86958,-28.99502 7.59436,-10.9663 24.22253,-33.40635 43.76019,-59.05498 8.34856,-10.95976 16.99642,-22.62264 19.21752,-25.91782 4.49988,-6.67536 4.40456,-6.54759 47.84749,-64.08491 57.53927,-76.2069 61.82312,-81.80017 63.50155,-82.9088 0.92036,-0.60783 1.03901,-1.11557 0.26382,-1.1282 -0.77533,-0.0152 0.25874,-1.88453 2.29789,-4.15976 5.67031,-5.85963 9.22453,-12.72332 15.227,-18.17661 0.65104,-0.27591 1.18704,-1.29131 1.19081,-2.25644 9.80218,-9.99584 20.22786,-30.5698 30.15107,-40.11404 0.45344,-0.41365 2.42247,-3.12131 4.37529,-6.01708 1.95296,-2.89575 5.60708,-7.465 8.12009,-10.15387 2.51317,-2.68889 4.05529,-4.88891 3.42728,-4.88891 -0.62801,0 1.26412,-2.53844 4.20463,-5.64097 2.94082,-3.10263 5.35271,-5.98747 5.3598,-6.411 0,-0.42342 5.13453,-7.5311 11.39395,-15.79486 29.18192,-38.52598 32.6854,-43.45866 31.21442,-43.94906 -1.99846,-0.66625 -13.4021,-8.21019 -19.2055,-12.70526 -2.44159,-1.89118 -3.87607,-2.52718 -3.18765,-1.41343 0.68826,1.11378 -6.35896,-5.66901 -15.66059,-15.07298 -19.24663,-19.45825 -30.20541,-33.33909 -38.73636,-49.06508 -3.25415,-5.99904 -6.47731,-10.39905 -7.16195,-9.7778 -0.68493,0.62113 -0.7707,0.30314 -0.19064,-0.70669 0.58021,-1.00998 0.0927,-3.71767 -1.08187,-6.01711 -3.57649,-6.99745 -8.51617,-29.0626 -8.51617,-38.04055 0,-14.62112 7.17237,-32.65197 15.44401,-38.8246 1.46172,-1.09075 2.20329,-2.71852 1.64787,-3.61705 -0.55528,-0.89863 -0.34131,-1.22071 0.47575,-0.71571 0.81689,0.50482 3.79856,-0.62006 6.6255,-2.49982 10.22487,-6.79887 35.62606,-8.84287 56.50085,-4.54651 10.84071,2.23114 33.15186,10.40656 39.89862,14.62004 2.25443,1.40802 3.90258,1.14459 8.42157,-1.34618 3.09018,-1.70328 5.45744,-3.87877 5.26042,-4.83458 -0.19688,-0.95582 0.55455,-1.3877 1.66989,-0.95974 1.11519,0.42797 4.08163,-0.95025 6.59218,-3.06271 2.51041,-2.11245 5.03313,-3.84086 5.60579,-3.84086 2.50215,0 14.13325,-9.61412 13.28709,-10.98315 -0.5153,-0.83367 -0.26599,-1.10129 0.55381,-0.5945 3.24575,2.00594 54.54255,-46.63513 89.98287,-85.32417 8.27352,-9.03192 19.83567,-21.5547 25.69367,-27.82838 12.47175,-13.35679 20.86292,-22.64014 27.9039,-30.87094 38.29234,-44.53173 85.22942,-101.640116 123.57876,-134.72395 0.69173,0 0.93294,-0.525636 0.53585,-1.168046 -0.39694,-0.64241 3.58431,-1.361408 8.84719,-1.597775 7.12154,-0.319829 10.64992,0.250987 13.79556,2.231757 5.90365,3.717586 11.68717,8.695623 12.07107,10.389572 0.17776,0.784611 2.03089,5.570015 4.11814,10.634214 7.24265,17.572502 8.9276,26.957162 9.01496,50.211228 0.0855,22.72601 -1.49199,31.23572 -8.24686,44.48517 -2.72822,9.54679 -6.10465,11.84043 -12.79555,21.1332 -2.44651,3.40971 -9.33743,12.54818 -15.31319,20.30771 -19.59418,32.76772 -27.02923,33.11418 -43.3162,57.13042 -5.60984,8.31972 -10.94472,15.94878 -11.8555,16.95345 -0.91049,1.00465 -2.33251,2.89597 -3.15984,4.20292 -0.82749,1.30695 -4.55044,6.60462 -8.27352,11.77256 -3.7231,5.16809 -7.44778,10.50088 -8.27713,11.85082 -0.82907,1.35008 -4.55232,6.77211 -8.27353,12.04893 -3.72106,5.27702 -7.44255,10.6733 -8.2699,11.99209 -25.26181,37.7545 -46.43939,67.11408 -72.20517,101.86231 -2.89576,3.53385 -5.26508,6.79917 -5.26508,7.25616 0,0.45717 -5.45249,8.46623 -12.11668,17.79815 -6.66419,9.33192 -18.00282,25.3073 -25.19663,35.50104 -7.19396,10.19355 -15.61829,21.8505 -18.7209,25.90437 -3.10263,4.05401 -5.64099,7.78448 -5.64099,8.29005 0,0.5056 -2.42726,3.88118 -5.3934,7.50139 -3.3182,4.04919 -4.96185,7.33033 -4.27171,8.52668 0.61699,1.06954 0.59408,1.46907 -0.0507,0.88796 -1.53037,-1.37911 -3.58821,0.7893 -10.28124,10.83439 -7.34752,11.02757 -15.6348,22.9402 -17.33278,24.91532 -7.64953,11.75199 -16.04732,23.62043 -25.0154,34.7101 -2.11362,2.59544 -3.84304,5.36751 -3.84304,6.16001 0,0.79231 -1.35392,2.66583 -3.0086,4.16337 -1.65468,1.49752 -3.00846,3.36631 -3.00846,4.15273 0,0.78652 -1.52313,3.3043 -3.38467,5.59498 -1.86154,2.2906 -4.52958,5.77293 -5.929,7.73846 -1.39926,1.96563 -4.25083,5.9429 -6.33662,8.83866 -5.46716,7.58937 -14.5231,20.43059 -21.74792,30.83764 -3.44611,4.96411 -10.65209,15.118 -16.01363,22.56411 -5.36125,7.44622 -11.04729,15.90773 -12.63532,18.8035 -1.58819,2.89565 -4.15133,6.6188 -5.69576,8.27353 -1.54443,1.65471 -5.15713,6.39317 -8.02839,10.52988 -2.87113,4.13681 -5.60752,7.85988 -6.08095,8.27352 -0.47328,0.41365 -4.19637,5.77388 -8.27352,11.91159 -4.07714,6.13773 -9.1843,13.82668 -11.34949,17.08676 -2.16517,3.2599 -4.60243,6.36129 -5.41585,6.89181 -0.81357,0.53061 -2.32804,2.57526 -3.36556,4.54353 -1.84372,3.49807 -16.48634,24.63855 -19.67516,28.40629 -0.88412,1.0449 -5.33778,7.47571 -9.89646,14.29059 -4.55882,6.81496 -9.93934,14.24659 -11.95691,16.5147 -2.01727,2.268 -3.66804,4.474 -3.66804,4.90217 0,0.42807 -4.56911,7.11717 -10.15374,14.86436 -5.58463,7.74727 -11.16928,15.59055 -12.41035,17.42955 -1.24094,1.839 -7.93902,11.23292 -14.88467,20.87518 -6.94567,9.64233 -14.32839,20.22419 -16.40609,23.51528 -2.07783,3.29082 -4.69356,6.89931 -5.81293,8.01865 -5.92418,10.09314 -12.29471,17.0911 -17.19534,25.10873 -3.52663,5.79152 -7.7469,11.78189 -9.30815,13.80326 -5.23898,7.23079 -5.82126,7.77423 -10.1055,13.2748 -3.72121,4.3949 -8.30278,8.85297 -10.18098,9.90637 -2.32179,1.3023 -2.92371,2.4067 -1.88037,3.4502 2.35134,2.3513 1.82359,8.0215 -0.84155,9.0444 -1.77288,0.6802 -2.12446,2.0582 -1.38477,5.4258 0.66696,3.0365 0.40735,4.5142 -0.79316,4.5142 -0.98177,0 -1.41014,-0.9762 -0.9525,-2.1695 0.64842,-1.6894 -0.3978,-2.0767 -4.72789,-1.7498 -3.05814,0.2305 -6.23726,0.61 -7.0646,0.8432 -3.18534,0.8973 -5.1367,-0.022 -4.3579,-2.0502 0.66668,-1.7377 -0.35405,-1.6778 -5.68835,0.3325 -4.59651,1.7325 -11.56868,2.463 -23.79996,2.4938 -16.09766,0.041 -17.48968,0.2785 -20.04094,3.4279 -3.01933,3.7276 -6.95739,4.366 -9.74362,1.5796 z m 68.89583,-19.9181 c 0,-0.3649 -0.67697,-1.0817 -1.5043,-1.593 -0.82734,-0.5112 -1.50415,-0.2128 -1.50415,0.6633 0,0.8763 0.67681,1.5931 1.50415,1.5931 0.82733,0 1.5043,-0.2985 1.5043,-0.6634 z m -19.02282,-12.19207 c 17.45229,-8.8899 28.21301,-26.52645 39.30119,-38.16457 3.37383,-3.51334 7.29247,-8.94186 27.78237,-38.48429 49.7258,-67.14301 92.30528,-133.01014 140.17778,-197.25348 8.16125,-10.86214 14.83848,-20.16889 14.83848,-20.68185 0,-0.51317 5.24622,-8.07359 11.65819,-16.80126 6.41197,-8.72767 12.33516,-17.03488 13.16234,-18.4605 2.29066,-3.947 8.68756,-12.81326 10.85665,-15.04742 1.06129,-1.09327 1.92979,-2.56805 1.92979,-3.27716 0,-0.70912 0.84616,-2.18397 1.88037,-3.27726 21.33449,-32.18048 50.50604,-64.96425 69.58975,-97.88527 l 2.31657,-4.13676 -11.69672,-0.0151 c -11.49609,-0.015 -31.8359,-3.93097 -42.86928,-8.26328 l -5.59984,-2.19882 -7.93872,10.17765 c -4.36617,5.59771 -8.61555,11.26506 -9.44275,12.59409 -0.82748,1.32918 -7.55293,10.44403 -14.94538,20.25541 -7.39257,9.81128 -16.38954,21.90025 -19.99314,26.86436 -11.376,15.67051 -31.22483,41.52156 -41.47216,54.01279 -2.65107,3.23183 -7.7152,10.00107 -11.25344,15.04278 -6.69939,9.54625 -15.58193,21.81601 -22.57612,31.18574 -5.62577,7.53643 -26.55618,35.35615 -35.67444,47.41667 -13.19292,17.45022 -15.65102,20.73933 -18.37164,24.58155 -1.46431,2.06834 -8.05027,10.86838 -14.63521,19.55558 -13.95752,18.41326 -25.7067,34.09106 -28.74747,38.35897 -9.3503,13.12456 -32.62382,44.53246 -35.82278,48.34335 -2.1788,2.59556 -3.96153,5.1264 -3.96153,5.62421 0,0.49778 -3.21533,5.04615 -7.1453,10.10757 -3.92981,5.06142 -9.853,13.07184 -13.16235,17.80062 -9.97846,14.25862 -16.25151,22.74063 -22.20671,30.02722 -3.1129,3.80852 -5.33705,7.76501 -4.94301,8.79199 0.39419,1.02714 -0.0174,1.70631 -0.91686,1.50937 -2.59718,-0.56921 -8.79055,12.36813 -8.76361,18.30601 0.016,2.97238 1.55631,8.11218 3.42829,11.42148 3.80899,6.7343 16.92571,16.25228 20.99156,15.23258 1.44794,-0.36288 2.63252,-0.1337 2.63252,0.511 0,2.4208 13.11382,0.1267 21.59261,-3.77868 z M 405.00146,621.61839 c -241.25064,513.72571 -120.62532,256.86286 0,0 z m 197.79846,-153.6203 c 9.72567,-13.06523 27.19608,-38.66545 26.551,-38.90658 -0.25222,-0.0948 -2.316,-0.39187 -4.58635,-0.6613 -2.27008,-0.2694 -11.44569,-1.56684 -20.39009,-2.88336 -8.94439,-1.31639 -18.25617,-2.35241 -20.69298,-2.3023 -2.43666,0.0496 -6.66244,-0.34902 -9.39058,-0.88709 l -4.96026,-0.97822 4.66328,6.90959 c 6.848,10.14692 14.98927,28.56136 17.82041,40.30735 1.36377,5.65774 2.5669,10.29149 2.67339,10.29736 0.10722,0 3.84724,-4.89717 8.31218,-10.89545 z m 38.77288,-53.58426 c 8.7994,-8.1223 14.56557,-19.45404 16.80286,-26.05346 1.03362,-1.92923 0.72736,-2.55318 -1.27513,-2.59728 -1.44955,-0.0316 -7.03547,-0.73634 -12.41324,-1.5652 -5.37776,-0.829 -17.11115,-2.43 -26.07422,-3.55775 l -16.29627,-2.05063 -9.18328,11.84707 c -9.0981,11.73742 -11.14218,16.61878 -7.9916,19.08443 0.89686,0.70205 5.69226,1.72826 10.65642,2.28064 16.9473,1.88606 24.06754,2.79374 30.83762,3.93141 11.02367,1.85239 13.34937,1.64705 14.93684,-1.31939 z m 30.37141,-44.95015 c 2.02713,-2.27521 3.90389,-4.81369 4.1706,-5.64104 6.47429,-7.64356 6.18083,-7.35949 9.77248,-12.937 4.36709,-3.88245 7.06865,-9.57488 6.90319,-12.45337 -0.27045,-4.7048 -6.21815,-25.14544 -10.64659,-34.78066 -1.52111,-3.3094 -5.2045,-12.78632 -8.18557,-21.05983 -2.9808,-8.27351 -6.04794,-15.68584 -6.81559,-16.4718 -0.76765,-0.786 -1.39564,-2.64754 -1.39564,-4.13676 0,-1.48923 -0.71695,-2.70769 -1.59312,-2.70769 -0.87614,0 -1.17457,-0.67694 -0.66333,-1.50429 0.51136,-0.82734 0.26669,-1.50427 -0.54355,-1.50427 -0.8101,0 -7.39243,7.95385 -14.62697,17.67522 -7.23466,9.72139 -15.16398,20.28696 -17.62092,23.47904 -3.58605,4.65949 -4.05601,6.06358 -2.38452,7.12213 1.14503,0.72523 2.81015,1.32903 3.70005,1.34167 6.84843,1.95056 18.0493,12.88978 18.91866,18.45038 0.12597,1.03419 0.33854,2.89573 0.4724,4.13677 0.13328,1.24102 -0.98278,4.76387 -2.48099,7.82838 -2.18749,4.47462 -3.82159,5.77794 -8.29742,6.61762 -3.06525,0.57507 -6.91814,2.29838 -8.5618,3.82972 -1.64352,1.53122 -4.96331,2.78412 -7.37707,2.78412 -2.97036,0 -5.43123,1.31369 -7.61394,4.06456 -2.91502,3.67404 -7.28842,12.16748 -6.53699,12.69594 0.56773,0.39922 49.92577,6.92417 53.83267,7.11656 2.50896,0.12347 5.19553,-1.27607 7.57396,-3.9454 z m -84.22757,-7.52139 c 1.87095,-2.38578 1.81793,-2.43903 -0.56803,-0.56786 -2.50576,1.96504 -3.30254,3.20034 -2.06451,3.20034 0.31234,0 1.49706,-1.18462 2.63254,-2.63248 z m 9.69842,-10.62018 c 0.61452,-1.39822 0.99307,-3.10015 0.84125,-3.78221 -0.15197,-0.68203 0.31914,-0.87217 1.04681,-0.42238 2.48694,1.53708 7.39938,-5.7582 7.49037,-11.12398 l 0.0898,-5.26497 -3.5817,5.91453 c -1.97005,3.25284 -3.17476,6.57276 -2.67729,7.3777 0.49747,0.80479 0.18282,1.0172 -0.69941,0.4722 -0.90558,-0.5599 -3.63067,2.30335 -6.26176,6.57956 -4.45554,7.24113 -4.49958,7.46677 -1.01175,5.18131 2.00583,-1.31428 4.14972,-3.53354 4.76426,-4.93176 z m 112.67821,-32.30867 c 2.46579,-3.48497 6.89381,-9.72079 9.84012,-13.85752 6.91668,-18.09978 22.15926,-31.434 29.939,-42.45766 17.97875,-25.7456 21.44701,-30.25061 28.83322,-37.45179 4.67912,-25.11953 -14.65399,-62.65656 -23.43634,-87.53169 -25.30422,33.11576 -50.43424,64.19346 -76.87729,96.65412 -3.95518,4.83866 -4.4838,8.90487 -2.00252,15.40699 0.88877,2.32906 1.90602,6.48298 2.26095,9.23093 0.35463,2.74793 1.45634,6.47099 2.4484,8.27349 0.99177,1.80249 1.94369,3.95421 2.11506,4.78154 0.71448,3.44928 11.28894,33.30316 12.64722,35.70607 0.81196,1.43674 1.47647,3.98182 1.47647,5.65579 0,1.6741 1.35378,4.20294 3.00846,5.61967 1.65482,1.41686 3.0086,3.44101 3.0086,4.49822 0,3.40298 2.14984,1.95857 6.73952,-4.52816 z m 19.89492,-17.61823 c -457.90846,727.20789 -228.95423,363.60392 0,0 z m 0.49921,-3.88149 c -537.66067,785.04368 -279.01078,406.80549 0,0 z m 84.57149,-123.6017 c -2.71191,-0.90396 -10.8934,-30.37147 -14.42874,-41.48197 -6.43615,-20.22644 -10.21114,-17.06955 -11.07716,-26.21459 -0.48967,-5.17095 -1.30019,-9.401206 -1.80114,-9.400596 -0.50082,6e-4 -5.53001,5.727306 -11.17579,12.726016 l -10.2653,12.72492 c 4.64714,14.83367 6.20073,36.24858 11.40483,47.65026 1.18602,2.40231 3.49739,9.44479 5.13626,15.64993 1.63889,6.20513 4.11858,13.95533 5.51032,17.22268 l 2.53041,5.94061 5.04181,-5.83413 c 0.0383,-3.33768 22.39883,-27.27703 19.1245,-28.98313 z m 17.92168,-29.61188 c 4.38384,-16.62612 3.27154,-35.73919 -3.32194,-57.086456 -3.77655,-12.22663 -9.13317,-18.98115 -15.05318,-18.98115 -3.35164,0 -5.48134,1.533912 -9.57716,6.89796 l -5.26694,6.89798 5.99896,11.05948 c 3.29935,6.08273 4.45262,18.652456 6.13974,23.461346 4.08628,11.64657 13.39763,36.05226 12.34749,37.75141 -0.45922,0.74291 -0.37434,3.17382 0.18833,5.40202 l 1.0232,4.05126 2.38596,-4.51284 c 1.31236,-2.48203 3.62341,-9.20551 5.13554,-14.94101 z" fill="#ffbd00" transform="translate(0 -28.362)"/></svg>