<svg xmlns="http://www.w3.org/2000/svg" xmlns:xlink="http://www.w3.org/1999/xlink" width="1024" height="1024"><defs><linearGradient id="c"><stop offset="0" stop-color="#ff4d1f"/><stop offset="1" stop-color="#831500"/></linearGradient><linearGradient><stop offset="0" stop-color="#a57400" stop-opacity="0"/><stop offset="1" stop-opacity=".3"/></linearGradient><linearGradient id="a"><stop offset="0" stop-color="#fff71f"/><stop offset="1" stop-color="#ff8d00"/></linearGradient><radialGradient xlink:href="#a" cx="157.371" cy="306.106" fx="157.371" fy="306.106" r="54.949" gradientTransform="matrix(1 0 0 1.015 0 -4.504)" gradientUnits="userSpaceOnUse"/><radialGradient xlink:href="#a" cx="167.074" cy="295.735" fx="167.074" fy="295.735" r="65.145" gradientTransform="matrix(1 0 0 .845 0 45.964)" gradientUnits="userSpaceOnUse" spreadMethod="reflect"/><radialGradient xlink:href="#a" gradientUnits="userSpaceOnUse" gradientTransform="matrix(1 0 0 1.015 0 -4.504)" cx="157.371" cy="306.106" fx="157.371" fy="306.106" r="54.949"/><radialGradient xlink:href="#a" gradientUnits="userSpaceOnUse" gradientTransform="matrix(1 0 0 .845 0 45.964)" spreadMethod="reflect" cx="167.074" cy="295.735" fx="167.074" fy="295.735" r="65.145"/><radialGradient xlink:href="#b" cx="167.074" cy="295.735" fx="167.074" fy="295.735" r="65.145" gradientTransform="matrix(1 0 0 .845 0 45.964)" gradientUnits="userSpaceOnUse" spreadMethod="reflect"/><linearGradient id="b"><stop offset="0" stop-color="#fff71f"/><stop offset="1" stop-color="#ff8d00"/></linearGradient><linearGradient><stop offset="0" stop-color="#fff71f"/><stop offset="1" stop-color="#ff8d00"/></linearGradient><linearGradient><stop offset="0" stop-color="#fff71f"/><stop offset="1" stop-color="#ff8d00"/></linearGradient><radialGradient xlink:href="#b" gradientUnits="userSpaceOnUse" gradientTransform="matrix(1 0 0 .845 0 45.964)" spreadMethod="reflect" cx="167.074" cy="295.735" fx="167.074" fy="295.735" r="65.145"/><linearGradient><stop offset="0" stop-color="#fff71f"/><stop offset="1" stop-color="#ff8d00"/></linearGradient><radialGradient r="65.145" fy="295.735" fx="167.074" cy="295.735" cx="167.074" spreadMethod="reflect" gradientTransform="matrix(1 0 0 .845 0 45.964)" gradientUnits="userSpaceOnUse" xlink:href="#b"/><radialGradient xlink:href="#c" gradientUnits="userSpaceOnUse" cx="-1510" cy="339.714" fx="-1510" fy="339.714" r="404.286"/><radialGradient xlink:href="#b" gradientUnits="userSpaceOnUse" gradientTransform="matrix(1 0 0 .845 0 45.964)" spreadMethod="reflect" cx="167.074" cy="295.735" fx="167.074" fy="295.735" r="65.145"/><radialGradient xlink:href="#b" gradientUnits="userSpaceOnUse" gradientTransform="matrix(1 0 0 .845 0 45.964)" spreadMethod="reflect" cx="167.074" cy="295.735" fx="167.074" fy="295.735" r="65.145"/></defs><path d="m 488.53881,1045.9517 c -50.25495,-3.2799 -72.54716,-8.2311 -108.93504,-24.2032 -34.46971,-9.7251 -65.20389,-26.01793 -89.63638,-44.07324 -45.97517,-34.30639 -87.18925,-96.22371 -105.22434,-158.07847 -12.32319,-42.26115 -1.66909,-102.28822 26.67836,-150.30882 21.86608,-37.04141 78.80266,-89.68209 124.03299,-114.67533 4.95279,-2.72459 17.98249,-9.82156 28.95462,-15.74005 10.97213,-5.92111 22.46198,-15.56016 25.53277,-21.42912 7.82184,-14.94484 5.37505,-54.67695 -3.36648,-54.67695 -8.53134,0 -13.12323,-6.34348 -10.15517,-14.01926 1.77659,-4.59922 3.7679,-4.82344 8.45612,-0.96469 5.14189,4.2342 6.20351,-1.6165 6.57408,-36.19666 0.24248,-22.69102 1.77269,-45.96347 3.39891,-51.72553 2.06782,-7.3212 -1.29789,-18.86355 -11.19577,-38.38676 -22.46863,-44.32089 -30.57456,-88.33673 -24.754,-134.41493 5.96779,-47.24885 21.07173,-80.22554 48.05186,-104.913731 90.42949,-82.74937189 243.43599,-27.754333 312.2669,112.240141 69.30992,140.9696 18.63644,281.6889 -104.98368,291.53915 -28.4037,2.26832 -80.17838,-9.82418 -101.50742,-23.69743 -9.87522,-6.4243 -9.99912,-6.23398 -13.0803,20.12286 -2.98053,25.49123 -2.45136,27.57966 12.60742,49.71794 37.44694,55.06283 48.06308,65.5701 77.03454,76.25989 l 27.60191,10.18658 4.23929,-16.26411 c 9.10128,-34.91389 8.21301,-41.69017 -5.96097,-45.47331 -7.15864,-1.9033 -21.12325,-1.66865 -31.03243,0.54753 -22.44544,5.00856 -27.05474,0.80825 -20.52978,-18.85314 l 5.09382,-15.32029 17.33659,8.31457 c 9.53515,4.57575 22.3223,8.31718 28.41566,8.31718 17.75808,0 57.22683,9.1515 67.64317,15.6827 8.94331,5.61083 14.83072,18.64455 21.00665,46.50317 1.50204,6.77889 6.44756,12.58526 11.92717,14.00623 5.25517,1.38185 8.05874,4.52361 6.39202,7.20387 -1.63293,2.62031 -4.82612,3.62932 -7.09585,2.24225 -5.46694,-3.34512 -5.25729,-1.38185 4.27399,40.45693 4.49539,19.72917 14.22038,46.46407 21.61136,59.41696 40.10822,70.27361 44.68077,148.54891 11.81591,202.25596 -26.29693,42.97555 -50.67679,63.26268 -110.54277,91.97391 -60.23349,28.8937 -75.28847,31.4932 -152.94565,26.4299 z m -58.00113,-89.70816 c -6.3076,-5.60562 -30.66306,-15.54972 -30.66306,-12.5253 0,2.03367 5.48614,5.81941 12.19145,8.44754 12.59462,4.94338 21.70782,6.95358 18.47161,4.07776 z m 85.9586,-23.66353 c -3.8334,-11.50065 -8.2484,-22.34165 -9.81119,-24.09374 -1.56253,-1.77293 -11.77078,2.6907 -22.685,9.88414 -10.91425,7.19084 -22.33766,13.07804 -25.38537,13.08847 -3.04777,0.0104 -5.54154,1.98153 -5.54154,4.41931 0,2.42476 -0.0651,5.88721 -0.14861,7.70187 -0.17208,3.83789 25.27323,8.37975 51.96782,9.27665 l 18.5721,0.62574 -6.97001,-20.90244 z m 37.14795,7.60539 c -3.92349,-10.31695 -3.76849,-15.34115 0.69223,-22.43291 3.16159,-5.0268 5.11104,-9.4383 4.33249,-9.80852 -0.77853,-0.36503 -7.90315,-4.25246 -15.83246,-8.62745 -24.71549,-13.64121 -26.84004,-6.92489 -11.22049,35.46402 5.35302,14.52507 9.14774,18.70191 16.9882,18.70191 9.39338,0 9.74387,-0.91255 5.04003,-13.29705 z m -195.88494,-5.22757 c -22.25921,-15.80263 -58.664,-54.43969 -68.19082,-72.36724 -4.94921,-9.31315 -9.0867,-15.31768 -9.19436,-13.34137 -0.69718,12.76777 33.16462,54.88813 62.86965,78.19708 12.07887,9.47741 23.27852,17.17145 24.88839,17.09584 1.60998,0 -3.05814,-4.38803 -10.37286,-9.58431 z m 240.89597,0.8604 c 9.46714,-7.83222 9.75777,-9.18279 3.33855,-15.55755 -7.84403,-7.79051 -20.76068,-5.49872 -29.76487,5.26928 -4.84266,5.79335 -4.4128,7.8948 2.66384,13.03372 10.61462,7.70707 11.21291,7.63407 23.76256,-2.75849 z m 92.00641,-18.27432 c 15.48567,-16.56396 37.34835,-50.9616 29.21889,-45.9739 -2.92115,1.79901 -8.58952,9.55301 -12.59627,17.24705 -4.00671,7.69144 -16.46091,22.68321 -27.67608,33.32346 -11.21513,10.63764 -16.40108,17.25227 -11.52466,14.70236 4.8766,-2.55511 15.03677,-11.2347 22.57812,-19.29897 z m -268.62091,11.89956 c 0,-3.54849 3.98989,-8.57008 8.86631,-11.1617 4.87655,-2.58119 8.86648,-3.6606 8.86648,-2.39869 0,1.27756 9.28116,-4.7035 20.62476,-13.29704 11.34362,-8.59877 28.28524,-19.97165 37.64808,-25.27744 12.74919,-7.22734 17.03198,-12.47577 17.05748,-20.91288 0.0469,-16.12331 6.00396,-21.8932 54.07833,-52.41384 42.10391,-26.72967 42.86087,-27.50925 37.93323,-39.0125 -2.76527,-6.45819 -7.61072,-14.83794 -10.76772,-18.62891 -3.15712,-3.78835 -7.04593,-13.69075 -8.64223,-22.00271 -6.40406,-33.35213 -21.52454,-50.33586 -60.64904,-68.1174 -47.04034,-21.37696 -100.64805,-18.87399 -153.11432,7.15433 -115.90684,57.49802 -101.6495,192.65602 27.91369,264.61393 16.82945,9.34965 20.18495,9.5843 20.18495,1.43399 z m 21.31624,1.72079 c -0.87369,-2.58119 -3.4837,-4.73218 -5.80002,-4.73218 -2.31655,0 -4.92645,2.13796 -5.80017,4.73218 -0.87369,2.58119 1.73644,4.73479 5.80017,4.73479 4.06376,0 6.67385,-2.13796 5.80002,-4.73479 z M 645.9176,901.1755 c 12.19125,-8.45796 23.04473,-16.03207 24.11871,-16.83511 1.07393,-0.80825 -1.17197,-4.56793 -4.99033,-8.35889 -6.30208,-6.25743 -8.23549,-6.23136 -20.93878,0.33894 -7.69767,3.95001 -13.02077,8.74738 -11.82917,10.66372 1.19178,1.9033 -0.3001,3.4807 -3.31646,3.4807 -3.0157,0 -10.97153,3.56934 -17.67948,7.93129 -11.49509,7.48025 -11.77172,8.40062 -4.81243,16.03208 8.04489,8.8282 7.33215,9.06546 39.44809,-13.20841 z m -79.79767,-13.69074 c -1.50699,-2.42476 -5.11586,-4.36978 -8.01974,-4.33328 -3.17264,0 -2.62593,1.77294 1.36961,4.33328 8.51673,5.46482 10.0515,5.46482 6.65013,0 z m 125.30823,-28.90415 c -1.4997,-1.48613 -6.97224,-1.38185 -12.16091,0.33895 -7.70746,2.42476 -8.44673,4.15337 -4.03978,9.42786 4.73021,5.65517 6.22676,5.62388 12.16079,-0.33894 3.72171,-3.69448 5.53973,-7.93651 4.0399,-9.42525 z M 272.90041,828.0339 c -1.41157,-3.65539 -4.25673,-17.02022 -6.3228,-29.70978 l -3.75629,-23.06648 1.69681,25.194 c 1.55966,23.16295 4.51072,34.22296 9.13299,34.22296 0.99884,0 0.66094,-3.00356 -0.75063,-6.6407 z m 315.38545,-8.30414 c 4.8766,-3.73099 6.87147,-6.83625 4.43318,-6.90143 -2.43831,0 -10.41795,4.93034 -17.73281,11.09652 -13.61973,11.48239 -2.68148,8.03298 13.29963,-4.19509 z m 62.06487,-4.78433 c 8.86647,-7.16476 8.86647,-7.16476 0,-2.82627 -4.87655,2.39868 -12.85622,7.54542 -17.73276,11.4876 -8.86648,7.16999 -8.86648,7.16999 0,2.82888 4.87654,-2.39868 12.85621,-7.54803 17.73276,-11.49021 z m 81.94639,1.04291 c -0.0339,-5.44658 -2.0016,-12.87207 -4.36524,-16.50399 -3.19646,-4.90948 -4.31479,-2.39868 -4.36529,9.90239 -0.0339,9.0785 1.92729,16.5066 4.36529,16.5066 2.43831,0 4.40263,-4.45843 4.36524,-9.905 z m -6.54001,-35.2059 c -4.31894,-15.42719 -16.76469,-43.18152 -18.56362,-41.39555 -1.9591,1.92938 16.73999,51.29273 19.4357,51.29273 1.04524,0 0.65259,-4.45321 -0.87213,-9.89718 z M 268.28244,746.67159 c 1.76147,-13.22404 1.33362,-16.87943 -1.28799,-11.00265 -3.74901,8.40842 -6.28423,36.4652 -2.94946,32.64034 0.87995,-0.99076 2.78701,-10.74454 4.23745,-21.63769 z m 357.68577,18.14396 c 0,-2.13796 -2.99256,-6.32522 -6.6499,-9.33923 -7.21822,-5.94977 -8.12051,-4.52881 -3.95892,6.23658 2.84872,7.37335 10.60882,9.63646 10.60882,3.10786 z m 28.7785,-14.52508 c 6.98805,-3.17304 10.53064,-7.59756 9.0749,-11.36506 -1.31328,-3.38162 -2.38799,-9.89457 -2.38799,-14.44164 0,-11.40939 -30.05661,-20.60261 -43.67831,-13.36745 -14.19523,7.54282 -11.55668,19.49191 7.10429,32.17887 9.14345,6.21571 17.02946,11.50064 17.52421,11.74312 0.49513,0.33894 6.05807,-1.90331 12.3629,-4.74784 z m 24.4199,-51.63949 c 0,-2.21616 -6.31907,-9.28706 -14.04215,-15.73744 -12.51084,-10.44992 -14.48901,-10.94008 -18.13929,-4.46624 -4.71013,8.35889 -5.21219,7.66796 12.23203,16.85335 15.46455,8.15031 19.94941,8.90121 19.94941,3.34773 z m -48.192,-20.82682 c 1.78024,-4.49232 3.37719,-10.22048 3.54827,-12.72346 0.4641,-6.78149 -25.72499,-20.80857 -33.39715,-17.88323 -3.76416,1.434 -5.475,0.65182 -3.94195,-1.82508 4.36119,-7.00572 -5.05825,-4.99291 -11.23985,2.42476 -4.30959,5.15456 -4.45964,9.06024 -0.63408,16.50398 2.75528,5.36315 6.97177,15.13257 9.36986,21.7107 4.21367,11.5606 4.84099,11.75876 18.70911,5.97064 7.89195,-3.27734 15.80581,-9.66774 17.58599,-14.16006 z m 63.19437,-45.96869 c -5.81309,-24.41704 -10.65348,-46.69872 -10.75649,-49.50935 -0.18772,-5.06331 -20.8078,41.68495 -23.0379,52.2209 -0.82546,3.90048 36.92759,39.72169 43.7691,41.52852 0.32774,0 -4.16158,-19.82043 -9.97471,-44.24007 z m -364.66005,23.49407 c 5.51426,-6.97966 5.35748,-7.13869 -1.67386,-1.66866 -4.26682,3.31123 -7.75811,6.78932 -7.75811,7.70187 0,3.62409 3.64061,1.27756 9.43197,-6.04104 z m 249.64362,-13.87327 c 1.35996,-2.16402 -3.8072,-6.14792 -11.48281,-8.80212 -19.28815,-6.6746 -20.9367,-5.90546 -8.8169,4.11948 11.522,9.52955 16.5595,10.68978 20.29971,4.68264 z m 80.84579,-42.2429 c 10.92194,-32.14236 9.17809,-38.72309 -9.62792,-36.33224 -7.1819,0.88648 -9.81729,6.50774 -14.00388,29.73325 -3.63873,20.18545 -3.7748,30.27296 -0.46254,34.25425 8.1049,9.75117 13.48056,3.58239 24.09434,-27.65526 z m -195.51885,-5.56911 c 2.61629,-1.79902 6.04464,-6.69807 7.61903,-10.93227 3.40063,-9.1515 22.05001,-10.3013 29.15863,-1.79902 2.71563,3.24084 3.83552,7.00052 2.48838,8.33543 -1.34691,1.35578 6.36118,3.13916 17.12931,3.99694 l 19.57853,1.53829 -11.13279,-17.60947 c -6.12298,-9.68077 -16.17628,-24.20584 -22.34079,-32.28315 l -11.20798,-14.68151 -7.89045,15.26814 c -4.33966,8.39801 -17.22017,23.42106 -28.62338,33.38603 -18.608,16.26151 -19.64652,18.11267 -10.13397,18.0501 5.82932,0 12.73933,-1.51222 15.35541,-3.31123 z m 28.49248,-5.43094 c 0,-2.42475 -2.99222,-4.40106 -6.64972,-4.40106 -3.65745,0 -6.64991,1.95545 -6.64991,4.40106 0,2.42476 2.99257,4.40106 6.64991,4.40106 3.65739,0 6.64972,-1.95544 6.64972,-4.40106 z" fill="#ffbd00" transform="translate(0 -28.362)"/></svg>