<svg xmlns="http://www.w3.org/2000/svg" height="40" width="370"><g font-size="40" font-family="Sans" word-spacing="0" letter-spacing="0"><g fill="#F00"><path d="m165.46,374.8c0-1.7969,0.54687-3.1771,1.6406-4.1406,0.84636-0.7552,1.7969-1.1328,2.8516-1.1328,0.79426,0.00002,1.4648,0.26694,2.0117,0.80079,0.54687,0.53386,0.82031,1.1393,0.82032,1.8164-0.00001,0.76824-0.39063,1.4193-1.1719,1.9531-0.76823,0.53386-1.1589,0.8138-1.1719,0.83984-0.50782,0.48178-0.76173,1.0547-0.76172,1.7188-0.00001,0.67709,0.27343,1.1458,0.82031,1.4062,0.24739,0.0912,0.72265,0.17578,1.4258,0.25391,0.0781,0.013,0.16276,0.0195,0.25391,0.0195,2.6693,0,6.1068-3.9844,10.312-11.953,2.7604-5.2213,5.7356-9.1211,8.9258-11.699-0.96357-0.26039-1.9922-0.39059-3.0859-0.39062-3.099,0.00003-5.8659,0.96357-8.3008,2.8906-2.4349,1.9141-3.6524,4.0495-3.6523,6.4062-0.00001,1.0156,0.22134,1.7643,0.66406,2.2461,0.2604,0.28647,0.70962,0.52736,1.3477,0.72265,0.65102,0.19533,1.0612,0.37762,1.2305,0.54688,0.33853,0.31251,0.5078,0.70965,0.50782,1.1914-0.013,0.79428-0.47528,1.1914-1.3867,1.1914-0.0912,0.00001-0.18882-0.007-0.29297-0.0195-0.82032-0.0781-1.6276-0.55337-2.4219-1.4258-0.98959-1.0677-1.4844-2.3828-1.4844-3.9453-0.00001-2.6562,1.2435-5.1888,3.7305-7.5977,2.9166-2.7734,6.6341-4.1601,11.152-4.1602,0.026,0.00003,0.0455,0.00003,0.0586,0,1.6276,0.00003,3.1054,0.17581,4.4336,0.52735,0.7682-0.50779,1.6015-1.0221,2.5-1.543,0.39059-0.22133,0.75518-0.332,1.0938-0.33203,0.62497,0.00003,0.93747,0.25393,0.9375,0.76172-0.00003,0.41669-0.28649,0.75523-0.85938,1.0156-0.67711,0.31253-1.224,0.59248-1.6406,0.83985,2.0052,0.93752,3.5156,2.3242,4.5312,4.1602,0.76819,1.3542,1.1588,2.6367,1.1719,3.8477-0.00003,1.1068-0.4167,2.2005-1.25,3.2812-0.82034,1.0807-1.6537,1.7578-2.5,2.0312-0.96357,0.28647-1.8099,0.44272-2.5391,0.46875,0.24737,0.19532,0.4557,0.39064,0.625,0.58594,0.3906,0.45574,0.60544,0.88542,0.64453,1.2891,0.0651,0.66407,0.0976,1.2891,0.0977,1.875-0.00003,0.72917-0.0521,1.3802-0.15625,1.9531-0.0782,0.33855-0.013,0.66407,0.19531,0.97657,0.2083,0.3125,0.49476,0.46875,0.85938,0.46875,0.50778,0,1.0221-0.35156,1.543-1.0547,0.36455-0.45572,0.80074-0.68359,1.3086-0.6836,0.36455,0.00001,0.54684,0.14324,0.54687,0.42969-0.00003,0.39063-0.31253,0.95704-0.9375,1.6992-1.237,1.4974-2.5586,2.793-3.9648,3.8867-1.8099,1.4062-3.3334,2.1094-4.5703,2.1094-1.888,0-2.8321-1.0156-2.832-3.0469-0.00003-1.1328,0.5794-3.5156,1.7383-7.1484,0.28643-0.92447,0.43617-1.6406,0.44922-2.1484-0.00003-0.42967-0.12373-0.75519-0.3711-0.97656-0.22138-0.11717-0.44273-0.26691-0.66406-0.44922-0.20836-0.18227-0.31252-0.42967-0.3125-0.74218-0.00002-0.67707,0.46873-1.1002,1.4062-1.2695,1.5234-0.2604,2.6172-0.59243,3.2812-0.99609,1.3281-0.79425,1.9922-2.0963,1.9922-3.9062-0.00003-2.0312-0.89847-3.5807-2.6953-4.6484-1.9662,2.2266-4.043,6.7643-6.2305,13.613-1.2761,3.9714-3.3203,7.0898-6.1328,9.3555-2.4479,1.9792-4.9414,2.9753-7.4805,2.9883-2.3438,0-4.3034-0.63151-5.8789-1.8945s-2.3633-2.8841-2.3633-4.8633" transform="translate(-155.857 -348.676)"/><path d="m198.64,374.25c0-0.28645,0.24089-0.59895,0.72266-0.9375,0.26041-0.19531,1.0612-1.0872,2.4023-2.6758,1.3542-1.6016,2.7344-2.9232,4.1406-3.9648,1.9792-1.4974,3.7435-2.2526,5.293-2.2656,1.0156,0.00001,1.8294,0.306,2.4414,0.91797,0.67707,0.67709,1.0156,1.3998,1.0156,2.168-0.00002,1.1589-0.72919,2.5196-2.1875,4.082-2.0052,2.1224-4.3164,3.5938-6.9336,4.4141-0.013,0.13021-0.0195,0.25391-0.0195,0.37109,0,1.0807,0.48828,1.6341,1.4648,1.6602h0.0781c0.66405,0,1.4974-0.28646,2.5-0.85938,0.93749-0.58593,1.7643-1.2435,2.4805-1.9726,0.92446-0.98958,1.5495-1.582,1.875-1.7774,0.3255-0.20832,0.52082-0.31249,0.58594-0.3125,0.19529,0.00001,0.43618,0.0912,0.72265,0.27344,0.11717,0.0912,0.18228,0.21485,0.19532,0.37109-0.00002,0.53387-0.84637,1.5886-2.5391,3.1641-3.125,2.8776-5.9831,4.3164-8.5742,4.3164-0.79427,0-1.4974-0.16927-2.1094-0.50781-0.82032-0.45573-1.4583-1.1719-1.9141-2.1484-0.3125-0.63801-0.46875-1.2044-0.46875-1.6992,0-0.11718,0.007-0.22786,0.0195-0.33203,0.0911-0.59895,0.16276-0.99609,0.21484-1.1914,0.14323-0.39062,0.41016-0.74218,0.80078-1.0547-0.625,0.62501-1.0677,0.9375-1.3281,0.9375-0.22136,0-0.42318-0.10416-0.60547-0.3125-0.18229-0.22135-0.27344-0.4427-0.27344-0.66406m8.8281-2.4024c-0.013,0.32553,0.16275,0.48829,0.52734,0.48828,0.39062,0.00001,1.2174-0.67056,2.4805-2.0117,0.74217-0.78124,1.1133-1.6016,1.1133-2.4609-0.00001-0.41666-0.14324-0.62499-0.42969-0.625-0.45574,0.00001-1.276,0.78777-2.4609,2.3633-0.82033,0.98959-1.2305,1.7383-1.2305,2.2461" transform="translate(-155.857 -348.676)"/><path d="m212.94,374.55c0-0.3125,0.24088-0.61198,0.72265-0.89844,0.48177-0.29947,1.3281-1.224,2.5391-2.7734,1.4062-1.7969,2.7278-3.2096,3.9648-4.2383,1.7969-1.5234,3.4766-2.2851,5.0391-2.2852,0.98957,0.00002,1.875,0.2995,2.6562,0.89844,1.5234-2.8125,3.2161-5.8594,5.0781-9.1406,0.16925-0.28644,0.35154-0.59243,0.54687-0.91797,0.13019-0.16925,0.31248-0.25388,0.54688-0.25391,0.0781,0.00003,0.16925,0.0131,0.27343,0.0391,0.67707,0.0912,1.263,0.51435,1.7578,1.2695,0.55987,0.84638,0.83331,1.5365,0.82031,2.0703-0.00002,0.59898-1.1719,3.3073-3.5156,8.125-1.0156,2.2005-2.2461,4.7331-3.6914,7.5976-0.22137,0.31251-0.33205,0.59897-0.33203,0.85938-0.00002,0.42969,0.25389,0.65105,0.76172,0.66406,0.28644,0.00001,0.52732-0.0976,0.72265-0.29297,0.41665-0.45572,0.97655-0.98957,1.6797-1.6016,0.33852-0.19531,0.54034-0.29296,0.60547-0.29297,0.16925,0.00001,0.3906,0.0977,0.66406,0.29297,0.11717,0.0911,0.17576,0.21485,0.17578,0.37109-0.00002,0.41668-0.82033,1.5169-2.4609,3.3008-2.2005,2.4219-4.4271,3.6328-6.6797,3.6328-1.3021,0-2.1615-1.0286-2.5781-3.0859-2.1094,2.2005-3.8672,3.3008-5.2734,3.3008-0.50781,0-0.97656-0.1237-1.4062-0.37109-1.0156-0.5599-1.5234-1.5234-1.5234-2.8906,0-0.33854,0.0326-0.6901,0.0977-1.0547,0.0911-0.62499,0.17578-1.0221,0.25391-1.1914,0.14323-0.39062,0.39713-0.74218,0.76172-1.0547-0.59896,0.59896-1.0352,0.89844-1.3086,0.89844-0.22135,0-0.42317-0.10416-0.60546-0.3125-0.19532-0.22135-0.29297-0.4427-0.29297-0.66406m7.5391,0.42968c-0.00001,0.65105,0.2539,0.97657,0.76172,0.97657,0.76822,0,1.9206-1.1458,3.457-3.4375,1.1849-1.7969,1.7773-3.138,1.7773-4.0234-0.00001-0.55988-0.2409-0.83983-0.72265-0.83985-0.6771,0.00002-1.9011,1.2435-3.6719,3.7305-1.0677,1.4974-1.6016,2.6953-1.6016,3.5938" transform="translate(-155.857 -348.676)"/><path d="m241.03,378.02c0-1.0156,0.31901-2.1159,0.95704-3.3008,0.28645-0.53385,0.76171-0.98958,1.4258-1.3672,0.66406-0.39062,1.3346-0.58593,2.0117-0.58594,1.0417,0.00001,1.8294,0.45574,2.3633,1.3672,0.31249,0.5599,0.46874,1.0807,0.46875,1.5625-0.00001,1.0938-0.78777,1.9401-2.3633,2.5391-0.26043,0.0911-0.39063,0.42318-0.39063,0.9961,0,0.65104,0.26041,1.2109,0.78125,1.6797,0.52083,0.46875,1.0937,0.70313,1.7188,0.70313,1.914,0,4.0234-1.8099,6.3281-5.4297,0.67707-1.0677,1.2565-2.1094,1.7383-3.125-1.7188-0.28645-3.1446-1.0286-4.2774-2.2266-1.2109-1.263-1.8294-2.8125-1.8555-4.6484v-0.15625c0-3.2552,1.6536-6.1393,4.9609-8.6523,3.2422-2.4739,6.7773-3.7109,10.605-3.7109,2.2005,0.0131,3.8932,0.31904,5.0781,0.91797,0.65101,0.31252,0.97653,0.65107,0.97656,1.0156-0.00003,0.22138-0.13024,0.42321-0.39063,0.60547-1.5495,1.1068-2.9753,2.4154-4.2773,3.9258-1.4584,1.6406-2.8255,4.668-4.1016,9.082,0.55987-0.36457,1.0416-0.75519,1.4453-1.1719,0.31248-0.31249,0.65102-0.46874,1.0156-0.46875,0.36456,0.00001,0.55988,0.15626,0.58594,0.46875-0.00002,0.3646-0.27997,0.78777-0.83984,1.2695-0.58596,0.55991-1.543,1.3607-2.8711,2.4023-0.75522,2.6172-1.4193,4.5768-1.9922,5.8789-0.76825,1.7969-1.6862,3.1901-2.7539,4.1797-0.84637,0.76823-2.0117,1.4323-3.4961,1.9922-1.6016,0.58593-3.1966,0.8789-4.7852,0.8789-2.1745,0-3.9518-0.57292-5.332-1.7188-1.8099-1.4974-2.7214-3.1315-2.7344-4.9023m13.105-12.109c-0.013,0.14325-0.0195,0.27997-0.0195,0.41016-0.00001,1.0417,0.27343,1.9531,0.82031,2.7344,0.53384,0.78127,1.263,1.3281,2.1875,1.6406,0.62499-1.4974,1.237-3.0013,1.8359-4.5117,0.76821-1.6406,1.6797-3.0794,2.7344-4.3164,2.4739-2.9817,4.388-4.9284,5.7422-5.8398-0.75523-0.4557-1.7253-0.68357-2.9102-0.68359-2.3047,0.00002-4.4857,0.89195-6.543,2.6758-2.3698,2.0573-3.6524,4.6875-3.8477,7.8906" transform="translate(-155.857 -348.676)"/><path d="m263.33,373.92c0-0.14323,0.20834-0.40364,0.625-0.78125,0.42969-0.39062,0.83984-0.76823,1.2305-1.1328,0.59896-0.5078,1.5169-1.4909,2.7539-2.9492,0.7552-1.0677,1.4193-1.875,1.9922-2.4219,1.0677-0.96353,2.3047-1.6536,3.7109-2.0703,0.62499-0.1953,1.3151-0.29296,2.0703-0.29297,1.3281,0.00001,2.3893,0.22788,3.1836,0.68359,0.48175-0.96352,0.72264-1.4583,0.72265-1.4844,0.36457-0.8203,0.82681-1.3021,1.3867-1.4453,0.0391-0.013,0.0781-0.0195,0.11719-0.0195,0.39061,0.00002,0.95701,0.39065,1.6992,1.1719,0.65102,0.70314,0.97654,1.3802,0.97656,2.0312-0.00002,0.45574-0.27997,1.2175-0.83984,2.2852-0.62502,1.237-1.5755,3.0664-2.8516,5.4883-0.48179,0.89844-0.72919,1.6602-0.74219,2.2852-0.00002,0.41667,0.0846,0.67058,0.2539,0.76172,0.013,0.013,0.039,0.0195,0.0781,0.0195,0.22134,0.00001,0.72915-0.319,1.5234-0.95703,0.79425-0.65103,1.4388-1.2565,1.9336-1.8164,0.28644-0.33853,0.46873-0.5078,0.54688-0.50781,0.1432,0.00001,0.30596,0.12371,0.48828,0.3711,0.19529,0.23438,0.29294,0.4362,0.29297,0.60546-0.00003,0.22137-0.15628,0.4948-0.46875,0.82032-0.31252,0.32552-0.63805,0.67058-0.97657,1.0352-0.50783,0.5599-1.4193,1.3998-2.7344,2.5195-1.3151,1.1198-2.207,1.8294-2.6758,2.1289-0.82033,0.50781-1.6146,0.76172-2.3828,0.76172-0.59897,0-1.1524-0.17578-1.6602-0.52734-0.4948-0.35157-0.7422-0.89193-0.74219-1.6211-0.00001-0.36458,0.0586-0.76171,0.17578-1.1914-1.3542,1.1328-2.4805,1.9531-3.3789,2.4609-0.88543,0.50782-1.7774,0.76172-2.6758,0.76172-0.89844,0-1.6406-0.27344-2.2266-0.82031-0.57292-0.5599-0.85937-1.276-0.85937-2.1484,0-0.87239,0.22786-1.7838,0.68359-2.7344-0.53385,0.0521-0.8724,0.013-1.0156-0.11719-0.14323-0.1302-0.21485-0.51432-0.21485-1.1523m7.1875,1.4648c-0.00001,0.53386,0.21484,0.80079,0.64453,0.80078,0.50781,0.00001,1.25-0.5013,2.2266-1.5039,0.72915-0.76822,1.3476-1.5299,1.8555-2.2852,1.1588-1.7708,1.7383-3.099,1.7383-3.9844-0.00002-0.58592-0.2409-0.87889-0.72266-0.8789-0.65105,0.00001-1.875,1.25-3.6719,3.75-1.3802,1.9401-2.0703,3.3073-2.0703,4.1016" transform="translate(-155.857 -348.676)"/><path d="m282.55,373.96c0-0.26041,0.22787-0.57291,0.6836-0.9375,0.33854-0.26041,1.1588-1.1588,2.4609-2.6953,1.4323-1.6406,2.793-3.0078,4.082-4.1016,1.6016-1.3802,3.2682-2.0703,5-2.0703,0.79426,0.00002,1.556,0.14976,2.2852,0.44922,0.53384,0.22137,0.8854,0.43621,1.0547,0.64453,0.55988,0.65106,0.83983,1.3802,0.83984,2.1875-0.00001,0.79428-0.27996,1.556-0.83984,2.2852-0.6771,0.8724-1.4128,1.3086-2.207,1.3086-1.1589,0.00001-1.7448-0.54686-1.7578-1.6406-0.00001-0.36458,0.0976-0.71614,0.29297-1.0547,0.26041-0.48176,0.69661-0.76822,1.3086-0.85938-0.26043-0.22134-0.54689-0.33201-0.85938-0.33203-1.1328,0.00002-2.4675,1.4779-4.0039,4.4336-0.96355,1.888-1.4453,3.3594-1.4453,4.4141,0,1.1328,0.48177,1.7122,1.4453,1.7383h0.0781c0.66405,0,1.4974-0.28646,2.5-0.85938,0.92447-0.55989,1.7383-1.2174,2.4414-1.9726,0.92446-0.96354,1.5495-1.556,1.875-1.7774,0.33852-0.23436,0.55988-0.35155,0.66406-0.35156,0.16925,0.00001,0.3841,0.11069,0.64453,0.33203,0.11717,0.0912,0.17577,0.20834,0.17578,0.35157-0.00001,0.50781-0.84637,1.5625-2.5391,3.1641-3.0729,2.9036-5.9115,4.3555-8.5156,4.3555-0.79427,0-1.5104-0.18229-2.1484-0.54688-0.79428-0.45573-1.4258-1.1719-1.8945-2.1484-0.31251-0.62499-0.46876-1.1784-0.46875-1.6602-0.00001-0.13021,0.013-0.2539,0.0391-0.3711,0.0911-0.59895,0.17578-0.99608,0.2539-1.1914,0.14323-0.39062,0.39714-0.74218,0.76172-1.0547-0.58594,0.62501-1.0352,0.93751-1.3476,0.9375-0.22136,0.00001-0.42318-0.10416-0.60547-0.3125-0.16927-0.22135-0.25391-0.4427-0.25391-0.66406" transform="translate(-155.857 -348.676)"/><path d="m296.85,374.37c0-0.11718,0.026-0.24087,0.0781-0.37109,0.22136-0.41666,1.237-1.5885,3.0469-3.5156,1.0677-1.1328,2.3372-2.7344,3.8086-4.8047,1.8359-2.6172,3.1185-4.8047,3.8477-6.5625,1.1328-2.7864,2.0443-4.1797,2.7344-4.1797,0.72915,0.00003,1.5104,0.77477,2.3438,2.3242,0.28644,0.53388,0.42967,1.0156,0.42969,1.4453-0.00002,0.32554-0.0781,0.61851-0.23438,0.87891-0.1172,0.24741-1.9076,3.9974-5.3711,11.25,4.2187-4.2969,7.0638-6.4453,8.5352-6.4453,0.0651,0.00001,0.12368,0.007,0.17578,0.0195,1.3932,0.19533,2.0898,0.8073,2.0898,1.8359-0.00002,0.57294-0.21486,1.2565-0.64453,2.0508-0.59898,1.0938-1.3346,1.6406-2.207,1.6406-0.26044,0.00001-0.69663-0.11067-1.3086-0.33203-0.22138-0.11718-0.45575-0.24087-0.70313-0.37109-0.23439-0.14322-0.42319-0.18879-0.56641-0.13672-0.55991,0.2474-1.3346,0.81381-2.3242,1.6992,0.70311-0.11718,1.2435-0.17578,1.6211-0.17579,0.70311,0.00001,1.1068,0.18231,1.2109,0.54688,0.0781,0.28647,0.0781,0.66407,0,1.1328-0.0781,0.36459-0.14976,0.73569-0.21485,1.1133-0.0391,0.28647-0.0586,0.54037-0.0586,0.76172-0.00002,0.4948,0.0911,0.82683,0.27344,0.9961,0.16925,0.14323,0.35805,0.21484,0.5664,0.21484,0.55988,0,1.1458-0.40364,1.7578-1.2109,0.69008-0.91145,1.2109-1.3672,1.5625-1.3672-0.00002,0.00001,0.006,0.00001,0.0195,0,0.16925,0.00001,0.33201,0.10418,0.48828,0.3125,0.16925,0.19532,0.25388,0.39064,0.2539,0.58594-0.00002,0.22136-0.0847,0.41668-0.2539,0.58594-0.70315,0.76823-1.4193,1.556-2.1484,2.3633-1.3281,1.4323-2.4024,2.4089-3.2227,2.9297-1.4063,0.92448-2.7018,1.3867-3.8867,1.3867s-1.8555-0.59245-2.0117-1.7774c-0.013-0.0651-0.0195-0.1302-0.0195-0.19531-0.00001-0.41666,0.12368-1.0677,0.37109-1.9531,0.28645-1.0417,0.42968-1.7773,0.42969-2.207-0.00001-0.42968-0.0977-0.65103-0.29297-0.66406-0.19532,0.00001-0.48829,0.23438-0.87891,0.70313-0.84636,1.0417-1.7057,2.0898-2.5781,3.1445-1.263,1.4974-2.0898,2.3763-2.4805,2.6367-0.37761,0.26041-0.89193,0.39062-1.543,0.39062-1.1328,0-1.7057-0.39062-1.7188-1.1719,0-0.92448,1.8164-4.6354,5.4492-11.133-3.2162,4.2839-5.1042,6.4258-5.6641,6.4258-0.50782,0-0.76172-0.26693-0.76172-0.80079" transform="translate(-155.857 -348.676)"/><path d="m316.14,374.25c0-0.28645,0.24089-0.59895,0.72266-0.9375,0.26041-0.19531,1.0612-1.0872,2.4023-2.6758,1.3542-1.6016,2.7344-2.9232,4.1406-3.9648,1.9792-1.4974,3.7435-2.2526,5.293-2.2656,1.0156,0.00001,1.8294,0.306,2.4414,0.91797,0.67707,0.67709,1.0156,1.3998,1.0156,2.168-0.00002,1.1589-0.72919,2.5196-2.1875,4.082-2.0052,2.1224-4.3164,3.5938-6.9336,4.4141-0.013,0.13021-0.0195,0.25391-0.0195,0.37109,0,1.0807,0.48828,1.6341,1.4648,1.6602h0.0781c0.66405,0,1.4974-0.28646,2.5-0.85938,0.93749-0.58593,1.7643-1.2435,2.4805-1.9726,0.92446-0.98958,1.5495-1.582,1.875-1.7774,0.3255-0.20832,0.52082-0.31249,0.58594-0.3125,0.19529,0.00001,0.43618,0.0912,0.72265,0.27344,0.11717,0.0912,0.18228,0.21485,0.19532,0.37109-0.00002,0.53387-0.84637,1.5886-2.5391,3.1641-3.125,2.8776-5.9831,4.3164-8.5742,4.3164-0.79427,0-1.4974-0.16927-2.1094-0.50781-0.82032-0.45573-1.4583-1.1719-1.9141-2.1484-0.3125-0.63801-0.46875-1.2044-0.46875-1.6992,0-0.11718,0.007-0.22786,0.0195-0.33203,0.0911-0.59895,0.16276-0.99609,0.21484-1.1914,0.14323-0.39062,0.41016-0.74218,0.80078-1.0547-0.625,0.62501-1.0677,0.9375-1.3281,0.9375-0.22136,0-0.42318-0.10416-0.60547-0.3125-0.18229-0.22135-0.27344-0.4427-0.27344-0.66406m8.8281-2.4024c-0.013,0.32553,0.16275,0.48829,0.52734,0.48828,0.39062,0.00001,1.2174-0.67056,2.4805-2.0117,0.74217-0.78124,1.1133-1.6016,1.1133-2.4609-0.00001-0.41666-0.14324-0.62499-0.42969-0.625-0.45574,0.00001-1.276,0.78777-2.4609,2.3633-0.82033,0.98959-1.2305,1.7383-1.2305,2.2461" transform="translate(-155.857 -348.676)"/><path d="m331.14,374.8c-0.20833-0.1302-0.3125-0.28645-0.3125-0.46875-0.013-0.1953,0.0912-0.41666,0.3125-0.66406,1.7057-1.888,3.8021-4.2969,6.2891-7.2266-0.76823,0.00001-1.1589-0.29947-1.1719-0.89844-0.00001-0.1953,0.0586-0.41014,0.17578-0.64453,0.26041-0.45571,1.1979-0.69009,2.8125-0.70313,0.28645-0.33852,0.50129-0.60545,0.64453-0.80078,0.16926-0.28644,1.0677-1.7708,2.6953-4.4531,0.26041-0.42967,0.54687-0.65102,0.85938-0.66407,0.28644,0.00003,0.62499,0.22138,1.0156,0.66407,0.31249,0.3646,0.61848,0.72918,0.91797,1.0938,0.33853,0.48179,0.5078,0.9896,0.50782,1.5234-0.00002,0.58596-0.16929,1.237-0.50782,1.9531-0.00001-0.026-0.13673,0.22788-0.41015,0.76172,2.0312,0.00001,3.0468,0.20835,3.0469,0.625-0.00002,0.1172-0.0586,0.27345-0.17578,0.46875-0.00002,0.00001-0.21486,0.31251-0.64453,0.9375-0.16929,0.14324-0.52085,0.21486-1.0547,0.21484-0.16928,0.00002-0.51434-0.013-1.0352-0.0391-0.52085-0.026-0.95054-0.0391-1.2891-0.0391-0.92449,1.6276-1.5039,2.6237-1.7383,2.9883-0.00001-0.0521,0.14322-0.319,0.42969-0.80078-0.00001,0.00001-0.50131,0.95704-1.5039,2.8711s-1.556,3.0143-1.6602,3.3008c-0.14324,0.36459-0.21486,0.67058-0.21485,0.91797-0.00001,0.31251,0.11067,0.52735,0.33203,0.64453,0.11718,0.0781,0.35807,0.0651,0.72266-0.0391,0.36457-0.11718,0.64452-0.27343,0.83984-0.46875,0.92447-0.72916,1.9857-1.6146,3.1836-2.6562,0.28644-0.31249,0.62498-0.46874,1.0156-0.46875,0.5078,0.00001,0.76171,0.22787,0.76172,0.68359-0.00001,0.22136-0.21486,0.58595-0.64453,1.0938-0.96355,1.1589-2.4544,2.4674-4.4727,3.9258-2.3438,1.6667-4.095,2.5-5.2539,2.5-0.93751,0-1.6992-0.35156-2.2852-1.0547-0.45573-0.50781-0.68359-1.0482-0.68359-1.6211,0-0.0911,0.007-0.1888,0.0195-0.29297,0.22135-1.6667,1.3346-4.2252,3.3398-7.6758-0.9375,1.211-2.1224,2.6432-3.5547,4.2969-0.27344,0.27344-0.53386,0.41016-0.78125,0.41015-0.1823,0.00001-0.35808-0.0651-0.52735-0.19531" transform="translate(-155.857 -348.676)"/><path d="m343.86,374.8c-0.20834-0.14322-0.3125-0.30598-0.3125-0.48828,0-0.19531,0.10416-0.41015,0.3125-0.64453,1.1328-1.3281,3.0338-3.4896,5.7031-6.4844,1.0937-1.1588,2.2786-2.1028,3.5547-2.832,1.289-0.72915,2.3893-1.0937,3.3008-1.0938,1.6276,0.00002,2.4414,0.69012,2.4414,2.0703-0.00002,0.50782-0.20835,0.95704-0.625,1.3476-0.41669,0.37762-0.85288,0.56642-1.3086,0.56641-0.1172,0.00001-0.23439-0.006-0.35156-0.0195-0.31251-0.0781-0.57944-0.11718-0.80078-0.11719-0.29949,0.00001-0.52736,0.0781-0.6836,0.23437-0.26042,0.26043-0.39714,0.55991-0.41015,0.89844-0.00001,0.33856,0.14322,1.0026,0.42969,1.9922,0.0521,0.1172,0.31899,0.78126,0.80078,1.9922,0.28644,0.72917,0.42967,1.4062,0.42968,2.0312,0.48176-0.22135,0.944-0.57291,1.3867-1.0547,0.28645-0.33853,0.62499-0.5078,1.0156-0.50781,0.5078,0.00001,0.7617,0.24089,0.76172,0.72265-0.00002,0.22136-0.21486,0.58595-0.64453,1.0938-0.75523,0.89845-1.7253,1.4453-2.9102,1.6406-0.65105,1.8099-1.6927,3.125-3.125,3.9453-0.96355,0.5599-1.9531,0.83984-2.9688,0.83984-2.3047,0-3.7826-0.59244-4.4336-1.7773-0.41667-0.72916-0.62501-1.4583-0.625-2.1875-0.00001-1.2109,0.47525-2.0443,1.4258-2.5,0.76822-0.36458,1.556-0.54687,2.3633-0.54687,0.45572,0,1.3151,0.0846,2.5781,0.2539,0.0781-0.41666,0.11718-1.0547,0.11719-1.9141-0.00001-0.3776-0.007-0.80077-0.0195-1.2695-0.00001-0.14322-0.00001-0.27994,0-0.41016-0.00001-1.1588,0.0976-2.0638,0.29297-2.7148-0.70313,0.41668-1.8034,1.4844-3.3008,3.2031-1.9401,2.2266-2.9688,3.3984-3.0859,3.5156-0.26042,0.26042-0.52083,0.39063-0.78125,0.39062-0.16927,0.00001-0.34505-0.0586-0.52734-0.17578m3.418,1.9141c0,0.4297,0.22787,0.76824,0.6836,1.0156,0.16926,0.0781,0.33854,0.11719,0.50781,0.11719,0.80729,0,1.5234-0.63802,2.1484-1.9141-0.93751-0.11718-1.6406-0.17577-2.1094-0.17578-0.33854,0.00001-0.55339,0.0326-0.64453,0.0977-0.39063,0.2474-0.58594,0.53386-0.58594,0.85937" transform="translate(-155.857 -348.676)"/><path d="m366.14,378.32c0-2.0052,0.83333-3.6133,2.5-4.8242,0.42969-0.31249,0.92448-0.46874,1.4844-0.46875,2.2005,0.00001,3.3073,0.78777,3.3203,2.3633-0.00001,0.75521-0.35157,1.5039-1.0547,2.2461-0.85938,0.92448-1.2891,1.6602-1.2891,2.207-0.00001,0.0521,0.007,0.10417,0.0195,0.15625,0.19531,1.1068,0.74869,1.6602,1.6602,1.6602,1.0677,0,2.2526-0.52083,3.5547-1.5625,1.8359-1.4714,3.3594-3.7174,4.5703-6.7383,0.40363-1.0026,0.73566-1.8034,0.99609-2.4023-1.237,0.00001-2.3763-0.74869-3.418-2.2461-0.84636,0.31251-1.6732,0.46876-2.4805,0.46875-1.263,0.00001-2.3438-0.54686-3.2422-1.6406-0.88543-1.1068-1.3281-2.4219-1.3281-3.9453,0-2.9557,1.2565-5.4817,3.7695-7.5781,2.526-2.0963,5.5664-3.1445,9.1211-3.1445,1.4323,0.00003,2.6432,0.14977,3.6328,0.44922,3.4375,1.0156,5.9765,1.5235,7.6172,1.5234,1.3802,0.00003,2.3958-0.48825,3.0469-1.4648,0.22132-0.33851,0.52731-0.50778,0.91797-0.50781,0.49476,0.00003,0.74215,0.3581,0.74219,1.0742-0.00004,0.10419-0.007,0.20836-0.0195,0.3125-0.14327,1.7448-0.7292,3.2162-1.7578,4.4141-1.0287,1.1979-2.2917,1.7969-3.7891,1.7969-1.6276,0.00002-3.8282-0.55987-6.6016-1.6797-2.7735-1.1328-4.9805-1.6992-6.6211-1.6992-2.1745,0.00002-4.056,0.67059-5.6445,2.0117-1.5886,1.3412-2.3828,2.8841-2.3828,4.6289-0.00001,1.237,0.20833,2.1094,0.625,2.6172,0.53385,0.65106,1.237,0.97658,2.1094,0.97656,0.55988,0.00002,1.0807-0.14321,1.5625-0.42968h0.0391c-0.00001-1.0417,0.15624-1.9596,0.46875-2.7539,0.41665-1.0677,1.1068-1.6015,2.0703-1.6016,0.0911,0.00002,0.18879,0.013,0.29297,0.0391,0.85936,0.26043,1.289,0.88543,1.2891,1.875-0.00001,0.28647-0.0456,0.57944-0.13672,0.87891-0.3646,0.96355-0.78777,1.7122-1.2695,2.2461,0.22134,0.31251,0.64452,0.70314,1.2695,1.1719h1.0938c2.1094-4.5312,3.8021-7.0508,5.0781-7.5586,1.1588-0.45571,1.875-0.68357,2.1484-0.68359,0.54685,0.00002,0.82028,0.22788,0.82031,0.68359-0.00003,0.24742-0.11721,0.50783-0.35156,0.78125-0.22138,0.27346-0.44274,0.53387-0.66407,0.78125-0.42971,0.65106-0.68361,1.0612-0.76172,1.2305-0.39064,0.82033-0.70314,1.9011-0.9375,3.2422,0.72915-0.11718,1.3802-0.18228,1.9531-0.19532,1.7187,0.00002,2.5781,0.53387,2.5781,1.6016-0.00002,0.70313-0.18231,1.2826-0.54687,1.7383-0.33857,0.28647-0.66409,0.58595-0.97656,0.89844-0.31253,0.29948-0.63805,0.44922-0.97657,0.44921-0.28648,0.00001-0.42971-0.11066-0.42968-0.33203,0.026-0.0911,0.039-0.18879,0.0391-0.29297-0.00002-0.31249-0.10419-0.58592-0.3125-0.82031-0.20836-0.24738-0.41018-0.37108-0.60547-0.37109-0.0261,0.00001-0.16278,0.013-0.41016,0.0391-0.23439,0.026-0.46226,0.0391-0.68359,0.0391-0.42971,3.2943-1.263,5.9896-2.5,8.0859-1.2761,2.1745-2.8711,3.8737-4.7852,5.0977s-3.9388,1.8359-6.0742,1.8359c-2.3047,0-4.2708-0.65755-5.8984-1.9726-1.6276-1.3021-2.4414-2.8711-2.4414-4.707" transform="translate(-155.857 -348.676)"/><path d="m392.47,373.92c0-0.14323,0.20833-0.40364,0.625-0.78125,0.42968-0.39062,0.83984-0.76823,1.2305-1.1328,0.59895-0.5078,1.5169-1.4909,2.7539-2.9492,0.7552-1.0677,1.4193-1.875,1.9922-2.4219,1.0677-0.96353,2.3047-1.6536,3.7109-2.0703,0.62499-0.1953,1.3151-0.29296,2.0703-0.29297,1.3281,0.00001,2.3893,0.22788,3.1836,0.68359,0.48176-0.96352,0.72264-1.4583,0.72266-1.4844,0.36457-0.8203,0.82681-1.3021,1.3867-1.4453,0.039-0.013,0.0781-0.0195,0.11719-0.0195,0.3906,0.00002,0.95701,0.39065,1.6992,1.1719,0.65103,0.70314,0.97655,1.3802,0.97657,2.0312-0.00002,0.45574-0.27997,1.2175-0.83985,2.2852-0.62502,1.237-1.5755,3.0664-2.8516,5.4883-0.48179,0.89844-0.72918,1.6602-0.74219,2.2852-0.00001,0.41667,0.0846,0.67058,0.25391,0.76172,0.013,0.013,0.0391,0.0195,0.0781,0.0195,0.22134,0.00001,0.72915-0.319,1.5234-0.95703,0.79425-0.65103,1.4388-1.2565,1.9336-1.8164,0.28643-0.33853,0.46873-0.5078,0.54687-0.50781,0.14321,0.00001,0.30597,0.12371,0.48828,0.3711,0.19529,0.23438,0.29295,0.4362,0.29297,0.60546-0.00002,0.22137-0.15627,0.4948-0.46875,0.82032-0.31252,0.32552-0.63804,0.67058-0.97656,1.0352-0.50783,0.5599-1.4193,1.3998-2.7344,2.5195-1.3151,1.1198-2.207,1.8294-2.6758,2.1289-0.82032,0.50781-1.6146,0.76172-2.3828,0.76172-0.59897,0-1.1524-0.17578-1.6602-0.52734-0.4948-0.35157-0.74219-0.89193-0.74218-1.6211-0.00001-0.36458,0.0586-0.76171,0.17578-1.1914-1.3542,1.1328-2.4805,1.9531-3.3789,2.4609-0.88542,0.50782-1.7774,0.76172-2.6758,0.76172-0.89844,0-1.6406-0.27344-2.2266-0.82031-0.57292-0.5599-0.85938-1.276-0.85938-2.1484,0-0.87239,0.22787-1.7838,0.6836-2.7344-0.53386,0.0521-0.8724,0.013-1.0156-0.11719-0.14323-0.1302-0.21484-0.51432-0.21484-1.1523m7.1875,1.4648c-0.00001,0.53386,0.21483,0.80079,0.64453,0.80078,0.5078,0.00001,1.25-0.5013,2.2266-1.5039,0.72916-0.76822,1.3476-1.5299,1.8555-2.2852,1.1588-1.7708,1.7383-3.099,1.7383-3.9844-0.00001-0.58592-0.2409-0.87889-0.72266-0.8789-0.65105,0.00001-1.875,1.25-3.6719,3.75-1.3802,1.9401-2.0703,3.3073-2.0703,4.1016" transform="translate(-155.857 -348.676)"/><path d="m411.53,374.37c0-0.11718,0.026-0.24087,0.0781-0.37109,0.22136-0.41666,1.237-1.5885,3.0469-3.5156,1.0677-1.1328,2.3372-2.7344,3.8086-4.8047,1.8359-2.6172,3.1185-4.8047,3.8477-6.5625,1.1328-2.7864,2.0443-4.1797,2.7344-4.1797,0.72915,0.00003,1.5104,0.77477,2.3438,2.3242,0.28644,0.53388,0.42967,1.0156,0.42969,1.4453-0.00002,0.32554-0.0781,0.61851-0.23438,0.87891-0.1172,0.24741-1.9076,3.9974-5.3711,11.25,4.2187-4.2969,7.0638-6.4453,8.5352-6.4453,0.0651,0.00001,0.12368,0.007,0.17578,0.0195,1.3932,0.19533,2.0898,0.8073,2.0898,1.8359-0.00002,0.57294-0.21486,1.2565-0.64453,2.0508-0.59898,1.0938-1.3346,1.6406-2.207,1.6406-0.26044,0.00001-0.69663-0.11067-1.3086-0.33203-0.22138-0.11718-0.45575-0.24087-0.70313-0.37109-0.23439-0.14322-0.42319-0.18879-0.56641-0.13672-0.55991,0.2474-1.3346,0.81381-2.3242,1.6992,0.70311-0.11718,1.2435-0.17578,1.6211-0.17579,0.70311,0.00001,1.1068,0.18231,1.2109,0.54688,0.0781,0.28647,0.0781,0.66407,0,1.1328-0.0781,0.36459-0.14976,0.73569-0.21485,1.1133-0.0391,0.28647-0.0586,0.54037-0.0586,0.76172-0.00002,0.4948,0.0911,0.82683,0.27344,0.9961,0.16925,0.14323,0.35805,0.21484,0.5664,0.21484,0.55988,0,1.1458-0.40364,1.7578-1.2109,0.69008-0.91145,1.2109-1.3672,1.5625-1.3672-0.00002,0.00001,0.006,0.00001,0.0195,0,0.16925,0.00001,0.33201,0.10418,0.48828,0.3125,0.16925,0.19532,0.25388,0.39064,0.2539,0.58594-0.00002,0.22136-0.0847,0.41668-0.2539,0.58594-0.70315,0.76823-1.4193,1.556-2.1484,2.3633-1.3281,1.4323-2.4024,2.4089-3.2227,2.9297-1.4063,0.92448-2.7018,1.3867-3.8867,1.3867s-1.8555-0.59245-2.0117-1.7774c-0.013-0.0651-0.0195-0.1302-0.0195-0.19531-0.00001-0.41666,0.12368-1.0677,0.37109-1.9531,0.28645-1.0417,0.42968-1.7773,0.42969-2.207-0.00001-0.42968-0.0977-0.65103-0.29297-0.66406-0.19532,0.00001-0.48829,0.23438-0.87891,0.70313-0.84636,1.0417-1.7057,2.0898-2.5781,3.1445-1.263,1.4974-2.0898,2.3763-2.4805,2.6367-0.37761,0.26041-0.89193,0.39062-1.543,0.39062-1.1328,0-1.7057-0.39062-1.7188-1.1719,0-0.92448,1.8164-4.6354,5.4492-11.133-3.2162,4.2839-5.1042,6.4258-5.6641,6.4258-0.50782,0-0.76172-0.26693-0.76172-0.80079" transform="translate(-155.857 -348.676)"/><path d="m430.83,374.25c0-0.28645,0.24089-0.59895,0.72266-0.9375,0.26041-0.19531,1.0612-1.0872,2.4023-2.6758,1.3542-1.6016,2.7344-2.9232,4.1406-3.9648,1.9792-1.4974,3.7435-2.2526,5.293-2.2656,1.0156,0.00001,1.8294,0.306,2.4414,0.91797,0.67707,0.67709,1.0156,1.3998,1.0156,2.168-0.00002,1.1589-0.72919,2.5196-2.1875,4.082-2.0052,2.1224-4.3164,3.5938-6.9336,4.4141-0.013,0.13021-0.0195,0.25391-0.0195,0.37109,0,1.0807,0.48828,1.6341,1.4648,1.6602h0.0781c0.66405,0,1.4974-0.28646,2.5-0.85938,0.93749-0.58593,1.7643-1.2435,2.4805-1.9726,0.92446-0.98958,1.5495-1.582,1.875-1.7774,0.3255-0.20832,0.52082-0.31249,0.58594-0.3125,0.19529,0.00001,0.43618,0.0912,0.72265,0.27344,0.11717,0.0912,0.18228,0.21485,0.19532,0.37109-0.00002,0.53387-0.84637,1.5886-2.5391,3.1641-3.125,2.8776-5.9831,4.3164-8.5742,4.3164-0.79427,0-1.4974-0.16927-2.1094-0.50781-0.82032-0.45573-1.4583-1.1719-1.9141-2.1484-0.3125-0.63801-0.46875-1.2044-0.46875-1.6992,0-0.11718,0.007-0.22786,0.0195-0.33203,0.0911-0.59895,0.16276-0.99609,0.21484-1.1914,0.14323-0.39062,0.41016-0.74218,0.80078-1.0547-0.625,0.62501-1.0677,0.9375-1.3281,0.9375-0.22136,0-0.42318-0.10416-0.60547-0.3125-0.18229-0.22135-0.27344-0.4427-0.27344-0.66406m8.8281-2.4024c-0.013,0.32553,0.16275,0.48829,0.52734,0.48828,0.39062,0.00001,1.2174-0.67056,2.4805-2.0117,0.74217-0.78124,1.1133-1.6016,1.1133-2.4609-0.00001-0.41666-0.14324-0.62499-0.42969-0.625-0.45574,0.00001-1.276,0.78777-2.4609,2.3633-0.82033,0.98959-1.2305,1.7383-1.2305,2.2461" transform="translate(-155.857 -348.676)"/><path d="m445.73,374c0-0.22135,0.23437-0.54687,0.70312-0.97656,2.3958-2.3047,4.4726-4.9544,6.2305-7.9492,1.4714-2.7344,3.1445-5.7226,5.0195-8.9648,0.16926-0.31248,0.35155-0.61847,0.54688-0.91797,0.13019-0.16925,0.31248-0.25388,0.54687-0.25391,0.0781,0.00003,0.16926,0.0131,0.27344,0.0391,0.70311,0.0912,1.289,0.51435,1.7578,1.2695,0.55988,0.87242,0.83332,1.5625,0.82031,2.0703-0.00001,0.58596-1.0742,3.0794-3.2226,7.4805-1.0677,2.1354-2.1419,4.2513-3.2227,6.3476-1.1849,2.3698-1.8034,3.8086-1.8555,4.3164-0.00001,1.0156,0.46874,1.5234,1.4062,1.5234,1.0156,0,1.914-0.625,2.6953-1.875-0.00001-0.0521,0.0456-0.1237,0.13672-0.21485,0.10416-0.10416,0.15624-0.1888,0.15625-0.2539-0.41668-0.65104-0.62501-1.4648-0.625-2.4414-0.00001-1.3802,0.41015-2.9297,1.2305-4.6484,0.72916-1.5234,1.6536-2.7409,2.7734-3.6523,0.42967-0.36457,0.8854-0.54686,1.3672-0.54688,0.53383,0.00002,0.99607,0.18231,1.3867,0.54688,0.3906,0.35158,0.58591,0.78126,0.58593,1.2891-0.00002,1.5755-0.24741,2.9362-0.74218,4.082-0.36461,0.87241-0.63153,1.4648-0.80079,1.7774-0.41668,0.75521-0.99611,1.6471-1.7383,2.6758,0.11717,0.19532,0.31249,0.22136,0.58594,0.0781,0.0911-0.026,0.20181-0.0846,0.33203-0.17578,0.39061-0.33853,0.77472-0.6901,1.1524-1.0547,0.62498-0.55988,1.0351-0.83983,1.2305-0.83984,0.16926,0.00001,0.39061,0.11068,0.66407,0.33203,0.11716,0.0912,0.17576,0.20834,0.17578,0.35156-0.00002,0.58595-0.84637,1.582-2.5391,2.9883-0.65106,0.53386-1.3412,0.80079-2.0703,0.80079-0.44272,0-0.89194-0.0846-1.3476-0.25391-2.4479,2.6823-4.694,4.0234-6.7383,4.0234-1.4583,0-2.5586-0.56641-3.3008-1.6992-0.55989-0.82031-0.83984-1.7578-0.83984-2.8125,0-0.625,0.41015-1.7838,1.2305-3.4766,0.62499-1.237,1.2565-2.474,1.8945-3.7109-1.0677,1.4323-2.2786,3.0078-3.6328,4.7266-0.59896,0.59897-1.0482,0.89844-1.3477,0.89844-0.19531,0-0.39062-0.0976-0.58594-0.29297-0.19531-0.20833-0.29296-0.41015-0.29296-0.60547" transform="translate(-155.857 -348.676)"/><path d="m462.8,374.18c0-0.24739,0.0911-0.47525,0.27344-0.68359,1.1849-1.4974,2.4674-2.9752,3.8476-4.4336,2.1354-2.3047,4.0234-3.8281,5.6641-4.5703,0.92447-0.42967,1.8229-0.64451,2.6953-0.64453,1.6406,0.00002,2.7409,0.83335,3.3008,2.5,0.11717,0.3646,0.17576,0.78777,0.17578,1.2695-0.00002,1.6276-0.60548,3.6328-1.8164,6.0156,0.28645,0.16927,0.43619,0.50782,0.44922,1.0156,0.8203-0.1953,1.4713-0.70963,1.9531-1.543,0.36456-0.36457,0.72915-0.48827,1.0938-0.37109,0.3906,0.14324,0.58592,0.33855,0.58593,0.58594-0.00001,0.26042-0.19533,0.61198-0.58593,1.0547-1.237,1.6406-2.6693,2.5195-4.2969,2.6367-0.1172,0.013-0.22788,0.0195-0.33203,0.0195-0.39064,0.00001-0.72267-0.0781-0.99609-0.23437-2.1354,2.8125-4.5117,4.2188-7.1289,4.2188-1.237,0-2.22-0.39714-2.9492-1.1914-0.71614-0.80729-1.0742-1.888-1.0742-3.2422,0-0.58594,0.0716-1.1914,0.21485-1.8164-0.0911,0.0911-0.20834,0.13672-0.35157,0.13672-0.48177,0-0.72265-0.24088-0.72265-0.72266m7.3633,3.1641c0.16926,0.0781,0.33853,0.1172,0.50781,0.11719,0.76822,0.00001,1.4583-0.6901,2.0703-2.0703-0.31251-0.55989-0.46875-1.1328-0.46875-1.7188,0-0.33853,0.0586-0.65103,0.17579-0.9375,0.24738-0.62499,0.79426-0.93749,1.6406-0.9375,0.22134,0.00001,0.46223,0.0195,0.72266,0.0586,0.93748-1.8099,1.4062-3.164,1.4062-4.0625-0.00002-0.67707-0.32554-1.0156-0.97657-1.0156-0.96355,0.00001-2.2721,1.5169-3.9258,4.5508-1.25,2.2526-1.875,3.8281-1.875,4.7266,0,0.63803,0.24088,1.0677,0.72266,1.2891" transform="translate(-155.857 -348.676)"/><path d="m478.59,374.18c0-0.24739,0.0911-0.47525,0.27344-0.68359,1.1849-1.4974,2.4674-2.9752,3.8476-4.4336,2.1354-2.3047,4.0234-3.8281,5.6641-4.5703,0.92447-0.42967,1.8229-0.64451,2.6953-0.64453,1.6406,0.00002,2.7409,0.83335,3.3008,2.5,0.11717,0.3646,0.17576,0.78777,0.17578,1.2695-0.00002,1.6276-0.60548,3.6328-1.8164,6.0156,0.28645,0.16927,0.43619,0.50782,0.44922,1.0156,0.8203-0.1953,1.4713-0.70963,1.9531-1.543,0.36456-0.36457,0.72915-0.48827,1.0938-0.37109,0.3906,0.14324,0.58592,0.33855,0.58593,0.58594-0.00001,0.26042-0.19533,0.61198-0.58593,1.0547-1.237,1.6406-2.6693,2.5195-4.2969,2.6367-0.1172,0.013-0.22788,0.0195-0.33203,0.0195-0.39064,0.00001-0.72267-0.0781-0.99609-0.23437-2.1354,2.8125-4.5117,4.2188-7.1289,4.2188-1.237,0-2.22-0.39714-2.9492-1.1914-0.71614-0.80729-1.0742-1.888-1.0742-3.2422,0-0.58594,0.0716-1.1914,0.21485-1.8164-0.0911,0.0911-0.20834,0.13672-0.35157,0.13672-0.48177,0-0.72265-0.24088-0.72265-0.72266m7.3633,3.1641c0.16926,0.0781,0.33853,0.1172,0.50781,0.11719,0.76822,0.00001,1.4583-0.6901,2.0703-2.0703-0.31251-0.55989-0.46875-1.1328-0.46875-1.7188,0-0.33853,0.0586-0.65103,0.17579-0.9375,0.24738-0.62499,0.79426-0.93749,1.6406-0.9375,0.22134,0.00001,0.46223,0.0195,0.72266,0.0586,0.93748-1.8099,1.4062-3.164,1.4062-4.0625-0.00002-0.67707-0.32554-1.0156-0.97657-1.0156-0.96355,0.00001-2.2721,1.5169-3.9258,4.5508-1.25,2.2526-1.875,3.8281-1.875,4.7266,0,0.63803,0.24088,1.0677,0.72266,1.2891" transform="translate(-155.857 -348.676)"/><path d="m494.43,374.37c0-0.11718,0.026-0.24087,0.0781-0.37109,0.22135-0.41666,1.237-1.5885,3.0469-3.5156,1.0677-1.1328,2.3372-2.7344,3.8086-4.8047,1.8359-2.6172,3.1185-4.8047,3.8476-6.5625,1.1328-2.7864,2.0443-4.1797,2.7344-4.1797,0.72915,0.00003,1.5104,0.77477,2.3438,2.3242,0.28644,0.53388,0.42967,1.0156,0.42968,1.4453-0.00001,0.32554-0.0781,0.61851-0.23437,0.87891-0.1172,0.24741-1.9076,3.9974-5.3711,11.25,4.2187-4.2969,7.0638-6.4453,8.5352-6.4453,0.0651,0.00001,0.12368,0.007,0.17578,0.0195,1.3932,0.19533,2.0898,0.8073,2.0898,1.8359-0.00002,0.57294-0.21487,1.2565-0.64453,2.0508-0.59898,1.0938-1.3347,1.6406-2.207,1.6406-0.26043,0.00001-0.69663-0.11067-1.3086-0.33203-0.22137-0.11718-0.45575-0.24087-0.70312-0.37109-0.2344-0.14322-0.4232-0.18879-0.56641-0.13672-0.55991,0.2474-1.3346,0.81381-2.3242,1.6992,0.70311-0.11718,1.2435-0.17578,1.6211-0.17579,0.70311,0.00001,1.1068,0.18231,1.2109,0.54688,0.0781,0.28647,0.0781,0.66407,0,1.1328-0.0781,0.36459-0.14975,0.73569-0.21484,1.1133-0.0391,0.28647-0.0586,0.54037-0.0586,0.76172-0.00001,0.4948,0.0911,0.82683,0.27344,0.9961,0.16926,0.14323,0.35806,0.21484,0.56641,0.21484,0.55988,0,1.1458-0.40364,1.7578-1.2109,0.69009-0.91145,1.2109-1.3672,1.5625-1.3672-0.00002,0.00001,0.006,0.00001,0.0195,0,0.16925,0.00001,0.33201,0.10418,0.48828,0.3125,0.16925,0.19532,0.25389,0.39064,0.25391,0.58594-0.00002,0.22136-0.0847,0.41668-0.25391,0.58594-0.70314,0.76823-1.4193,1.556-2.1484,2.3633-1.3282,1.4323-2.4024,2.4089-3.2227,2.9297-1.4063,0.92448-2.7018,1.3867-3.8867,1.3867s-1.8555-0.59245-2.0117-1.7774c-0.013-0.0651-0.0195-0.1302-0.0195-0.19531-0.00001-0.41666,0.12369-1.0677,0.37109-1.9531,0.28645-1.0417,0.42968-1.7773,0.42969-2.207-0.00001-0.42968-0.0977-0.65103-0.29297-0.66406-0.19532,0.00001-0.48829,0.23438-0.8789,0.70313-0.84637,1.0417-1.7057,2.0898-2.5781,3.1445-1.263,1.4974-2.0898,2.3763-2.4805,2.6367-0.3776,0.26041-0.89193,0.39062-1.543,0.39062-1.1328,0-1.7057-0.39062-1.7188-1.1719,0-0.92448,1.8164-4.6354,5.4492-11.133-3.2162,4.2839-5.1042,6.4258-5.6641,6.4258-0.50781,0-0.76172-0.26693-0.76172-0.80079" transform="translate(-155.857 -348.676)"/></g><g fill="#ffbd00"><path d="m165.81,376.16c0-1.7969,0.54687-3.1771,1.6406-4.1406,0.84636-0.7552,1.7969-1.1328,2.8516-1.1328,0.79426,0.00002,1.4648,0.26694,2.0117,0.80079,0.54686,0.53386,0.8203,1.1393,0.82031,1.8164-0.00001,0.76824-0.39063,1.4193-1.1719,1.9531-0.76823,0.53386-1.1589,0.8138-1.1719,0.83984-0.50782,0.48178-0.76172,1.0547-0.76172,1.7188,0,0.67709,0.27343,1.1458,0.82031,1.4062,0.24739,0.0911,0.72265,0.17578,1.4258,0.25391,0.0781,0.013,0.16276,0.0195,0.25391,0.0195,2.6693,0,6.1068-3.9844,10.312-11.953,2.7604-5.2213,5.7356-9.1211,8.9258-11.699-0.96357-0.26039-1.9922-0.39059-3.0859-0.39062-3.099,0.00003-5.8659,0.96357-8.3008,2.8906-2.4349,1.9141-3.6524,4.0495-3.6523,6.4062-0.00001,1.0156,0.22134,1.7643,0.66406,2.2461,0.26041,0.28647,0.70962,0.52736,1.3477,0.72265,0.65103,0.19533,1.0612,0.37762,1.2305,0.54688,0.33852,0.31251,0.50779,0.70965,0.50781,1.1914-0.013,0.79428-0.47528,1.1914-1.3867,1.1914-0.0912,0.00001-0.18881-0.006-0.29297-0.0195-0.82032-0.0781-1.6276-0.55337-2.4219-1.4258-0.9896-1.0677-1.4844-2.3828-1.4844-3.9453-0.00001-2.6562,1.2435-5.1888,3.7305-7.5977,2.9166-2.7734,6.6341-4.1601,11.152-4.1602,0.026,0.00003,0.0455,0.00003,0.0586,0,1.6276,0.00003,3.1054,0.17581,4.4336,0.52735,0.7682-0.50779,1.6015-1.0221,2.5-1.543,0.3906-0.22133,0.75518-0.332,1.0938-0.33203,0.62497,0.00003,0.93747,0.25393,0.9375,0.76172-0.00003,0.41669-0.28649,0.75523-0.85937,1.0156-0.67712,0.31253-1.224,0.59248-1.6406,0.83985,2.0052,0.93752,3.5156,2.3242,4.5312,4.1602,0.76819,1.3542,1.1588,2.6367,1.1719,3.8477-0.00004,1.1068-0.41671,2.2005-1.25,3.2812-0.82035,1.0807-1.6537,1.7578-2.5,2.0312-0.96358,0.28647-1.8099,0.44272-2.5391,0.46875,0.24737,0.19532,0.4557,0.39064,0.625,0.58594,0.3906,0.45574,0.60544,0.88542,0.64453,1.2891,0.0651,0.66407,0.0976,1.2891,0.0977,1.875-0.00003,0.72917-0.0521,1.3802-0.15625,1.9531-0.0781,0.33855-0.013,0.66407,0.19531,0.97657s0.49476,0.46875,0.85938,0.46875c0.50778,0,1.0221-0.35156,1.543-1.0547,0.36455-0.45572,0.80074-0.68359,1.3086-0.6836,0.36455,0.00001,0.54684,0.14324,0.54688,0.42969-0.00004,0.39063-0.31254,0.95704-0.9375,1.6992-1.237,1.4974-2.5586,2.793-3.9648,3.8867-1.8099,1.4062-3.3334,2.1094-4.5703,2.1094-1.888,0-2.832-1.0156-2.832-3.0469-0.00002-1.1328,0.5794-3.5156,1.7383-7.1484,0.28643-0.92447,0.43617-1.6406,0.44922-2.1484-0.00003-0.42967-0.12372-0.75519-0.3711-0.97656-0.22137-0.11717-0.44273-0.26691-0.66406-0.44922-0.20835-0.18227-0.31252-0.42967-0.3125-0.74218-0.00002-0.67707,0.46873-1.1002,1.4062-1.2695,1.5234-0.2604,2.6172-0.59243,3.2812-0.99609,1.3281-0.79425,1.9922-2.0963,1.9922-3.9062-0.00003-2.0312-0.89847-3.5807-2.6953-4.6484-1.9662,2.2266-4.043,6.7643-6.2305,13.613-1.2761,3.9714-3.3203,7.0898-6.1328,9.3555-2.4479,1.9792-4.9414,2.9753-7.4805,2.9883-2.3438,0-4.3034-0.63151-5.8789-1.8945s-2.3633-2.8841-2.3633-4.8633" transform="translate(-155.857 -348.676)"/><path d="m198.99,375.61c0-0.28645,0.24089-0.59895,0.72266-0.9375,0.26042-0.19531,1.0612-1.0872,2.4023-2.6758,1.3542-1.6016,2.7344-2.9232,4.1406-3.9648,1.9792-1.4974,3.7435-2.2526,5.293-2.2656,1.0156,0.00001,1.8294,0.306,2.4414,0.91797,0.67707,0.67709,1.0156,1.3998,1.0156,2.168-0.00002,1.1589-0.72918,2.5196-2.1875,4.082-2.0052,2.1224-4.3164,3.5938-6.9336,4.4141-0.013,0.13021-0.0195,0.25391-0.0195,0.37109,0,1.0807,0.48828,1.6341,1.4648,1.6602h0.0781c0.66406,0,1.4974-0.28646,2.5-0.85938,0.93749-0.58593,1.7643-1.2435,2.4805-1.9726,0.92447-0.98958,1.5495-1.582,1.875-1.7774,0.32551-0.20832,0.52082-0.31249,0.58594-0.3125,0.1953,0.00001,0.43618,0.0912,0.72265,0.27344,0.11718,0.0911,0.18228,0.21485,0.19532,0.37109-0.00002,0.53386-0.84637,1.5886-2.5391,3.1641-3.125,2.8776-5.9831,4.3164-8.5742,4.3164-0.79428,0-1.4974-0.16927-2.1094-0.50781-0.82031-0.45573-1.4583-1.1719-1.9141-2.1484-0.3125-0.63801-0.46875-1.2044-0.46875-1.6992,0-0.11718,0.007-0.22786,0.0195-0.33203,0.0911-0.59895,0.16276-0.99609,0.21484-1.1914,0.14323-0.39062,0.41016-0.74218,0.80078-1.0547-0.625,0.62501-1.0677,0.9375-1.3281,0.9375-0.22135,0-0.42318-0.10416-0.60547-0.3125-0.18229-0.22135-0.27344-0.4427-0.27344-0.66406m8.8281-2.4024c-0.013,0.32553,0.16275,0.48829,0.52734,0.48828,0.39062,0.00001,1.2174-0.67056,2.4805-2.0117,0.74218-0.78124,1.1133-1.6016,1.1133-2.4609-0.00001-0.41666-0.14324-0.62499-0.42969-0.625-0.45574,0.00001-1.276,0.78777-2.4609,2.3633-0.82032,0.98959-1.2305,1.7383-1.2305,2.2461" transform="translate(-155.857 -348.676)"/><path d="m213.29,375.91c0-0.3125,0.24088-0.61198,0.72265-0.89844,0.48178-0.29947,1.3281-1.224,2.5391-2.7734,1.4062-1.7969,2.7279-3.2096,3.9648-4.2383,1.7969-1.5234,3.4766-2.2851,5.0391-2.2852,0.98957,0.00002,1.875,0.2995,2.6562,0.89844,1.5234-2.8125,3.2161-5.8594,5.0781-9.1406,0.16925-0.28644,0.35154-0.59243,0.54687-0.91797,0.13019-0.16925,0.31248-0.25388,0.54688-0.25391,0.0781,0.00003,0.16925,0.013,0.27344,0.0391,0.67706,0.0912,1.263,0.51435,1.7578,1.2695,0.55987,0.84638,0.83331,1.5365,0.82031,2.0703-0.00002,0.59898-1.1719,3.3073-3.5156,8.125-1.0156,2.2005-2.2461,4.7331-3.6914,7.5976-0.22137,0.31251-0.33205,0.59897-0.33203,0.85938-0.00002,0.42969,0.25389,0.65104,0.76172,0.66406,0.28644,0.00001,0.52732-0.0976,0.72265-0.29297,0.41665-0.45572,0.97655-0.98958,1.6797-1.6016,0.33852-0.19531,0.54035-0.29296,0.60547-0.29297,0.16925,0.00001,0.3906,0.0977,0.66406,0.29297,0.11717,0.0912,0.17576,0.21485,0.17578,0.37109-0.00002,0.41668-0.82033,1.5169-2.4609,3.3008-2.2005,2.4219-4.4271,3.6328-6.6797,3.6328-1.3021,0-2.1615-1.0286-2.5781-3.0859-2.1094,2.2005-3.8672,3.3008-5.2734,3.3008-0.50782,0-0.97657-0.1237-1.4062-0.37109-1.0156-0.5599-1.5234-1.5234-1.5234-2.8906,0-0.33854,0.0326-0.6901,0.0977-1.0547,0.0911-0.62499,0.17579-1.0221,0.25391-1.1914,0.14323-0.39062,0.39714-0.74218,0.76172-1.0547-0.59896,0.59896-1.0352,0.89844-1.3086,0.89844-0.22136,0-0.42318-0.10416-0.60547-0.3125-0.19531-0.22135-0.29297-0.4427-0.29297-0.66406m7.5391,0.42968c-0.00001,0.65105,0.2539,0.97657,0.76172,0.97657,0.76822,0,1.9206-1.1458,3.457-3.4375,1.1849-1.7969,1.7773-3.138,1.7773-4.0234-0.00001-0.55988-0.24089-0.83983-0.72265-0.83985-0.6771,0.00002-1.901,1.2435-3.6719,3.7305-1.0677,1.4974-1.6016,2.6953-1.6016,3.5938" transform="translate(-155.857 -348.676)"/><path d="m241.37,379.38c0-1.0156,0.31901-2.1159,0.95703-3.3008,0.28645-0.53385,0.76171-0.98958,1.4258-1.3672,0.66406-0.39062,1.3346-0.58593,2.0117-0.58594,1.0417,0.00001,1.8294,0.45574,2.3633,1.3672,0.31249,0.5599,0.46874,1.0807,0.46875,1.5625-0.00001,1.0938-0.78777,1.9401-2.3633,2.5391-0.26042,0.0912-0.39063,0.42318-0.39063,0.9961,0,0.65104,0.26041,1.2109,0.78125,1.6797,0.52083,0.46875,1.0938,0.70313,1.7188,0.70313,1.9141,0,4.0234-1.8099,6.3281-5.4297,0.67707-1.0677,1.2565-2.1094,1.7383-3.125-1.7188-0.28645-3.1445-1.0286-4.2774-2.2266-1.2109-1.263-1.8294-2.8125-1.8555-4.6484-0.00001-0.0521-0.00001-0.10415,0-0.15625-0.00001-3.2552,1.6536-6.1393,4.9609-8.6523,3.2422-2.4739,6.7773-3.7109,10.605-3.7109,2.2005,0.0131,3.8932,0.31904,5.0781,0.91797,0.65101,0.31252,0.97653,0.65107,0.97656,1.0156-0.00003,0.22138-0.13024,0.4232-0.39063,0.60547-1.5495,1.1068-2.9753,2.4154-4.2773,3.9258-1.4584,1.6406-2.8255,4.668-4.1016,9.082,0.55987-0.36457,1.0416-0.75519,1.4453-1.1719,0.31248-0.31249,0.65102-0.46874,1.0156-0.46875,0.36456,0.00001,0.55987,0.15626,0.58593,0.46875-0.00002,0.36459-0.27997,0.78777-0.83984,1.2695-0.58596,0.55991-1.543,1.3607-2.8711,2.4023-0.75523,2.6172-1.4193,4.5768-1.9922,5.8789-0.76825,1.7969-1.6862,3.1901-2.7539,4.1797-0.84637,0.76823-2.0117,1.4323-3.4961,1.9922-1.6016,0.58593-3.1966,0.8789-4.7852,0.8789-2.1745,0-3.9518-0.57292-5.332-1.7188-1.8099-1.4974-2.7214-3.1315-2.7344-4.9023m13.105-12.109c-0.013,0.14325-0.0195,0.27997-0.0195,0.41016-0.00001,1.0417,0.27343,1.9531,0.82032,2.7344,0.53384,0.78127,1.263,1.3281,2.1875,1.6406,0.62498-1.4974,1.237-3.0013,1.8359-4.5117,0.76821-1.6406,1.6797-3.0794,2.7344-4.3164,2.4739-2.9817,4.388-4.9284,5.7422-5.8398-0.75524-0.4557-1.7253-0.68357-2.9102-0.68359-2.3047,0.00002-4.4857,0.89195-6.543,2.6758-2.3698,2.0573-3.6524,4.6875-3.8477,7.8906" transform="translate(-155.857 -348.676)"/><path d="m263.68,375.28c0-0.14323,0.20834-0.40364,0.625-0.78125,0.42969-0.39062,0.83985-0.76823,1.2305-1.1328,0.59896-0.5078,1.5169-1.4909,2.7539-2.9492,0.7552-1.0677,1.4193-1.875,1.9922-2.4219,1.0677-0.96353,2.3047-1.6536,3.7109-2.0703,0.62499-0.1953,1.3151-0.29296,2.0703-0.29297,1.3281,0.00001,2.3893,0.22788,3.1836,0.68359,0.48175-0.96352,0.72264-1.4583,0.72266-1.4844,0.36456-0.8203,0.8268-1.3021,1.3867-1.4453,0.039-0.013,0.0781-0.0195,0.11719-0.0195,0.39061,0.00002,0.95701,0.39065,1.6992,1.1719,0.65102,0.70314,0.97654,1.3802,0.97656,2.0312-0.00002,0.45574-0.27996,1.2175-0.83984,2.2852-0.62502,1.237-1.5755,3.0664-2.8516,5.4883-0.48179,0.89844-0.72919,1.6602-0.74219,2.2852-0.00002,0.41667,0.0846,0.67058,0.25391,0.76172,0.013,0.013,0.039,0.0195,0.0781,0.0195,0.22134,0.00001,0.72915-0.319,1.5234-0.95703,0.79425-0.65103,1.4388-1.2565,1.9336-1.8164,0.28644-0.33853,0.46873-0.5078,0.54688-0.50781,0.14321,0.00001,0.30597,0.12371,0.48828,0.3711,0.19529,0.23438,0.29295,0.4362,0.29297,0.60546-0.00002,0.22137-0.15627,0.4948-0.46875,0.82032-0.31252,0.32552-0.63804,0.67058-0.97657,1.0352-0.50783,0.5599-1.4193,1.3998-2.7344,2.5195-1.3151,1.1198-2.207,1.8294-2.6758,2.1289-0.82033,0.50781-1.6146,0.76172-2.3828,0.76172-0.59897,0-1.1524-0.17578-1.6602-0.52734-0.4948-0.35157-0.7422-0.89193-0.74219-1.6211-0.00001-0.36458,0.0586-0.76171,0.17578-1.1914-1.3542,1.1328-2.4805,1.9531-3.3789,2.4609-0.88542,0.50782-1.7774,0.76172-2.6758,0.76172-0.89844,0-1.6406-0.27344-2.2266-0.82031-0.57291-0.5599-0.85937-1.276-0.85937-2.1484,0-0.87239,0.22786-1.7838,0.68359-2.7344-0.53385,0.0521-0.87239,0.013-1.0156-0.11719-0.14323-0.1302-0.21485-0.51432-0.21485-1.1523m7.1875,1.4648c0,0.53386,0.21484,0.80079,0.64453,0.80078,0.50781,0.00001,1.25-0.5013,2.2266-1.5039,0.72915-0.76822,1.3476-1.5299,1.8555-2.2852,1.1588-1.7708,1.7383-3.099,1.7383-3.9844-0.00002-0.58592-0.2409-0.87889-0.72266-0.8789-0.65105,0.00001-1.875,1.25-3.6719,3.75-1.3802,1.9401-2.0703,3.3073-2.0703,4.1016" transform="translate(-155.857 -348.676)"/><path d="m282.9,375.32c0-0.26041,0.22787-0.57291,0.6836-0.9375,0.33854-0.26041,1.1588-1.1588,2.4609-2.6953,1.4323-1.6406,2.793-3.0078,4.082-4.1016,1.6016-1.3802,3.2682-2.0703,5-2.0703,0.79425,0.00002,1.556,0.14976,2.2852,0.44922,0.53384,0.22137,0.8854,0.43621,1.0547,0.64453,0.55988,0.65106,0.83983,1.3802,0.83984,2.1875-0.00001,0.79428-0.27996,1.556-0.83984,2.2852-0.6771,0.8724-1.4128,1.3086-2.207,1.3086-1.1589,0.00001-1.7448-0.54686-1.7578-1.6406-0.00002-0.36458,0.0976-0.71614,0.29296-1.0547,0.26041-0.48176,0.69661-0.76822,1.3086-0.85938-0.26043-0.22134-0.54689-0.33201-0.85938-0.33203-1.1328,0.00002-2.4674,1.4779-4.0039,4.4336-0.96355,1.888-1.4453,3.3594-1.4453,4.4141,0,1.1328,0.48177,1.7122,1.4453,1.7383h0.0781c0.66406,0,1.4974-0.28646,2.5-0.85938,0.92447-0.55989,1.7383-1.2174,2.4414-1.9726,0.92446-0.96354,1.5495-1.556,1.875-1.7774,0.33852-0.23436,0.55988-0.35155,0.66406-0.35156,0.16926,0.00001,0.3841,0.11069,0.64453,0.33203,0.11717,0.0912,0.17577,0.20834,0.17578,0.35157-0.00001,0.50781-0.84637,1.5625-2.5391,3.1641-3.0729,2.9036-5.9115,4.3555-8.5156,4.3555-0.79428,0-1.5104-0.18229-2.1484-0.54688-0.79427-0.45573-1.4258-1.1719-1.8945-2.1484-0.3125-0.62499-0.46875-1.1784-0.46875-1.6602,0-0.13021,0.013-0.2539,0.0391-0.3711,0.0911-0.59895,0.17578-0.99608,0.25391-1.1914,0.14322-0.39062,0.39713-0.74218,0.76171-1.0547-0.58593,0.62501-1.0352,0.93751-1.3476,0.9375-0.22136,0.00001-0.42318-0.10416-0.60547-0.3125-0.16927-0.22135-0.25391-0.4427-0.25391-0.66406" transform="translate(-155.857 -348.676)"/><path d="m297.19,375.73c0-0.11718,0.026-0.24087,0.0781-0.37109,0.22136-0.41666,1.237-1.5885,3.0469-3.5156,1.0677-1.1328,2.3372-2.7344,3.8086-4.8047,1.8359-2.6172,3.1185-4.8047,3.8477-6.5625,1.1328-2.7864,2.0443-4.1797,2.7344-4.1797,0.72916,0.00003,1.5104,0.77477,2.3438,2.3242,0.28645,0.53388,0.42967,1.0156,0.42969,1.4453-0.00002,0.32554-0.0781,0.61851-0.23437,0.87891-0.11721,0.24741-1.9076,3.9974-5.3711,11.25,4.2187-4.2969,7.0638-6.4453,8.5352-6.4453,0.0651,0.00001,0.12368,0.007,0.17578,0.0195,1.3932,0.19533,2.0898,0.8073,2.0898,1.8359-0.00002,0.57293-0.21486,1.2565-0.64453,2.0508-0.59898,1.0938-1.3346,1.6406-2.207,1.6406-0.26043,0.00001-0.69663-0.11067-1.3086-0.33203-0.22137-0.11718-0.45575-0.24087-0.70313-0.37109-0.23439-0.14322-0.42319-0.18879-0.5664-0.13672-0.55992,0.2474-1.3346,0.81381-2.3242,1.6992,0.70311-0.11718,1.2435-0.17578,1.6211-0.17579,0.70311,0.00001,1.1068,0.18231,1.2109,0.54688,0.0781,0.28647,0.0781,0.66407,0,1.1328-0.0781,0.36459-0.14976,0.73569-0.21485,1.1133-0.0391,0.28647-0.0586,0.54037-0.0586,0.76172-0.00002,0.4948,0.0911,0.82683,0.27344,0.9961,0.16925,0.14323,0.35805,0.21484,0.5664,0.21484,0.55988,0,1.1458-0.40364,1.7578-1.2109,0.69008-0.91145,1.2109-1.3672,1.5625-1.3672-0.00002,0.00001,0.006,0.00001,0.0195,0,0.16925,0.00001,0.33201,0.10418,0.48828,0.3125,0.16925,0.19532,0.25389,0.39064,0.25391,0.58594-0.00002,0.22136-0.0847,0.41668-0.25391,0.58594-0.70315,0.76823-1.4193,1.556-2.1484,2.3633-1.3281,1.4323-2.4024,2.4089-3.2226,2.9297-1.4063,0.92448-2.7018,1.3867-3.8867,1.3867s-1.8555-0.59245-2.0117-1.7774c-0.013-0.0651-0.0195-0.1302-0.0195-0.19531-0.00001-0.41666,0.12369-1.0677,0.37109-1.9531,0.28645-1.0417,0.42968-1.7773,0.42969-2.207-0.00001-0.42968-0.0977-0.65103-0.29297-0.66406-0.19532,0.00001-0.48829,0.23438-0.87891,0.70313-0.84636,1.0417-1.7057,2.0898-2.5781,3.1445-1.263,1.4974-2.0898,2.3763-2.4805,2.6367-0.37761,0.26041-0.89193,0.39062-1.543,0.39062-1.1328,0-1.7057-0.39062-1.7188-1.1719,0-0.92448,1.8164-4.6354,5.4492-11.133-3.2162,4.2839-5.1042,6.4258-5.6641,6.4258-0.50782,0-0.76172-0.26693-0.76172-0.80079" transform="translate(-155.857 -348.676)"/><path d="m316.49,375.61c0-0.28645,0.24089-0.59895,0.72266-0.9375,0.26042-0.19531,1.0612-1.0872,2.4023-2.6758,1.3542-1.6016,2.7344-2.9232,4.1406-3.9648,1.9792-1.4974,3.7435-2.2526,5.293-2.2656,1.0156,0.00001,1.8294,0.306,2.4414,0.91797,0.67707,0.67709,1.0156,1.3998,1.0156,2.168-0.00002,1.1589-0.72918,2.5196-2.1875,4.082-2.0052,2.1224-4.3164,3.5938-6.9336,4.4141-0.013,0.13021-0.0195,0.25391-0.0195,0.37109,0,1.0807,0.48828,1.6341,1.4648,1.6602h0.0781c0.66406,0,1.4974-0.28646,2.5-0.85938,0.93749-0.58593,1.7643-1.2435,2.4805-1.9726,0.92447-0.98958,1.5495-1.582,1.875-1.7774,0.32551-0.20832,0.52082-0.31249,0.58594-0.3125,0.1953,0.00001,0.43618,0.0912,0.72265,0.27344,0.11718,0.0911,0.18228,0.21485,0.19532,0.37109-0.00002,0.53386-0.84637,1.5886-2.5391,3.1641-3.125,2.8776-5.9831,4.3164-8.5742,4.3164-0.79428,0-1.4974-0.16927-2.1094-0.50781-0.82031-0.45573-1.4583-1.1719-1.9141-2.1484-0.3125-0.63801-0.46875-1.2044-0.46875-1.6992,0-0.11718,0.007-0.22786,0.0195-0.33203,0.0911-0.59895,0.16276-0.99609,0.21484-1.1914,0.14323-0.39062,0.41016-0.74218,0.80078-1.0547-0.625,0.62501-1.0677,0.9375-1.3281,0.9375-0.22135,0-0.42318-0.10416-0.60547-0.3125-0.18229-0.22135-0.27344-0.4427-0.27344-0.66406m8.8281-2.4024c-0.013,0.32553,0.16275,0.48829,0.52734,0.48828,0.39062,0.00001,1.2174-0.67056,2.4805-2.0117,0.74218-0.78124,1.1133-1.6016,1.1133-2.4609-0.00001-0.41666-0.14324-0.62499-0.42969-0.625-0.45574,0.00001-1.276,0.78777-2.4609,2.3633-0.82032,0.98959-1.2305,1.7383-1.2305,2.2461" transform="translate(-155.857 -348.676)"/><path d="m331.49,376.16c-0.20833-0.1302-0.3125-0.28645-0.3125-0.46875-0.013-0.1953,0.0912-0.41666,0.3125-0.66406,1.7057-1.888,3.8021-4.2969,6.2891-7.2266-0.76824,0.00001-1.1589-0.29947-1.1719-0.89844,0-0.1953,0.0586-0.41014,0.17578-0.64453,0.26041-0.45571,1.1979-0.69009,2.8125-0.70313,0.28645-0.33852,0.5013-0.60545,0.64453-0.80078,0.16927-0.28644,1.0677-1.7708,2.6953-4.4531,0.2604-0.42967,0.54686-0.65102,0.85937-0.66407,0.28645,0.00003,0.62499,0.22138,1.0156,0.66407,0.31248,0.3646,0.61847,0.72918,0.91796,1.0938,0.33853,0.48179,0.5078,0.9896,0.50782,1.5234-0.00002,0.58596-0.16929,1.237-0.50782,1.9531-0.00001-0.026-0.13673,0.22788-0.41015,0.76172,2.0312,0.00001,3.0469,0.20835,3.0469,0.625-0.00001,0.1172-0.0586,0.27345-0.17578,0.46875-0.00001,0.00001-0.21486,0.31251-0.64453,0.9375-0.16929,0.14324-0.52085,0.21486-1.0547,0.21484-0.16928,0.00002-0.51433-0.013-1.0352-0.0391-0.52085-0.026-0.95054-0.039-1.2891-0.0391-0.92449,1.6276-1.5039,2.6237-1.7383,2.9883-0.00001-0.0521,0.14322-0.319,0.42969-0.80078-0.00001,0.00001-0.50131,0.95704-1.5039,2.8711s-1.556,3.0143-1.6602,3.3008c-0.14324,0.36459-0.21485,0.67058-0.21485,0.91797,0,0.31251,0.11067,0.52735,0.33204,0.64453,0.11718,0.0781,0.35806,0.0651,0.72265-0.0391,0.36458-0.11718,0.64452-0.27343,0.83985-0.46875,0.92446-0.72916,1.9857-1.6146,3.1836-2.6562,0.28644-0.31249,0.62499-0.46874,1.0156-0.46875,0.5078,0.00001,0.76171,0.22787,0.76172,0.68359-0.00001,0.22136-0.21485,0.58595-0.64453,1.0938-0.96355,1.1589-2.4544,2.4674-4.4726,3.9258-2.3438,1.6667-4.0951,2.5-5.2539,2.5-0.9375,0-1.6992-0.35156-2.2852-1.0547-0.45573-0.50781-0.68359-1.0482-0.68359-1.6211,0-0.0911,0.007-0.1888,0.0195-0.29297,0.22135-1.6667,1.3346-4.2252,3.3398-7.6758-0.9375,1.211-2.1224,2.6432-3.5547,4.2969-0.27344,0.27344-0.53386,0.41016-0.78125,0.41015-0.18229,0.00001-0.35808-0.0651-0.52735-0.19531" transform="translate(-155.857 -348.676)"/><path d="m344.21,376.16c-0.20834-0.14322-0.3125-0.30598-0.3125-0.48828,0-0.19531,0.10416-0.41015,0.3125-0.64453,1.1328-1.3281,3.0338-3.4896,5.7031-6.4844,1.0938-1.1588,2.2786-2.1028,3.5547-2.832,1.289-0.72915,2.3893-1.0937,3.3008-1.0938,1.6276,0.00002,2.4414,0.69012,2.4414,2.0703-0.00002,0.50782-0.20835,0.95704-0.625,1.3476-0.41668,0.37762-0.85288,0.56642-1.3086,0.56641-0.1172,0.00001-0.23438-0.007-0.35156-0.0195-0.31251-0.0781-0.57944-0.11718-0.80078-0.11719-0.29949,0.00001-0.52736,0.0781-0.68359,0.23437-0.26043,0.26043-0.39715,0.55991-0.41016,0.89844-0.00001,0.33856,0.14322,1.0026,0.42969,1.9922,0.0521,0.1172,0.319,0.78126,0.80078,1.9922,0.28644,0.72917,0.42967,1.4062,0.42969,2.0312,0.48175-0.22135,0.94399-0.57291,1.3867-1.0547,0.28645-0.33853,0.62499-0.50781,1.0156-0.50781,0.5078,0,0.7617,0.24089,0.76172,0.72265-0.00002,0.22136-0.21486,0.58595-0.64453,1.0938-0.75523,0.89845-1.7253,1.4453-2.9102,1.6406-0.65105,1.8099-1.6927,3.125-3.125,3.9453-0.96355,0.5599-1.9531,0.83984-2.9688,0.83984-2.3047,0-3.7826-0.59244-4.4336-1.7773-0.41667-0.72916-0.625-1.4583-0.625-2.1875,0-1.2109,0.47526-2.0443,1.4258-2.5,0.76822-0.36458,1.556-0.54687,2.3633-0.54687,0.45572,0,1.3151,0.0846,2.5781,0.2539,0.0781-0.41666,0.11718-1.0547,0.11719-1.9141-0.00001-0.3776-0.007-0.80077-0.0195-1.2695-0.00001-0.14322-0.00001-0.27994,0-0.41016-0.00001-1.1588,0.0976-2.0638,0.29297-2.7148-0.70313,0.41668-1.8034,1.4844-3.3008,3.2031-1.9401,2.2266-2.9688,3.3984-3.0859,3.5156-0.26042,0.26042-0.52083,0.39063-0.78125,0.39062-0.16927,0.00001-0.34505-0.0586-0.52734-0.17578m3.418,1.9141c-0.00001,0.4297,0.22786,0.76824,0.68359,1.0156,0.16927,0.0781,0.33854,0.11719,0.50781,0.11719,0.80729,0,1.5234-0.63802,2.1484-1.9141-0.93751-0.11718-1.6406-0.17577-2.1094-0.17578-0.33854,0.00001-0.55338,0.0326-0.64453,0.0977-0.39063,0.2474-0.58594,0.53386-0.58593,0.85937" transform="translate(-155.857 -348.676)"/><path d="m366.49,379.68c0-2.0052,0.83334-3.6133,2.5-4.8242,0.42969-0.31249,0.92448-0.46874,1.4844-0.46875,2.2005,0.00001,3.3073,0.78777,3.3203,2.3633-0.00001,0.75521-0.35157,1.5039-1.0547,2.2461-0.85938,0.92448-1.2891,1.6602-1.2891,2.207,0,0.0521,0.007,0.10417,0.0195,0.15625,0.19531,1.1068,0.74869,1.6602,1.6602,1.6602,1.0677,0,2.2526-0.52083,3.5547-1.5625,1.8359-1.4714,3.3594-3.7174,4.5703-6.7383,0.40363-1.0026,0.73566-1.8034,0.99609-2.4023-1.237,0.00001-2.3763-0.74869-3.418-2.2461-0.84636,0.31251-1.6732,0.46876-2.4805,0.46875-1.263,0.00001-2.3438-0.54686-3.2422-1.6406-0.88542-1.1068-1.3281-2.4219-1.3281-3.9453,0-2.9557,1.2565-5.4817,3.7695-7.5781,2.526-2.0963,5.5664-3.1445,9.1211-3.1445,1.4323,0.00003,2.6432,0.14977,3.6328,0.44922,3.4375,1.0156,5.9765,1.5235,7.6172,1.5234,1.3802,0.00003,2.3958-0.48825,3.0469-1.4648,0.22132-0.33851,0.52731-0.50778,0.91797-0.50781,0.49476,0.00003,0.74215,0.3581,0.74219,1.0742-0.00004,0.10419-0.007,0.20836-0.0195,0.3125-0.14327,1.7448-0.7292,3.2162-1.7578,4.4141-1.0287,1.1979-2.2917,1.7969-3.7891,1.7969-1.6276,0.00002-3.8282-0.55987-6.6016-1.6797-2.7735-1.1328-4.9805-1.6992-6.6211-1.6992-2.1745,0.00002-4.056,0.67059-5.6445,2.0117-1.5885,1.3412-2.3828,2.8841-2.3828,4.6289,0,1.237,0.20833,2.1094,0.625,2.6172,0.53385,0.65106,1.237,0.97658,2.1094,0.97656,0.55988,0.00002,1.0807-0.14321,1.5625-0.42968h0.0391c-0.00001-1.0417,0.15624-1.9596,0.46875-2.7539,0.41665-1.0677,1.1068-1.6016,2.0703-1.6016,0.0911,0.00001,0.18879,0.013,0.29297,0.0391,0.85936,0.26043,1.289,0.88543,1.2891,1.875-0.00001,0.28647-0.0456,0.57944-0.13672,0.87891-0.36459,0.96355-0.78777,1.7122-1.2695,2.2461,0.22134,0.31251,0.64452,0.70314,1.2695,1.1719h1.0938c2.1094-4.5312,3.8021-7.0508,5.0781-7.5586,1.1588-0.45571,1.875-0.68357,2.1484-0.68359,0.54685,0.00002,0.82029,0.22788,0.82031,0.68359-0.00002,0.24742-0.11721,0.50783-0.35156,0.78125-0.22138,0.27346-0.44273,0.53387-0.66407,0.78125-0.42971,0.65106-0.68361,1.0612-0.76171,1.2305-0.39065,0.82033-0.70315,1.9011-0.9375,3.2422,0.72914-0.11718,1.3802-0.18228,1.9531-0.19532,1.7187,0.00002,2.5781,0.53387,2.5781,1.6016-0.00003,0.70313-0.18232,1.2826-0.54688,1.7383-0.33857,0.28647-0.66409,0.58595-0.97656,0.89844-0.31253,0.29948-0.63805,0.44922-0.97656,0.44921-0.28649,0.00001-0.42971-0.11066-0.42969-0.33203,0.026-0.0911,0.039-0.18879,0.0391-0.29297-0.00002-0.31249-0.10419-0.58592-0.3125-0.82031-0.20836-0.24738-0.41018-0.37108-0.60547-0.37109-0.0261,0.00001-0.16278,0.013-0.41015,0.0391-0.2344,0.026-0.46227,0.0391-0.6836,0.0391-0.42971,3.2943-1.263,5.9896-2.5,8.0859-1.2761,2.1745-2.8711,3.8737-4.7852,5.0977s-3.9388,1.8359-6.0742,1.8359c-2.3047,0-4.2708-0.65755-5.8984-1.9726-1.6276-1.3021-2.4414-2.8711-2.4414-4.707" transform="translate(-155.857 -348.676)"/><path d="m392.82,375.28c0-0.14323,0.20833-0.40364,0.625-0.78125,0.42969-0.39062,0.83984-0.76823,1.2305-1.1328,0.59895-0.5078,1.5169-1.4909,2.7539-2.9492,0.75521-1.0677,1.4193-1.875,1.9922-2.4219,1.0677-0.96353,2.3047-1.6536,3.7109-2.0703,0.62499-0.1953,1.3151-0.29296,2.0703-0.29297,1.3281,0.00001,2.3893,0.22788,3.1836,0.68359,0.48176-0.96352,0.72264-1.4583,0.72266-1.4844,0.36457-0.8203,0.82681-1.3021,1.3867-1.4453,0.039-0.013,0.0781-0.0195,0.11719-0.0195,0.3906,0.00002,0.95701,0.39065,1.6992,1.1719,0.65102,0.70314,0.97654,1.3802,0.97656,2.0312-0.00002,0.45574-0.27997,1.2175-0.83985,2.2852-0.62501,1.237-1.5755,3.0664-2.8516,5.4883-0.48178,0.89844-0.72918,1.6602-0.74219,2.2852-0.00001,0.41667,0.0846,0.67058,0.25391,0.76172,0.013,0.013,0.039,0.0195,0.0781,0.0195,0.22133,0.00001,0.72915-0.319,1.5234-0.95703,0.79426-0.65103,1.4388-1.2565,1.9336-1.8164,0.28644-0.33853,0.46873-0.5078,0.54687-0.50781,0.14321,0.00001,0.30597,0.12371,0.48828,0.3711,0.1953,0.23438,0.29295,0.4362,0.29297,0.60546-0.00002,0.22137-0.15627,0.4948-0.46875,0.82032-0.31252,0.32552-0.63804,0.67058-0.97656,1.0352-0.50783,0.5599-1.4193,1.3998-2.7344,2.5195-1.3151,1.1198-2.207,1.8294-2.6758,2.1289-0.82032,0.50781-1.6146,0.76172-2.3828,0.76172-0.59897,0-1.1524-0.17578-1.6602-0.52734-0.4948-0.35157-0.74219-0.89193-0.74218-1.6211-0.00001-0.36458,0.0586-0.76171,0.17578-1.1914-1.3542,1.1328-2.4805,1.9531-3.3789,2.4609-0.88542,0.50782-1.7774,0.76172-2.6758,0.76172-0.89844,0-1.6406-0.27344-2.2266-0.82031-0.57292-0.5599-0.85938-1.276-0.85938-2.1484,0-0.87239,0.22787-1.7838,0.6836-2.7344-0.53386,0.0521-0.8724,0.013-1.0156-0.11719-0.14323-0.1302-0.21484-0.51432-0.21484-1.1523m7.1875,1.4648c-0.00001,0.53386,0.21484,0.80079,0.64453,0.80078,0.5078,0.00001,1.25-0.5013,2.2266-1.5039,0.72916-0.76822,1.3476-1.5299,1.8555-2.2852,1.1588-1.7708,1.7383-3.099,1.7383-3.9844-0.00001-0.58592-0.2409-0.87889-0.72265-0.8789-0.65106,0.00001-1.875,1.25-3.6719,3.75-1.3802,1.9401-2.0703,3.3073-2.0703,4.1016" transform="translate(-155.857 -348.676)"/><path d="m411.88,375.73c0-0.11718,0.026-0.24087,0.0781-0.37109,0.22136-0.41666,1.237-1.5885,3.0469-3.5156,1.0677-1.1328,2.3372-2.7344,3.8086-4.8047,1.8359-2.6172,3.1185-4.8047,3.8477-6.5625,1.1328-2.7864,2.0443-4.1797,2.7344-4.1797,0.72916,0.00003,1.5104,0.77477,2.3438,2.3242,0.28645,0.53388,0.42967,1.0156,0.42969,1.4453-0.00002,0.32554-0.0781,0.61851-0.23437,0.87891-0.11721,0.24741-1.9076,3.9974-5.3711,11.25,4.2187-4.2969,7.0638-6.4453,8.5352-6.4453,0.0651,0.00001,0.12368,0.007,0.17578,0.0195,1.3932,0.19533,2.0898,0.8073,2.0898,1.8359-0.00002,0.57293-0.21486,1.2565-0.64453,2.0508-0.59898,1.0938-1.3346,1.6406-2.207,1.6406-0.26043,0.00001-0.69663-0.11067-1.3086-0.33203-0.22137-0.11718-0.45575-0.24087-0.70313-0.37109-0.23439-0.14322-0.42319-0.18879-0.5664-0.13672-0.55992,0.2474-1.3346,0.81381-2.3242,1.6992,0.70311-0.11718,1.2435-0.17578,1.6211-0.17579,0.70311,0.00001,1.1068,0.18231,1.2109,0.54688,0.0781,0.28647,0.0781,0.66407,0,1.1328-0.0781,0.36459-0.14976,0.73569-0.21485,1.1133-0.0391,0.28647-0.0586,0.54037-0.0586,0.76172-0.00002,0.4948,0.0911,0.82683,0.27344,0.9961,0.16925,0.14323,0.35805,0.21484,0.5664,0.21484,0.55988,0,1.1458-0.40364,1.7578-1.2109,0.69008-0.91145,1.2109-1.3672,1.5625-1.3672-0.00002,0.00001,0.006,0.00001,0.0195,0,0.16925,0.00001,0.33201,0.10418,0.48828,0.3125,0.16925,0.19532,0.25389,0.39064,0.25391,0.58594-0.00002,0.22136-0.0847,0.41668-0.25391,0.58594-0.70315,0.76823-1.4193,1.556-2.1484,2.3633-1.3281,1.4323-2.4024,2.4089-3.2226,2.9297-1.4063,0.92448-2.7018,1.3867-3.8867,1.3867s-1.8555-0.59245-2.0117-1.7774c-0.013-0.0651-0.0195-0.1302-0.0195-0.19531-0.00001-0.41666,0.12369-1.0677,0.37109-1.9531,0.28645-1.0417,0.42968-1.7773,0.42969-2.207-0.00001-0.42968-0.0977-0.65103-0.29297-0.66406-0.19532,0.00001-0.48829,0.23438-0.87891,0.70313-0.84636,1.0417-1.7057,2.0898-2.5781,3.1445-1.263,1.4974-2.0898,2.3763-2.4805,2.6367-0.37761,0.26041-0.89193,0.39062-1.543,0.39062-1.1328,0-1.7057-0.39062-1.7188-1.1719,0-0.92448,1.8164-4.6354,5.4492-11.133-3.2162,4.2839-5.1042,6.4258-5.6641,6.4258-0.50782,0-0.76172-0.26693-0.76172-0.80079" transform="translate(-155.857 -348.676)"/><path d="m431.18,375.61c0-0.28645,0.24089-0.59895,0.72266-0.9375,0.26042-0.19531,1.0612-1.0872,2.4023-2.6758,1.3542-1.6016,2.7344-2.9232,4.1406-3.9648,1.9792-1.4974,3.7435-2.2526,5.293-2.2656,1.0156,0.00001,1.8294,0.306,2.4414,0.91797,0.67707,0.67709,1.0156,1.3998,1.0156,2.168-0.00002,1.1589-0.72918,2.5196-2.1875,4.082-2.0052,2.1224-4.3164,3.5938-6.9336,4.4141-0.013,0.13021-0.0195,0.25391-0.0195,0.37109,0,1.0807,0.48828,1.6341,1.4648,1.6602h0.0781c0.66406,0,1.4974-0.28646,2.5-0.85938,0.93749-0.58593,1.7643-1.2435,2.4805-1.9726,0.92447-0.98958,1.5495-1.582,1.875-1.7774,0.32551-0.20832,0.52082-0.31249,0.58594-0.3125,0.1953,0.00001,0.43618,0.0912,0.72265,0.27344,0.11718,0.0911,0.18228,0.21485,0.19532,0.37109-0.00002,0.53386-0.84637,1.5886-2.5391,3.1641-3.125,2.8776-5.9831,4.3164-8.5742,4.3164-0.79428,0-1.4974-0.16927-2.1094-0.50781-0.82031-0.45573-1.4583-1.1719-1.9141-2.1484-0.3125-0.63801-0.46875-1.2044-0.46875-1.6992,0-0.11718,0.007-0.22786,0.0195-0.33203,0.0911-0.59895,0.16276-0.99609,0.21484-1.1914,0.14323-0.39062,0.41016-0.74218,0.80078-1.0547-0.625,0.62501-1.0677,0.9375-1.3281,0.9375-0.22135,0-0.42318-0.10416-0.60547-0.3125-0.18229-0.22135-0.27344-0.4427-0.27344-0.66406m8.8281-2.4024c-0.013,0.32553,0.16275,0.48829,0.52734,0.48828,0.39062,0.00001,1.2174-0.67056,2.4805-2.0117,0.74218-0.78124,1.1133-1.6016,1.1133-2.4609-0.00001-0.41666-0.14324-0.62499-0.42969-0.625-0.45574,0.00001-1.276,0.78777-2.4609,2.3633-0.82032,0.98959-1.2305,1.7383-1.2305,2.2461" transform="translate(-155.857 -348.676)"/><path d="m446.08,375.36c0-0.22135,0.23437-0.54687,0.70312-0.97656,2.3958-2.3047,4.4726-4.9544,6.2305-7.9492,1.4714-2.7344,3.1445-5.7226,5.0195-8.9648,0.16926-0.31248,0.35155-0.61847,0.54688-0.91797,0.13019-0.16925,0.31248-0.25388,0.54687-0.25391,0.0781,0.00003,0.16926,0.013,0.27344,0.0391,0.70311,0.0912,1.289,0.51435,1.7578,1.2695,0.55988,0.87242,0.83332,1.5625,0.82031,2.0703-0.00001,0.58596-1.0742,3.0794-3.2226,7.4805-1.0677,2.1354-2.1419,4.2513-3.2227,6.3476-1.1849,2.3698-1.8034,3.8086-1.8555,4.3164,0,1.0156,0.46875,1.5234,1.4062,1.5234,1.0156,0,1.9141-0.625,2.6953-1.875-0.00002-0.0521,0.0456-0.1237,0.13671-0.21485,0.10416-0.10416,0.15624-0.1888,0.15625-0.2539-0.41667-0.65104-0.62501-1.4648-0.625-2.4414-0.00001-1.3802,0.41015-2.9297,1.2305-4.6484,0.72916-1.5234,1.6536-2.7409,2.7734-3.6523,0.42967-0.36457,0.8854-0.54686,1.3672-0.54688,0.53384,0.00002,0.99607,0.18231,1.3867,0.54688,0.3906,0.35158,0.58592,0.78126,0.58593,1.2891-0.00001,1.5755-0.24741,2.9362-0.74218,4.082-0.3646,0.87241-0.63153,1.4648-0.80078,1.7774-0.41669,0.75521-0.99611,1.6471-1.7383,2.6758,0.11718,0.19532,0.31249,0.22136,0.58594,0.0781,0.0911-0.026,0.20181-0.0846,0.33203-0.17578,0.39061-0.33853,0.77473-0.6901,1.1524-1.0547,0.62498-0.55989,1.0351-0.83983,1.2305-0.83984,0.16925,0.00001,0.3906,0.11068,0.66406,0.33203,0.11717,0.0911,0.17576,0.20834,0.17578,0.35156-0.00002,0.58595-0.84637,1.582-2.5391,2.9883-0.65106,0.53386-1.3412,0.80079-2.0703,0.80079-0.44272,0-0.89194-0.0846-1.3476-0.25391-2.4479,2.6823-4.694,4.0234-6.7383,4.0234-1.4583,0-2.5586-0.56641-3.3008-1.6992-0.5599-0.82031-0.83985-1.7578-0.83985-2.8125,0-0.625,0.41016-1.7838,1.2305-3.4766,0.625-1.237,1.2565-2.474,1.8945-3.7109-1.0677,1.4323-2.2786,3.0078-3.6328,4.7266-0.59896,0.59897-1.0482,0.89844-1.3477,0.89844-0.19531,0-0.39062-0.0976-0.58593-0.29297-0.19532-0.20833-0.29297-0.41015-0.29297-0.60547" transform="translate(-155.857 -348.676)"/><path d="m463.15,375.53c0-0.24739,0.0912-0.47525,0.27344-0.68359,1.1849-1.4974,2.4674-2.9752,3.8476-4.4336,2.1354-2.3047,4.0234-3.8281,5.6641-4.5703,0.92446-0.42967,1.8229-0.64451,2.6953-0.64453,1.6406,0.00002,2.7409,0.83335,3.3008,2.5,0.11717,0.3646,0.17577,0.78777,0.17578,1.2695-0.00001,1.6276-0.60548,3.6328-1.8164,6.0156,0.28645,0.16927,0.43619,0.50782,0.44922,1.0156,0.8203-0.1953,1.4713-0.70963,1.9531-1.543,0.36457-0.36457,0.72915-0.48827,1.0938-0.37109,0.39061,0.14324,0.58592,0.33855,0.58594,0.58594-0.00002,0.26042-0.19533,0.61198-0.58594,1.0547-1.237,1.6406-2.6693,2.5195-4.2969,2.6367-0.1172,0.013-0.22787,0.0195-0.33203,0.0195-0.39064,0.00001-0.72267-0.0781-0.99609-0.23437-2.1354,2.8125-4.5117,4.2188-7.1289,4.2188-1.237,0-2.22-0.39714-2.9492-1.1914-0.71614-0.80729-1.0742-1.888-1.0742-3.2422,0-0.58594,0.0716-1.1914,0.21485-1.8164-0.0912,0.0912-0.20834,0.13672-0.35156,0.13672-0.48177,0-0.72266-0.24088-0.72266-0.72266m7.3633,3.1641c0.16926,0.0781,0.33854,0.1172,0.50781,0.11719,0.76822,0.00001,1.4583-0.6901,2.0703-2.0703-0.31251-0.55989-0.46876-1.1328-0.46875-1.7188-0.00001-0.33853,0.0586-0.65103,0.17578-0.9375,0.24738-0.62499,0.79426-0.93749,1.6406-0.9375,0.22135,0.00001,0.46223,0.0195,0.72266,0.0586,0.93749-1.8099,1.4062-3.164,1.4062-4.0625-0.00001-0.67707-0.32554-1.0156-0.97656-1.0156-0.96356,0.00001-2.2722,1.5169-3.9258,4.5508-1.25,2.2526-1.875,3.8281-1.875,4.7266,0,0.63803,0.24088,1.0677,0.72266,1.2891" transform="translate(-155.857 -348.676)"/><path d="m478.93,375.53c0-0.24739,0.0912-0.47525,0.27344-0.68359,1.1849-1.4974,2.4674-2.9752,3.8476-4.4336,2.1354-2.3047,4.0234-3.8281,5.6641-4.5703,0.92446-0.42967,1.8229-0.64451,2.6953-0.64453,1.6406,0.00002,2.7409,0.83335,3.3008,2.5,0.11717,0.3646,0.17577,0.78777,0.17578,1.2695-0.00001,1.6276-0.60548,3.6328-1.8164,6.0156,0.28645,0.16927,0.43619,0.50782,0.44922,1.0156,0.8203-0.1953,1.4713-0.70963,1.9531-1.543,0.36457-0.36457,0.72915-0.48827,1.0938-0.37109,0.39061,0.14324,0.58592,0.33855,0.58594,0.58594-0.00002,0.26042-0.19533,0.61198-0.58594,1.0547-1.237,1.6406-2.6693,2.5195-4.2969,2.6367-0.1172,0.013-0.22787,0.0195-0.33203,0.0195-0.39064,0.00001-0.72267-0.0781-0.99609-0.23437-2.1354,2.8125-4.5117,4.2188-7.1289,4.2188-1.237,0-2.22-0.39714-2.9492-1.1914-0.71614-0.80729-1.0742-1.888-1.0742-3.2422,0-0.58594,0.0716-1.1914,0.21485-1.8164-0.0912,0.0912-0.20834,0.13672-0.35156,0.13672-0.48177,0-0.72266-0.24088-0.72266-0.72266m7.3633,3.1641c0.16926,0.0781,0.33854,0.1172,0.50781,0.11719,0.76822,0.00001,1.4583-0.6901,2.0703-2.0703-0.31251-0.55989-0.46876-1.1328-0.46875-1.7188-0.00001-0.33853,0.0586-0.65103,0.17578-0.9375,0.24738-0.62499,0.79426-0.93749,1.6406-0.9375,0.22135,0.00001,0.46223,0.0195,0.72266,0.0586,0.93749-1.8099,1.4062-3.164,1.4062-4.0625-0.00001-0.67707-0.32554-1.0156-0.97656-1.0156-0.96356,0.00001-2.2722,1.5169-3.9258,4.5508-1.25,2.2526-1.875,3.8281-1.875,4.7266,0,0.63803,0.24088,1.0677,0.72266,1.2891" transform="translate(-155.857 -348.676)"/><path d="m494.77,375.73c0-0.11718,0.0261-0.24087,0.0781-0.37109,0.22135-0.41666,1.237-1.5885,3.0469-3.5156,1.0677-1.1328,2.3372-2.7344,3.8086-4.8047,1.8359-2.6172,3.1185-4.8047,3.8476-6.5625,1.1328-2.7864,2.0443-4.1797,2.7344-4.1797,0.72915,0.00003,1.5104,0.77477,2.3438,2.3242,0.28644,0.53388,0.42967,1.0156,0.42969,1.4453-0.00002,0.32554-0.0781,0.61851-0.23438,0.87891-0.1172,0.24741-1.9076,3.9974-5.3711,11.25,4.2187-4.2969,7.0638-6.4453,8.5352-6.4453,0.0651,0.00001,0.12368,0.007,0.17578,0.0195,1.3932,0.19533,2.0898,0.8073,2.0898,1.8359-0.00002,0.57293-0.21487,1.2565-0.64453,2.0508-0.59898,1.0938-1.3347,1.6406-2.207,1.6406-0.26044,0.00001-0.69664-0.11067-1.3086-0.33203-0.22137-0.11718-0.45574-0.24087-0.70312-0.37109-0.23439-0.14322-0.4232-0.18879-0.56641-0.13672-0.55991,0.2474-1.3346,0.81381-2.3242,1.6992,0.70311-0.11718,1.2435-0.17578,1.6211-0.17579,0.70311,0.00001,1.1068,0.18231,1.2109,0.54688,0.0781,0.28647,0.0781,0.66407,0,1.1328-0.0781,0.36459-0.14975,0.73569-0.21484,1.1133-0.0391,0.28647-0.0586,0.54037-0.0586,0.76172-0.00002,0.4948,0.0911,0.82683,0.27343,0.9961,0.16926,0.14323,0.35806,0.21484,0.56641,0.21484,0.55988,0,1.1458-0.40364,1.7578-1.2109,0.69009-0.91145,1.2109-1.3672,1.5625-1.3672-0.00002,0.00001,0.006,0.00001,0.0195,0,0.16925,0.00001,0.33201,0.10418,0.48828,0.3125,0.16925,0.19532,0.25389,0.39064,0.25391,0.58594-0.00002,0.22136-0.0847,0.41668-0.25391,0.58594-0.70314,0.76823-1.4193,1.556-2.1484,2.3633-1.3281,1.4323-2.4024,2.4089-3.2227,2.9297-1.4063,0.92448-2.7018,1.3867-3.8867,1.3867s-1.8555-0.59245-2.0117-1.7774c-0.013-0.0651-0.0195-0.1302-0.0195-0.19531-0.00001-0.41666,0.12369-1.0677,0.3711-1.9531,0.28644-1.0417,0.42967-1.7773,0.42968-2.207-0.00001-0.42968-0.0977-0.65103-0.29297-0.66406-0.19532,0.00001-0.48829,0.23438-0.8789,0.70313-0.84636,1.0417-1.7057,2.0898-2.5781,3.1445-1.263,1.4974-2.0898,2.3763-2.4805,2.6367-0.3776,0.26041-0.89193,0.39062-1.543,0.39062-1.1328,0-1.7057-0.39062-1.7188-1.1719,0-0.92448,1.8164-4.6354,5.4492-11.133-3.2161,4.2839-5.1042,6.4258-5.6641,6.4258-0.50781,0-0.76172-0.26693-0.76172-0.80079" transform="translate(-155.857 -348.676)"/></g></g></svg>