<svg xmlns="http://www.w3.org/2000/svg" xmlns:xlink="http://www.w3.org/1999/xlink" width="1024" height="1024"><defs><marker orient="auto" overflow="visible"><path d="M 8.7185878,4.0337352 L -2.2072895,0.016013256 L 8.7185884,-4.0017078 C 6.9730900,-1.6296469 6.9831476,1.6157441 8.7185878,4.0337352 z" transform="scale(.6) rotate(180)" fill-rule="evenodd"/></marker><marker orient="auto" id="G" overflow="visible"><path d="M 8.7185878,4.0337352 L -2.2072895,0.016013256 L 8.7185884,-4.0017078 C 6.9730900,-1.6296469 6.9831476,1.6157441 8.7185878,4.0337352 z" transform="matrix(-1.1 0 0 -1.1 -1.1 0)" fill-rule="evenodd"/></marker><linearGradient id="g"><stop offset="0" stop-color="#ffe000"/><stop offset="1" stop-color="#ff9300"/></linearGradient><linearGradient id="c"><stop offset="0" stop-color="#ff4d1f"/><stop offset="1" stop-color="#831500"/></linearGradient><linearGradient><stop offset="0" stop-color="#a57400" stop-opacity="0"/><stop offset="1" stop-opacity=".3"/></linearGradient><linearGradient id="a"><stop offset="0" stop-color="#fff71f"/><stop offset="1" stop-color="#ff8d00"/></linearGradient><radialGradient xlink:href="#a" cx="157.371" cy="306.106" fx="157.371" fy="306.106" r="54.949" gradientTransform="matrix(1 0 0 1.015 0 -4.504)" gradientUnits="userSpaceOnUse"/><radialGradient xlink:href="#a" cx="167.074" cy="295.735" fx="167.074" fy="295.735" r="65.145" gradientTransform="matrix(1 0 0 .845 0 45.964)" gradientUnits="userSpaceOnUse" spreadMethod="reflect"/><radialGradient xlink:href="#a" gradientUnits="userSpaceOnUse" gradientTransform="matrix(1 0 0 1.015 0 -4.504)" cx="157.371" cy="306.106" fx="157.371" fy="306.106" r="54.949"/><radialGradient xlink:href="#a" gradientUnits="userSpaceOnUse" gradientTransform="matrix(1 0 0 .845 0 45.964)" spreadMethod="reflect" cx="167.074" cy="295.735" fx="167.074" fy="295.735" r="65.145"/><radialGradient xlink:href="#b" cx="167.074" cy="295.735" fx="167.074" fy="295.735" r="65.145" gradientTransform="matrix(1 0 0 .845 0 45.964)" gradientUnits="userSpaceOnUse" spreadMethod="reflect"/><linearGradient id="b"><stop offset="0" stop-color="#fff71f"/><stop offset="1" stop-color="#ff8d00"/></linearGradient><linearGradient><stop offset="0" stop-color="#fff71f"/><stop offset="1" stop-color="#ff8d00"/></linearGradient><linearGradient><stop offset="0" stop-color="#fff71f"/><stop offset="1" stop-color="#ff8d00"/></linearGradient><radialGradient xlink:href="#b" gradientUnits="userSpaceOnUse" gradientTransform="matrix(1 0 0 .845 0 45.964)" spreadMethod="reflect" cx="167.074" cy="295.735" fx="167.074" fy="295.735" r="65.145"/><linearGradient><stop offset="0" stop-color="#fff71f"/><stop offset="1" stop-color="#ff8d00"/></linearGradient><radialGradient r="65.145" fy="295.735" fx="167.074" cy="295.735" cx="167.074" spreadMethod="reflect" gradientTransform="matrix(1 0 0 .845 0 45.964)" gradientUnits="userSpaceOnUse" xlink:href="#b"/><radialGradient xlink:href="#c" cx="-1510" cy="339.714" fx="-1510" fy="339.714" r="404.286" gradientUnits="userSpaceOnUse"/><radialGradient xlink:href="#b" gradientUnits="userSpaceOnUse" gradientTransform="matrix(1 0 0 .845 0 45.964)" spreadMethod="reflect" cx="167.074" cy="295.735" fx="167.074" fy="295.735" r="65.145"/><radialGradient r="65.145" fy="295.735" fx="167.074" cy="295.735" cx="167.074" spreadMethod="reflect" gradientTransform="matrix(1 0 0 .845 0 45.964)" gradientUnits="userSpaceOnUse" xlink:href="#d"/><radialGradient r="65.145" fy="295.735" fx="167.074" cy="295.735" cx="167.074" spreadMethod="reflect" gradientTransform="matrix(1 0 0 .845 0 45.964)" gradientUnits="userSpaceOnUse" xlink:href="#d"/><radialGradient gradientUnits="userSpaceOnUse" r="404.286" fy="339.714" fx="-1510" cy="339.714" cx="-1510" xlink:href="#e"/><radialGradient xlink:href="#d" gradientUnits="userSpaceOnUse" gradientTransform="matrix(1 0 0 .845 0 45.964)" spreadMethod="reflect" cx="167.074" cy="295.735" fx="167.074" fy="295.735" r="65.145"/><linearGradient><stop offset="0" stop-color="#fff71f"/><stop offset="1" stop-color="#ff8d00"/></linearGradient><radialGradient r="65.145" fy="295.735" fx="167.074" cy="295.735" cx="167.074" spreadMethod="reflect" gradientTransform="matrix(1 0 0 .845 0 45.964)" gradientUnits="userSpaceOnUse" xlink:href="#d"/><linearGradient><stop offset="0" stop-color="#fff71f"/><stop offset="1" stop-color="#ff8d00"/></linearGradient><linearGradient><stop offset="0" stop-color="#fff71f"/><stop offset="1" stop-color="#ff8d00"/></linearGradient><linearGradient id="d"><stop offset="0" stop-color="#fff71f"/><stop offset="1" stop-color="#ff8d00"/></linearGradient><radialGradient spreadMethod="reflect" gradientUnits="userSpaceOnUse" gradientTransform="matrix(1 0 0 .845 0 45.964)" r="65.145" fy="295.735" fx="167.074" cy="295.735" cx="167.074" xlink:href="#d"/><radialGradient r="65.145" fy="295.735" fx="167.074" cy="295.735" cx="167.074" spreadMethod="reflect" gradientTransform="matrix(1 0 0 .845 0 45.964)" gradientUnits="userSpaceOnUse" xlink:href="#f"/><radialGradient r="54.949" fy="306.106" fx="157.371" cy="306.106" cx="157.371" gradientTransform="matrix(1 0 0 1.015 0 -4.504)" gradientUnits="userSpaceOnUse" xlink:href="#f"/><radialGradient spreadMethod="reflect" gradientUnits="userSpaceOnUse" gradientTransform="matrix(1 0 0 .845 0 45.964)" r="65.145" fy="295.735" fx="167.074" cy="295.735" cx="167.074" xlink:href="#f"/><radialGradient gradientUnits="userSpaceOnUse" gradientTransform="matrix(1 0 0 1.015 0 -4.504)" r="54.949" fy="306.106" fx="157.371" cy="306.106" cx="157.371" xlink:href="#f"/><linearGradient id="f"><stop offset="0" stop-color="#fff71f"/><stop offset="1" stop-color="#ff8d00"/></linearGradient><linearGradient><stop offset="0" stop-color="#a57400" stop-opacity="0"/><stop offset="1" stop-opacity=".3"/></linearGradient><linearGradient id="e"><stop offset="0" stop-color="#ff4d1f"/><stop offset="1" stop-color="#831500"/></linearGradient><radialGradient xlink:href="#g" cx="505.322" cy="123.609" fx="505.322" fy="123.609" r="41.456" gradientTransform="matrix(1 0 0 1.287 25.456 367.631)" gradientUnits="userSpaceOnUse"/><radialGradient xlink:href="#g" id="t" cx="512.021" cy="954.26" fx="512.021" fy="954.26" r="131.582" gradientTransform="matrix(.863 0 0 .62 76.072 308.515)" gradientUnits="userSpaceOnUse"/><radialGradient xlink:href="#g" id="s" cx="289.494" cy="902.817" fx="289.494" fy="902.817" r="136.955" gradientTransform="matrix(.863 0 0 .81 76.072 123.918)" gradientUnits="userSpaceOnUse"/><radialGradient xlink:href="#g" id="r" cx="149.601" cy="762.917" fx="149.601" fy="762.917" r="128.643" gradientTransform="matrix(.863 0 0 .919 76.072 34.099)" gradientUnits="userSpaceOnUse"/><radialGradient xlink:href="#g" id="q" cx="734.56" cy="902.811" fx="734.56" fy="902.811" r="136.955" gradientTransform="matrix(.863 0 0 .81 76.072 123.918)" gradientUnits="userSpaceOnUse"/><radialGradient xlink:href="#g" id="p" cx="874.447" cy="762.916" fx="874.447" fy="762.916" r="128.643" gradientTransform="matrix(.863 0 0 .919 76.072 34.099)" gradientUnits="userSpaceOnUse"/><radialGradient xlink:href="#g" id="o" cx="925.89" cy="540.384" fx="925.89" fy="540.384" r="94.523" gradientTransform="matrix(.863 0 0 1.201 76.072 -106.132)" gradientUnits="userSpaceOnUse"/><radialGradient xlink:href="#g" id="n" cx="289.439" cy="177.909" fx="289.439" fy="177.909" r="136.955" gradientTransform="matrix(.863 0 0 .81 76.072 85.964)" gradientUnits="userSpaceOnUse"/><radialGradient xlink:href="#g" id="m" cx="149.552" cy="317.804" fx="149.552" fy="317.804" r="128.643" gradientTransform="matrix(.863 0 0 .919 76.072 58.924)" gradientUnits="userSpaceOnUse"/><radialGradient xlink:href="#g" id="l" cx="98.109" cy="540.336" fx="98.109" fy="540.336" r="94.524" gradientTransform="matrix(.863 0 0 1.201 76.072 -106.114)" gradientUnits="userSpaceOnUse"/><radialGradient xlink:href="#g" id="k" cx="511.98" cy="126.469" fx="511.98" fy="126.469" r="131.582" gradientTransform="matrix(-.863 0 0 .62 959.473 107.379)" gradientUnits="userSpaceOnUse"/><radialGradient xlink:href="#g" id="j" cx="734.507" cy="177.912" fx="734.507" fy="177.912" r="136.955" gradientTransform="matrix(.863 0 0 .81 76.072 85.964)" gradientUnits="userSpaceOnUse"/><radialGradient xlink:href="#g" id="i" cx="874.4" cy="317.812" fx="874.4" fy="317.812" r="128.643" gradientTransform="matrix(.863 0 0 .919 76.072 58.924)" gradientUnits="userSpaceOnUse"/><linearGradient id="h"><stop offset="0" stop-color="#ff620c"/><stop offset="1" stop-color="#ff4100"/></linearGradient><radialGradient xlink:href="#h" cx="874.4" cy="317.812" fx="874.4" fy="317.812" r="128.643" gradientTransform="matrix(1 0 0 1.065 0 -20.546)" gradientUnits="userSpaceOnUse"/><linearGradient><stop offset="0" stop-color="#ffe000"/><stop offset="1" stop-color="#ff9300"/></linearGradient><linearGradient><stop offset="0" stop-color="#ffe000"/><stop offset="1" stop-color="#ff9300"/></linearGradient><linearGradient><stop offset="0" stop-color="#ffe000"/><stop offset="1" stop-color="#ff9300"/></linearGradient><linearGradient><stop offset="0" stop-color="#ffe000"/><stop offset="1" stop-color="#ff9300"/></linearGradient><linearGradient><stop offset="0" stop-color="#ffe000"/><stop offset="1" stop-color="#ff9300"/></linearGradient><linearGradient><stop offset="0" stop-color="#ffe000"/><stop offset="1" stop-color="#ff9300"/></linearGradient><linearGradient><stop offset="0" stop-color="#ffe000"/><stop offset="1" stop-color="#ff9300"/></linearGradient><linearGradient><stop offset="0" stop-color="#ffe000"/><stop offset="1" stop-color="#ff9300"/></linearGradient><linearGradient><stop offset="0" stop-color="#ffe000"/><stop offset="1" stop-color="#ff9300"/></linearGradient><linearGradient><stop offset="0" stop-color="#ffe000"/><stop offset="1" stop-color="#ff9300"/></linearGradient><linearGradient><stop offset="0" stop-color="#ffe000"/><stop offset="1" stop-color="#ff9300"/></linearGradient><radialGradient xlink:href="#h" id="F" gradientUnits="userSpaceOnUse" gradientTransform="matrix(.532 0 0 .382 244.362 400.947)" cx="512.021" cy="954.26" fx="512.021" fy="954.26" r="131.582"/><radialGradient xlink:href="#h" id="E" gradientUnits="userSpaceOnUse" gradientTransform="matrix(.532 0 0 .499 244.362 287.21)" cx="289.494" cy="902.817" fx="289.494" fy="902.817" r="136.955"/><radialGradient xlink:href="#h" id="D" gradientUnits="userSpaceOnUse" gradientTransform="matrix(.532 0 0 .566 244.362 231.869)" cx="149.601" cy="762.917" fx="149.601" fy="762.917" r="128.643"/><radialGradient xlink:href="#h" id="C" gradientUnits="userSpaceOnUse" gradientTransform="matrix(.532 0 0 .499 244.362 287.209)" cx="734.56" cy="902.811" fx="734.56" fy="902.811" r="136.955"/><radialGradient xlink:href="#h" id="B" gradientUnits="userSpaceOnUse" gradientTransform="matrix(.532 0 0 .566 244.362 231.869)" cx="874.447" cy="762.916" fx="874.447" fy="762.916" r="128.643"/><radialGradient xlink:href="#h" id="A" gradientUnits="userSpaceOnUse" gradientTransform="matrix(.532 0 0 .74 244.362 145.467)" cx="925.89" cy="540.384" fx="925.89" fy="540.384" r="94.523"/><radialGradient xlink:href="#h" id="z" gradientUnits="userSpaceOnUse" gradientTransform="matrix(.532 0 0 .499 244.362 263.825)" cx="289.439" cy="177.909" fx="289.439" fy="177.909" r="136.955"/><radialGradient xlink:href="#h" id="y" gradientUnits="userSpaceOnUse" gradientTransform="matrix(.532 0 0 .566 244.362 247.165)" cx="149.552" cy="317.804" fx="149.552" fy="317.804" r="128.643"/><radialGradient xlink:href="#h" id="x" gradientUnits="userSpaceOnUse" gradientTransform="matrix(.532 0 0 .74 244.362 145.477)" cx="98.109" cy="540.336" fx="98.109" fy="540.336" r="94.524"/><radialGradient xlink:href="#h" id="w" gradientUnits="userSpaceOnUse" gradientTransform="matrix(.532 0 0 .382 244.362 277.019)" cx="511.98" cy="126.469" fx="511.98" fy="126.469" r="131.582"/><radialGradient xlink:href="#h" id="v" gradientUnits="userSpaceOnUse" gradientTransform="matrix(.532 0 0 .499 244.362 263.825)" cx="734.507" cy="177.912" fx="734.507" fy="177.912" r="136.955"/><radialGradient xlink:href="#h" id="u" gradientUnits="userSpaceOnUse" gradientTransform="matrix(.532 0 0 .566 244.362 247.164)" cx="874.4" cy="317.812" fx="874.4" fy="317.812" r="128.643"/><marker orient="auto" overflow="visible"><path d="M 8.7185878,4.0337352 -2.2072895,0.01601326 8.7185884,-4.0017078 c -1.7454984,2.3720609 -1.7354408,5.6174519 -6e-7,8.035443 z" transform="matrix(-1.1 0 0 -1.1 -1.1 0)" fill-rule="evenodd"/></marker></defs><g><path d="M 827.90913,232.67638 719.45951,341.13963 c 35.40524,35.40523 60.86668,79.49017 73.8259,127.85464 L 941.4278,429.29962 C 921.50039,354.92936 882.35192,287.11917 827.90913,232.67638 z" fill="url(#i)" transform="translate(0 -28.362)"/><path d="m 631.28667,119.15496 -39.6885,148.15674 c 48.36446,12.95922 92.45718,38.40719 127.86242,73.81242 L 827.90838,232.67633 C 773.46558,178.23353 705.65692,139.08241 631.28667,119.15496 z" fill="url(#j)" transform="translate(0 -28.362)"/><path d="m 631.29273,119.15459 -39.70711,148.15176 c -48.36445,-12.95922 -99.27385,-12.96699 -147.6383,-0.008 L 404.25265,119.15613 c 74.37026,-19.927457 152.66982,-19.928989 227.04008,-0.002 z" fill="url(#k)" transform="translate(0 -28.362)"/><path d="m 94.11021,429.29266 148.15173,39.70714 c -12.95922,48.36445 -12.967,99.27384 -0.008,147.6383 L 94.1117,656.33275 C 74.18425,581.9625 74.18273,503.66293 94.1107,429.29266 z" fill="url(#l)" transform="translate(0 -28.362)"/><path d="M 207.62952,232.66902 316.07915,341.13226 C 280.6739,376.5375 255.21247,420.62245 242.25326,468.9869 L 94.11078,429.29227 C 114.03826,354.922 153.18672,287.11181 207.62952,232.66902 z" fill="url(#m)" transform="translate(0 -28.362)"/><path d="m 404.24658,119.15168 39.68886,148.15664 c -48.36442,12.95921 -92.45716,38.40718 -127.8624,73.81241 L 207.62485,232.67305 c 54.44282,-54.44281 122.25147,-93.59392 196.62173,-113.52137 z" fill="url(#n)" transform="translate(0 -28.362)"/><path d="M 941.4687,656.37461 793.3169,616.6675 c 12.9592,-48.36445 12.96704,-99.27387 0.008,-147.63832 l 148.14244,-39.69464 c 19.9274,74.37026 19.929,152.66983 0,227.04007 z" fill="url(#o)" transform="translate(0 -28.362)"/><path d="M 827.94936,852.99824 719.49976,744.53501 c 35.40515,-35.40522 60.86666,-79.49018 73.82586,-127.85463 l 148.14248,39.69464 c -19.92746,74.37026 -59.07596,142.18047 -113.51874,196.62322 z" fill="url(#p)" transform="translate(0 -28.362)"/><path d="M 631.3323,966.51564 591.64379,818.35886 c 48.3644,-12.9592 92.45714,-38.40717 127.86239,-73.8124 L 827.95403,852.9942 C 773.5112,907.43706 705.70252,946.58814 631.3323,966.51564 z" fill="url(#q)" transform="translate(0 -28.362)"/><path d="M 207.67203,852.99938 316.12162,744.53613 C 280.71639,709.1309 255.25495,665.04596 242.29574,616.6815 L 94.15327,656.37615 c 19.92746,74.37026 59.07592,142.18044 113.51876,196.62323 z" fill="url(#r)" transform="translate(0 -28.362)"/><path d="m 404.29447,966.52082 39.6885,-148.15677 C 395.61851,805.40484 351.52579,779.95688 316.12054,744.55164 l -108.44782,108.4478 c 54.44284,54.4428 122.25149,93.59387 196.62175,113.52138 z" fill="url(#s)" transform="translate(0 -28.362)"/><path d="M 631.32849,966.52116 591.62174,818.36932 c -48.36442,12.9592 -99.27384,12.96698 -147.6383,0.008 l -39.69503,148.1426 c 74.37026,19.92733 152.66982,19.92889 227.04008,0 z" fill="url(#t)" transform="translate(0 -28.362)"/><text style="line-height:125%;-inkscape-font-specification:TeX Gyre Adventor" x="493.516" y="203.248" font-size="60" letter-spacing="0" word-spacing="0" font-family="TeX Gyre Adventor" transform="translate(0 -28.362)"><tspan x="493.516" y="203.248" style="-inkscape-font-specification:TeX Gyre Adventor" font-size="60" font-family="TeX Gyre Adventor">C</tspan></text><text style="line-height:125%;-inkscape-font-specification:TeX Gyre Adventor" x="313.285" y="253.988" font-size="60" letter-spacing="0" word-spacing="0" font-family="TeX Gyre Adventor" transform="translate(0 -28.362)"><tspan x="313.285" y="253.988" style="-inkscape-font-specification:TeX Gyre Adventor" font-size="60" font-family="TeX Gyre Adventor">F</tspan></text><text style="line-height:125%;-inkscape-font-specification:TeX Gyre Adventor" x="177.052" y="377.72" font-size="60" letter-spacing="0" word-spacing="0" font-family="TeX Gyre Adventor" transform="translate(0 -28.362)"><tspan x="177.052" y="377.72" style="-inkscape-font-specification:TeX Gyre Adventor" font-size="60" font-family="TeX Gyre Adventor">B♭</tspan></text><text style="line-height:125%;-inkscape-font-specification:TeX Gyre Adventor" x="132.279" y="565.127" font-size="60" letter-spacing="0" word-spacing="0" font-family="TeX Gyre Adventor" transform="translate(0 -28.362)"><tspan x="132.279" y="565.127" style="-inkscape-font-specification:TeX Gyre Adventor" font-size="60" font-family="TeX Gyre Adventor">E♭</tspan></text><text style="line-height:125%;-inkscape-font-specification:TeX Gyre Adventor" x="172.834" y="754.518" font-size="60" letter-spacing="0" word-spacing="0" font-family="TeX Gyre Adventor" transform="translate(0 -28.362)"><tspan x="172.834" y="754.518" style="-inkscape-font-specification:TeX Gyre Adventor" font-size="60" font-family="TeX Gyre Adventor">A♭</tspan></text><text style="line-height:125%;-inkscape-font-specification:TeX Gyre Adventor" x="249.038" y="871.847" font-size="60" letter-spacing="0" word-spacing="0" font-family="TeX Gyre Adventor" transform="translate(0 -28.362)"><tspan x="249.038" y="871.847" style="-inkscape-font-specification:TeX Gyre Adventor" font-size="60" font-family="TeX Gyre Adventor">D♭/C♯</tspan></text><text style="line-height:125%;-inkscape-font-specification:TeX Gyre Adventor" x="679.047" y="249.41" font-size="60" letter-spacing="0" word-spacing="0" font-family="TeX Gyre Adventor" transform="translate(0 -28.362)"><tspan x="679.047" y="249.41" style="-inkscape-font-specification:TeX Gyre Adventor" font-size="60" font-family="TeX Gyre Adventor">G</tspan></text><text style="line-height:125%;-inkscape-font-specification:TeX Gyre Adventor" x="811.92" y="378.776" font-size="60" letter-spacing="0" word-spacing="0" font-family="TeX Gyre Adventor" transform="translate(0 -28.362)"><tspan x="811.92" y="378.776" style="-inkscape-font-specification:TeX Gyre Adventor" font-size="60" font-family="TeX Gyre Adventor">D</tspan></text><text style="line-height:125%;-inkscape-font-specification:TeX Gyre Adventor" x="852.158" y="574.192" font-size="60" letter-spacing="0" word-spacing="0" font-family="TeX Gyre Adventor" transform="translate(0 -28.362)"><tspan x="852.158" y="574.192" style="-inkscape-font-specification:TeX Gyre Adventor" font-size="60" font-family="TeX Gyre Adventor">A</tspan></text><text style="line-height:125%;-inkscape-font-specification:TeX Gyre Adventor" x="807.274" y="756.324" font-size="60" letter-spacing="0" word-spacing="0" font-family="TeX Gyre Adventor" transform="translate(0 -28.362)"><tspan x="807.274" y="756.324" style="-inkscape-font-specification:TeX Gyre Adventor" font-size="60" font-family="TeX Gyre Adventor">E</tspan></text><text style="line-height:125%;-inkscape-font-specification:TeX Gyre Adventor" x="633.638" y="873.112" font-size="60" letter-spacing="0" word-spacing="0" font-family="TeX Gyre Adventor" transform="translate(0 -28.362)"><tspan x="633.638" y="873.112" style="-inkscape-font-specification:TeX Gyre Adventor" font-size="60" font-family="TeX Gyre Adventor">C♭/B</tspan></text><text style="line-height:125%" x="82.574" y="179.221" font-size="34.509" letter-spacing="0" word-spacing="0" font-family="Sans" transform="translate(0 -28.362)"><tspan x="82.574" y="179.221" font-size="129.409">♭</tspan></text><text style="line-height:125%" x="900.046" y="181.082" font-size="34.509" letter-spacing="0" word-spacing="0" font-family="Sans" transform="translate(0 -28.362)"><tspan x="900.046" y="181.082" font-size="129.409">♯</tspan></text><text style="line-height:125%;-inkscape-font-specification:TeX Gyre Adventor" x="436.615" y="933.951" font-size="60" letter-spacing="0" word-spacing="0" font-family="TeX Gyre Adventor" transform="translate(0 -28.362)"><tspan x="436.615" y="933.951" style="-inkscape-font-specification:TeX Gyre Adventor" font-size="60" font-family="TeX Gyre Adventor">G♭/F♯</tspan></text><path d="m 707.59876,354.22011 -66.82017,66.82859 c 21.81462,21.8146 37.50241,48.97711 45.48712,78.77641 l 91.27655,-24.45747 c -12.27814,-45.82253 -36.39907,-87.60312 -69.9435,-121.14753 z" fill="url(#u)" transform="translate(0 -28.362)"/><path d="m 586.45175,284.27498 -24.45369,91.28535 c 29.7993,7.9847 56.9666,23.66422 78.7812,45.47881 l 66.81908,-66.81906 c -33.54443,-33.54442 -75.32408,-57.667 -121.14659,-69.9451 z" fill="url(#v)" transform="translate(0 -28.362)"/><path d="m 446.56691,284.27474 24.46516,91.28229 c 29.79928,-7.9847 61.16663,-7.98948 90.96592,-0.005 l 24.45749,-91.27655 c -45.82252,-12.27812 -94.06605,-12.27906 -139.88857,-8.7e-4 z" fill="url(#w)" transform="translate(0 -28.362)"/><path d="m 255.47562,475.36335 91.28226,24.46517 c -7.98469,29.79929 -7.98949,61.16663 -0.005,90.96592 l -91.27618,24.45749 c -12.2781,-45.82252 -12.27904,-94.06606 -0.001,-139.88858 z" fill="url(#x)" transform="translate(0 -28.362)"/><path d="m 325.41945,354.21557 66.8202,66.8286 c -21.8146,21.81459 -37.50242,48.97711 -45.48712,78.77641 l -91.27657,-24.45747 c 12.27813,-45.82253 36.39908,-87.60313 69.94349,-121.14754 z" fill="url(#y)" transform="translate(0 -28.362)"/><path d="m 446.56316,284.27295 24.45392,91.2853 c -29.79927,7.98469 -56.9666,23.66422 -78.78119,45.47881 l -66.81932,-66.819 c 33.54443,-33.54442 75.32408,-57.667 121.14659,-69.94511 z" fill="url(#z)" transform="translate(0 -28.362)"/><path d="m 777.5674,615.27772 -91.28228,-24.46516 c 7.98471,-29.79929 7.98949,-61.16665 0.005,-90.96594 l 91.27655,-24.45746 c 12.27809,45.82252 12.27904,94.06605 0,139.88856 z" fill="url(#A)" transform="translate(0 -28.362)"/><path d="M 707.62358,736.42548 640.80339,669.5969 c 21.81454,-21.81459 37.50244,-48.97711 45.48709,-78.7764 l 91.27655,24.45747 c -12.27809,45.82252 -36.39907,87.60313 -69.94345,121.14751 z" fill="url(#B)" transform="translate(0 -28.362)"/><path d="m 586.47986,806.36814 -24.4537,-91.28538 c 29.79926,-7.98468 56.96659,-23.66421 78.7812,-45.4788 l 66.8191,66.81904 c -33.54443,33.54444 -75.32411,57.667 -121.1466,69.94514 z" fill="url(#C)" transform="translate(0 -28.362)"/><path d="m 325.44564,736.42619 66.82018,-66.8286 C 370.45122,647.783 354.7634,620.62048 346.77871,590.82119 l -91.27656,24.45747 c 12.27811,45.82253 36.39906,87.60312 69.94349,121.14753 z" fill="url(#D)" transform="translate(0 -28.362)"/><path d="m 446.59268,806.37133 24.45368,-91.28537 c -29.7993,-7.98469 -56.96661,-23.66421 -78.7812,-45.47881 l -66.81909,66.81907 c 33.54443,33.54441 75.32408,57.66697 121.14661,69.94511 z" fill="url(#E)" transform="translate(0 -28.362)"/><path d="m 586.47751,806.37154 -24.46493,-91.28233 c -29.79928,7.98468 -61.16663,7.98948 -90.96592,0.005 l -24.45772,91.27626 c 45.82252,12.27804 94.06605,12.279 139.88857,0 z" fill="url(#F)" transform="translate(0 -28.362)"/><text style="line-height:125%;-inkscape-font-specification:TeX Gyre Adventor" x="503.4" y="336.371" font-size="40" letter-spacing="0" word-spacing="0" font-family="TeX Gyre Adventor" transform="translate(0 -28.362)"><tspan x="503.4" y="336.371" style="-inkscape-font-specification:TeX Gyre Adventor" font-size="40" font-family="TeX Gyre Adventor">a</tspan></text><text style="line-height:125%;-inkscape-font-specification:TeX Gyre Adventor" x="616.997" y="366.864" font-size="40" letter-spacing="0" word-spacing="0" font-family="TeX Gyre Adventor" transform="translate(0 -28.362)"><tspan x="616.997" y="366.864" style="-inkscape-font-specification:TeX Gyre Adventor" font-size="40" font-family="TeX Gyre Adventor">e</tspan></text><text style="line-height:125%;-inkscape-font-specification:TeX Gyre Adventor" x="697.544" y="444.95" font-size="40" letter-spacing="0" word-spacing="0" font-family="TeX Gyre Adventor" transform="translate(0 -28.362)"><tspan x="697.544" y="444.95" style="-inkscape-font-specification:TeX Gyre Adventor" font-size="40" font-family="TeX Gyre Adventor">b</tspan></text><text style="line-height:125%;-inkscape-font-specification:TeX Gyre Adventor" x="728.988" y="557.744" font-size="40" letter-spacing="0" word-spacing="0" font-family="TeX Gyre Adventor" transform="translate(0 -28.362)"><tspan x="728.988" y="557.744" style="-inkscape-font-specification:TeX Gyre Adventor" font-size="40" font-family="TeX Gyre Adventor">f♯</tspan></text><text style="line-height:125%;-inkscape-font-specification:TeX Gyre Adventor" x="692.583" y="671.518" font-size="40" letter-spacing="0" word-spacing="0" font-family="TeX Gyre Adventor" transform="translate(0 -28.362)"><tspan x="692.583" y="671.518" style="-inkscape-font-specification:TeX Gyre Adventor" font-size="40" font-family="TeX Gyre Adventor">a♯</tspan></text><text style="line-height:125%;-inkscape-font-specification:TeX Gyre Adventor" x="578.508" y="747.857" font-size="40" letter-spacing="0" word-spacing="0" font-family="TeX Gyre Adventor" transform="translate(0 -28.362)"><tspan x="578.508" y="747.857">a♭/g♯</tspan></text><text style="line-height:125%;-inkscape-font-specification:TeX Gyre Adventor" x="462.718" y="780.402" font-size="40" letter-spacing="0" word-spacing="0" font-family="TeX Gyre Adventor" transform="translate(0 -28.362)"><tspan x="462.718" y="780.402">e♭/d♯</tspan></text><text style="line-height:125%;-inkscape-font-specification:TeX Gyre Adventor" x="350.86" y="749.165" font-size="40" letter-spacing="0" word-spacing="0" font-family="TeX Gyre Adventor" transform="translate(0 -28.362)"><tspan x="350.86" y="749.165">b♭/a♯</tspan></text><text style="line-height:125%;-inkscape-font-specification:TeX Gyre Adventor" x="320.598" y="666.639" font-size="40" letter-spacing="0" word-spacing="0" font-family="TeX Gyre Adventor" transform="translate(0 -28.362)"><tspan x="320.598" y="666.639">f</tspan></text><text style="line-height:125%;-inkscape-font-specification:TeX Gyre Adventor" x="285.215" y="561.712" font-size="40" letter-spacing="0" word-spacing="0" font-family="TeX Gyre Adventor" transform="translate(0 -28.362)"><tspan x="285.215" y="561.712">c</tspan></text><text style="line-height:125%;-inkscape-font-specification:TeX Gyre Adventor" x="310.72" y="447.375" font-size="40" letter-spacing="0" word-spacing="0" font-family="TeX Gyre Adventor" transform="translate(0 -28.362)"><tspan x="310.72" y="447.375">g</tspan></text><text style="line-height:125%;-inkscape-font-specification:TeX Gyre Adventor" x="393.294" y="369.631" font-size="40" letter-spacing="0" word-spacing="0" font-family="TeX Gyre Adventor" transform="translate(0 -28.362)"><tspan x="393.294" y="369.631">d</tspan></text><path d="M 358.22744,76.851916 C 213.88802,107.09995 86.92344,247.5937 53.20639,383.09305" stroke="#000" stroke-width="3.106" marker-end="url(#G)" fill="none" transform="translate(0 -28.362)"/><path d="m 681.64123,78.01022 c 144.33942,30.24803 271.304,170.74178 305.02105,306.24113" stroke="#000" stroke-width="3.106" marker-end="url(#G)" fill="none" transform="translate(0 -28.362)"/></g></svg>