<svg xmlns="http://www.w3.org/2000/svg" height="1024" width="1024" xmlns:xlink="http://www.w3.org/1999/xlink"><defs><marker id="A" orient="auto"><path d="M8.7186,4.0337l-10.926-4.0177,10.926-4.0177c-1.7455,2.3721-1.7355,5.6174,0,8.0354z" fill-rule="evenodd" transform="matrix(-1.1 0 0 -1.1 -1.1 0)"/></marker><linearGradient id="a"><stop stop-color="#ffe000" offset="0"/><stop stop-color="#ff9300" offset="1"/></linearGradient><radialGradient id="n" xlink:href="#a" gradientUnits="userSpaceOnUse" cy="954.26" cx="512.02" gradientTransform="matrix(.863 0 0 .62 76.072 308.515)" r="131.58"/><radialGradient id="h" xlink:href="#a" gradientUnits="userSpaceOnUse" cy="902.82" cx="289.49" gradientTransform="matrix(.863 0 0 .81 76.072 123.918)" r="136.95"/><radialGradient id="g" xlink:href="#a" gradientUnits="userSpaceOnUse" cy="762.92" cx="149.6" gradientTransform="matrix(.863 0 0 .919 76.072 34.099)" r="128.64"/><radialGradient id="m" xlink:href="#a" gradientUnits="userSpaceOnUse" cy="902.81" cx="734.56" gradientTransform="matrix(.863 0 0 .81 76.072 123.918)" r="136.95"/><radialGradient id="l" xlink:href="#a" gradientUnits="userSpaceOnUse" cy="762.92" cx="874.45" gradientTransform="matrix(.863 0 0 .919 76.072 34.099)" r="128.64"/><radialGradient id="k" xlink:href="#a" gradientUnits="userSpaceOnUse" cy="540.38" cx="925.89" gradientTransform="matrix(.863 0 0 1.201 76.072 -106.132)" r="94.523"/><radialGradient id="d" xlink:href="#a" gradientUnits="userSpaceOnUse" cy="177.91" cx="289.44" gradientTransform="matrix(.863 0 0 .81 76.072 85.964)" r="136.96"/><radialGradient id="e" xlink:href="#a" gradientUnits="userSpaceOnUse" cy="317.8" cx="149.55" gradientTransform="matrix(.863 0 0 .919 76.072 58.924)" r="128.64"/><radialGradient id="f" xlink:href="#a" gradientUnits="userSpaceOnUse" cy="540.34" cx="98.109" gradientTransform="matrix(.863 0 0 1.201 76.072 -106.114)" r="94.524"/><radialGradient id="i" xlink:href="#a" gradientUnits="userSpaceOnUse" cy="177.91" cx="734.51" gradientTransform="matrix(.863 0 0 .81 76.072 85.964)" r="136.95"/><radialGradient id="j" xlink:href="#a" gradientUnits="userSpaceOnUse" cy="317.81" cx="874.4" gradientTransform="matrix(.863 0 0 .919 76.072 58.924)" r="128.64"/><linearGradient id="b"><stop stop-color="#ff620c" offset="0"/><stop stop-color="#ff4100" offset="1"/></linearGradient><radialGradient id="u" xlink:href="#b" gradientUnits="userSpaceOnUse" cy="954.26" cx="512.02" gradientTransform="matrix(.532 0 0 .382 244.362 400.947)" r="131.58"/><radialGradient id="v" xlink:href="#b" gradientUnits="userSpaceOnUse" cy="902.82" cx="289.49" gradientTransform="matrix(.532 0 0 .499 244.362 287.21)" r="136.95"/><radialGradient id="w" xlink:href="#b" gradientUnits="userSpaceOnUse" cy="762.92" cx="149.6" gradientTransform="matrix(.532 0 0 .566 244.362 231.869)" r="128.64"/><radialGradient id="t" xlink:href="#b" gradientUnits="userSpaceOnUse" cy="902.81" cx="734.56" gradientTransform="matrix(.532 0 0 .499 244.362 287.209)" r="136.95"/><radialGradient id="s" xlink:href="#b" gradientUnits="userSpaceOnUse" cy="762.92" cx="874.45" gradientTransform="matrix(.532 0 0 .566 244.362 231.869)" r="128.64"/><radialGradient id="r" xlink:href="#b" gradientUnits="userSpaceOnUse" cy="540.38" cx="925.89" gradientTransform="matrix(.532 0 0 .74 244.362 145.467)" r="94.523"/><radialGradient id="z" xlink:href="#b" gradientUnits="userSpaceOnUse" cy="177.91" cx="289.44" gradientTransform="matrix(.532 0 0 .499 244.362 263.825)" r="136.96"/><radialGradient id="y" xlink:href="#b" gradientUnits="userSpaceOnUse" cy="317.8" cx="149.55" gradientTransform="matrix(.532 0 0 .566 244.362 247.165)" r="128.64"/><radialGradient id="x" xlink:href="#b" gradientUnits="userSpaceOnUse" cy="540.34" cx="98.109" gradientTransform="matrix(.532 0 0 .74 244.362 145.477)" r="94.524"/><radialGradient id="o" xlink:href="#b" gradientUnits="userSpaceOnUse" cy="126.47" cx="511.98" gradientTransform="matrix(.532 0 0 .382 244.362 277.019)" r="131.58"/><radialGradient id="p" xlink:href="#b" gradientUnits="userSpaceOnUse" cy="177.91" cx="734.51" gradientTransform="matrix(.532 0 0 .499 244.362 263.825)" r="136.95"/><radialGradient id="q" xlink:href="#b" gradientUnits="userSpaceOnUse" cy="317.81" cx="874.4" gradientTransform="matrix(.532 0 0 .566 244.362 247.164)" r="128.64"/><radialGradient id="c" xlink:href="#a" gradientUnits="userSpaceOnUse" cy="126.47" cx="511.98" gradientTransform="matrix(-.863 0 0 .62 959.473 107.379)" r="131.58"/></defs><g><g><path d="m631.29,119.15-39.707,148.15c-48.364-12.959-99.274-12.967-147.64-0.008l-39.69-148.13c74.37-19.927,152.67-19.929,227.04-0.002z" fill="url(#c)" transform="translate(0 -28.362)"/><text font-size="60" y="203.248" x="493.516" font-family="TeX Gyre Adventor" letter-spacing="0" word-spacing="0" transform="translate(0 -28.362)"><tspan font-size="60" y="203.248" x="493.516" font-family="TeX Gyre Adventor">C</tspan></text></g><g><path d="m404.25,119.15,39.689,148.16c-48.364,12.959-92.457,38.407-127.86,73.812l-108.46-108.45c54.443-54.443,122.25-93.594,196.62-113.52z" fill="url(#d)" transform="translate(0 -28.362)"/><text font-size="60" y="253.988" x="313.285" font-family="TeX Gyre Adventor" letter-spacing="0" word-spacing="0" transform="translate(0 -28.362)"><tspan font-size="60" y="253.988" x="313.285" font-family="TeX Gyre Adventor">F</tspan></text></g><g><path d="M207.63,232.67,316.08,341.13c-35.41,35.41-60.87,79.49-73.83,127.86l-148.14-39.7c19.929-74.37,59.079-142.18,113.52-196.62z" fill="url(#e)" transform="translate(0 -28.362)"/><text font-size="60" y="377.72" x="177.052" font-family="TeX Gyre Adventor" letter-spacing="0" word-spacing="0" transform="translate(0 -28.362)"><tspan font-size="60" y="377.72" x="177.052" font-family="TeX Gyre Adventor">B♭</tspan></text></g><g><path d="m94.11,429.29,148.15,39.707c-12.959,48.364-12.967,99.274-0.008,147.64l-148.14,39.69c-19.928-74.37-19.929-152.67-0.001-227.04z" fill="url(#f)" transform="translate(0 -28.362)"/><text font-size="60" y="565.127" x="132.279" font-family="TeX Gyre Adventor" letter-spacing="0" word-spacing="0" transform="translate(0 -28.362)"><tspan font-size="60" y="565.127" x="132.279" font-family="TeX Gyre Adventor">E♭</tspan></text></g><g><path d="M207.67,853,316.12,744.54c-35.4-35.41-60.87-79.49-73.82-127.86l-148.15,39.7c19.927,74.37,59.076,142.18,113.52,196.62z" fill="url(#g)" transform="translate(0 -28.362)"/><text font-size="60" y="754.518" x="172.834" font-family="TeX Gyre Adventor" letter-spacing="0" word-spacing="0" transform="translate(0 -28.362)"><tspan font-size="60" y="754.518" x="172.834" font-family="TeX Gyre Adventor">A♭</tspan></text></g><g><path d="m404.29,966.52,39.688-148.16c-48.36-12.96-92.45-38.4-127.86-73.81l-108.45,108.45c54.443,54.443,122.25,93.594,196.62,113.52z" fill="url(#h)" transform="translate(0 -28.362)"/><text font-size="60" y="871.847" x="249.038" font-family="TeX Gyre Adventor" letter-spacing="0" word-spacing="0" transform="translate(0 -28.362)"><tspan font-size="60" y="871.847" x="249.038" font-family="TeX Gyre Adventor">D♭/C♯</tspan></text></g><g><path d="m631.29,119.15-39.688,148.16c48.364,12.959,92.457,38.407,127.86,73.812l108.45-108.44c-54.44-54.45-122.25-93.6-196.62-113.53z" fill="url(#i)" transform="translate(0 -28.362)"/><text font-size="60" y="249.41" x="679.047" font-family="TeX Gyre Adventor" letter-spacing="0" word-spacing="0" transform="translate(0 -28.362)"><tspan font-size="60" y="249.41" x="679.047" font-family="TeX Gyre Adventor">G</tspan></text></g><g><path d="M827.91,232.68,719.46,341.14c35.405,35.405,60.867,79.49,73.826,127.85l148.14-39.69c-19.93-74.37-59.08-142.18-113.52-196.62z" fill="url(#j)" transform="translate(0 -28.362)"/><text font-size="60" y="378.776" x="811.92" font-family="TeX Gyre Adventor" letter-spacing="0" word-spacing="0" transform="translate(0 -28.362)"><tspan font-size="60" y="378.776" x="811.92" font-family="TeX Gyre Adventor">D</tspan></text></g><g><path d="M941.47,656.37,793.32,616.67c12.959-48.364,12.967-99.274,0.008-147.64l148.14-39.695c19.927,74.37,19.929,152.67,0,227.04z" fill="url(#k)" transform="translate(0 -28.362)"/><text font-size="60" y="574.192" x="852.158" font-family="TeX Gyre Adventor" letter-spacing="0" word-spacing="0" transform="translate(0 -28.362)"><tspan font-size="60" y="574.192" x="852.158" font-family="TeX Gyre Adventor">A</tspan></text></g><g><path d="M827.95,853,719.5,744.54c35.405-35.405,60.867-79.49,73.826-127.85l148.14,39.695c-19.927,74.37-59.076,142.18-113.52,196.62z" fill="url(#l)" transform="translate(0 -28.362)"/><text font-size="60" y="756.324" x="807.274" font-family="TeX Gyre Adventor" letter-spacing="0" word-spacing="0" transform="translate(0 -28.362)"><tspan font-size="60" y="756.324" x="807.274" font-family="TeX Gyre Adventor">E</tspan></text></g><g><path d="M631.33,966.52,591.64,818.36c48.364-12.959,92.457-38.407,127.86-73.812l108.45,108.44c-54.44,54.45-122.25,93.6-196.62,113.53z" fill="url(#m)" transform="translate(0 -28.362)"/><text font-size="60" y="873.112" x="633.638" font-family="TeX Gyre Adventor" letter-spacing="0" word-spacing="0" transform="translate(0 -28.362)"><tspan font-size="60" y="873.112" x="633.638" font-family="TeX Gyre Adventor">C♭/B</tspan></text></g><text font-size="34.509" y="179.221" x="82.574" font-family="Sans" letter-spacing="0" word-spacing="0" transform="translate(0 -28.362)"><tspan font-size="129.409" y="179.221" x="82.574">♭</tspan></text><text font-size="34.509" y="181.082" x="900.046" font-family="Sans" letter-spacing="0" word-spacing="0" transform="translate(0 -28.362)"><tspan font-size="129.409" y="181.082" x="900.046">♯</tspan></text><g><path d="M631.33,966.52,591.62,818.37c-48.364,12.959-99.274,12.967-147.64,0.008l-39.695,148.14c74.37,19.927,152.67,19.929,227.04,0z" fill="url(#n)" transform="translate(0 -28.362)"/><text font-size="60" y="933.951" x="436.615" font-family="TeX Gyre Adventor" letter-spacing="0" word-spacing="0" transform="translate(0 -28.362)"><tspan font-size="60" y="933.951" x="436.615" font-family="TeX Gyre Adventor">G♭/F♯</tspan></text></g><g><path d="m446.57,284.27,24.465,91.282c29.799-7.9847,61.167-7.9895,90.966-0.005l24.457-91.277c-45.823-12.278-94.066-12.279-139.89-0.00087z" fill="url(#o)" transform="translate(0 -28.362)"/><text font-size="40" y="336.371" x="503.4" font-family="TeX Gyre Adventor" letter-spacing="0" word-spacing="0" transform="translate(0 -28.362)"><tspan font-size="40" y="336.371" x="503.4" font-family="TeX Gyre Adventor">a</tspan></text></g><g><path d="m586.45,284.27-24.454,91.285c29.799,7.9847,56.967,23.664,78.781,45.479l66.819-66.819c-33.544-33.544-75.324-57.667-121.15-69.945z" fill="url(#p)" transform="translate(0 -28.362)"/><text font-size="40" y="366.864" x="616.997" font-family="TeX Gyre Adventor" letter-spacing="0" word-spacing="0" transform="translate(0 -28.362)"><tspan font-size="40" y="366.864" x="616.997" font-family="TeX Gyre Adventor">e</tspan></text></g><g><path d="m707.6,354.22-66.82,66.829c21.815,21.815,37.502,48.977,45.487,78.776l91.277-24.457c-12.278-45.823-36.399-87.603-69.944-121.15z" fill="url(#q)" transform="translate(0 -28.362)"/><text font-size="40" y="444.95" x="697.544" font-family="TeX Gyre Adventor" letter-spacing="0" word-spacing="0" transform="translate(0 -28.362)"><tspan font-size="40" y="444.95" x="697.544" font-family="TeX Gyre Adventor">b</tspan></text></g><g><path fill="url(#r)" d="m777.57,615.28-91.282-24.465c7.9847-29.799,7.9895-61.167,0.005-90.966l91.277-24.457c12.278,45.823,12.279,94.066,0,139.89z" transform="translate(0 -28.362)"/><text font-size="40" y="557.744" x="728.988" font-family="TeX Gyre Adventor" letter-spacing="0" word-spacing="0" transform="translate(0 -28.362)"><tspan font-size="40" y="557.744" x="728.988" font-family="TeX Gyre Adventor">f♯</tspan></text></g><g><path d="M707.62,736.43,640.8,669.6c21.815-21.815,37.502-48.977,45.487-78.776l91.277,24.457c-12.278,45.823-36.399,87.603-69.943,121.15z" fill="url(#s)" transform="translate(0 -28.362)"/><text font-size="40" y="671.518" x="692.583" font-family="TeX Gyre Adventor" letter-spacing="0" word-spacing="0" transform="translate(0 -28.362)"><tspan font-size="40" y="671.518" x="692.583" font-family="TeX Gyre Adventor">a♯</tspan></text></g><g><path d="m586.48,806.37-24.454-91.285c29.799-7.9847,56.967-23.664,78.781-45.479l66.819,66.819c-33.544,33.544-75.324,57.667-121.15,69.945z" fill="url(#t)" transform="translate(0 -28.362)"/><text font-size="40" y="747.857" x="578.508" font-family="TeX Gyre Adventor" letter-spacing="0" word-spacing="0" transform="translate(0 -28.362)"><tspan y="747.857" x="578.508">a♭/g♯</tspan></text></g><g><path d="m586.48,806.37-24.465-91.282c-29.799,7.9847-61.167,7.9895-90.966,0.005l-24.458,91.276c45.823,12.278,94.066,12.279,139.89,0z" fill="url(#u)" transform="translate(0 -28.362)"/><text font-size="40" y="780.402" x="462.718" font-family="TeX Gyre Adventor" letter-spacing="0" word-spacing="0" transform="translate(0 -28.362)"><tspan y="780.402" x="462.718">e♭/d♯</tspan></text></g><g><path d="m446.59,806.37,24.454-91.285c-29.799-7.9847-56.967-23.664-78.781-45.479l-66.819,66.819c33.544,33.544,75.324,57.667,121.15,69.945z" fill="url(#v)" transform="translate(0 -28.362)"/><text font-size="40" y="749.165" x="350.86" font-family="TeX Gyre Adventor" letter-spacing="0" word-spacing="0" transform="translate(0 -28.362)"><tspan y="749.165" x="350.86">b♭/a♯</tspan></text></g><g><path d="m325.45,736.43,66.82-66.829c-21.82-21.82-37.51-48.98-45.49-78.78l-91.277,24.457c12.278,45.823,36.399,87.603,69.943,121.15z" fill="url(#w)" transform="translate(0 -28.362)"/><text font-size="40" y="666.639" x="320.598" font-family="TeX Gyre Adventor" letter-spacing="0" word-spacing="0" transform="translate(0 -28.362)"><tspan y="666.639" x="320.598">f</tspan></text></g><g><path d="m255.48,475.36,91.282,24.465c-7.9847,29.799-7.9895,61.167-0.005,90.966l-91.276,24.457c-12.278-45.823-12.279-94.066-0.001-139.89z" fill="url(#x)" transform="translate(0 -28.362)"/><text font-size="40" y="561.712" x="285.215" font-family="TeX Gyre Adventor" letter-spacing="0" word-spacing="0" transform="translate(0 -28.362)"><tspan y="561.712" x="285.215">c</tspan></text></g><g><path d="m325.42,354.22,66.82,66.829c-21.815,21.815-37.502,48.977-45.487,78.776l-91.277-24.457c12.278-45.823,36.399-87.603,69.943-121.15z" fill="url(#y)" transform="translate(0 -28.362)"/><text font-size="40" y="447.375" x="310.72" font-family="TeX Gyre Adventor" letter-spacing="0" word-spacing="0" transform="translate(0 -28.362)"><tspan y="447.375" x="310.72">g</tspan></text></g><g><path d="m446.56,284.27,24.454,91.285c-29.799,7.9847-56.967,23.664-78.781,45.479l-66.819-66.819c33.544-33.544,75.324-57.667,121.15-69.945z" fill="url(#z)" transform="translate(0 -28.362)"/><text font-size="40" y="369.631" x="393.294" font-family="TeX Gyre Adventor" letter-spacing="0" word-spacing="0" transform="translate(0 -28.362)"><tspan y="369.631" x="393.294">d</tspan></text></g><path d="M358.23,76.852c-144.34,30.248-271.31,170.74-305.02,306.24" stroke="#000" stroke-width="3.106" marker-end="url(#A)" fill="none" transform="translate(0 -28.362)"/><path d="m681.64,78.01c144.34,30.248,271.3,170.74,305.02,306.24" stroke="#000" stroke-width="3.106" marker-end="url(#A)" fill="none" transform="translate(0 -28.362)"/></g></svg>